<svg width="56" height="56" viewBox="0 0 56 56" fill="none" xmlns="http://www.w3.org/2000/svg">
<rect x="11" y="11" width="4" height="4" rx="2" fill="#D7E2FF"/>
<rect x="19" y="11" width="4" height="4" rx="2" fill="#D7E2FF"/>
<rect x="27" y="11" width="4" height="4" rx="2" fill="#D7E2FF"/>
<rect x="35" y="11" width="4" height="4" rx="2" fill="#D7E2FF"/>
<rect x="43" y="11" width="4" height="4" rx="2" fill="#D7E2FF"/>
<rect x="51" y="11" width="4" height="4" rx="2" fill="#D7E2FF"/>
<rect x="11" y="19" width="4" height="4" rx="2" fill="#D7E2FF"/>
<rect x="19" y="19" width="4" height="4" rx="2" fill="#D7E2FF"/>
<rect x="27" y="19" width="4" height="4" rx="2" fill="#D7E2FF"/>
<rect x="35" y="19" width="4" height="4" rx="2" fill="#D7E2FF"/>
<rect x="43" y="19" width="4" height="4" rx="2" fill="#D7E2FF"/>
<rect x="51" y="19" width="4" height="4" rx="2" fill="#D7E2FF"/>
<rect x="11" y="27" width="4" height="4" rx="2" fill="#D7E2FF"/>
<rect x="19" y="27" width="4" height="4" rx="2" fill="#D7E2FF"/>
<rect x="27" y="27" width="4" height="4" rx="2" fill="#D7E2FF"/>
<rect x="35" y="27" width="4" height="4" rx="2" fill="#D7E2FF"/>
<rect x="43" y="27" width="4" height="4" rx="2" fill="#D7E2FF"/>
<rect x="51" y="27" width="4" height="4" rx="2" fill="#D7E2FF"/>
<rect x="11" y="35" width="4" height="4" rx="2" fill="#D7E2FF"/>
<rect x="19" y="35" width="4" height="4" rx="2" fill="#D7E2FF"/>
<rect x="27" y="35" width="4" height="4" rx="2" fill="#D7E2FF"/>
<rect x="35" y="35" width="4" height="4" rx="2" fill="#D7E2FF"/>
<rect x="43" y="35" width="4" height="4" rx="2" fill="#D7E2FF"/>
<rect x="51" y="35" width="4" height="4" rx="2" fill="#D7E2FF"/>
<rect x="11" y="43" width="4" height="4" rx="2" fill="#D7E2FF"/>
<rect x="19" y="43" width="4" height="4" rx="2" fill="#D7E2FF"/>
<rect x="27" y="43" width="4" height="4" rx="2" fill="#D7E2FF"/>
<rect x="35" y="43" width="4" height="4" rx="2" fill="#D7E2FF"/>
<rect x="43" y="43" width="4" height="4" rx="2" fill="#D7E2FF"/>
<rect x="51" y="43" width="4" height="4" rx="2" fill="#D7E2FF"/>
<rect x="11" y="51" width="4" height="4" rx="2" fill="#D7E2FF"/>
<rect x="19" y="51" width="4" height="4" rx="2" fill="#D7E2FF"/>
<rect x="27" y="51" width="4" height="4" rx="2" fill="#D7E2FF"/>
<rect x="35" y="51" width="4" height="4" rx="2" fill="#D7E2FF"/>
<rect x="43" y="51" width="4" height="4" rx="2" fill="#D7E2FF"/>
<rect x="51" y="51" width="4" height="4" rx="2" fill="#D7E2FF"/>
<rect x="5" y="5" width="46" height="46" stroke="#5C80E0" stroke-width="3" stroke-linejoin="round"/>
<path d="M19.9395 24.9393L21.0001 23.8787C20.4143 23.2929 19.4646 23.2929 18.8788 23.8787L19.9395 24.9393ZM28.0001 33L26.9395 34.0607C27.5252 34.6464 28.475 34.6464 29.0608 34.0607L28.0001 33ZM42.0001 19L43.5001 19C43.5001 18.6022 43.3421 18.2206 43.0608 17.9393C42.7795 17.658 42.3979 17.5 42.0001 17.5L42.0001 19ZM40.5001 31C40.5001 31.8284 41.1717 32.5 42.0001 32.5C42.8285 32.5 43.5001 31.8284 43.5001 31L40.5001 31ZM30.0001 17.5C29.1717 17.5 28.5001 18.1716 28.5001 19C28.5001 19.8284 29.1717 20.5 30.0001 20.5L30.0001 17.5ZM6.00011 41L21.0001 26L18.8788 23.8787L3.87879 38.8787L6.00011 41ZM18.8788 26L26.9395 34.0607L29.0608 31.9393L21.0001 23.8787L18.8788 26ZM29.0608 34.0607L43.0608 20.0607L40.9395 17.9393L26.9395 31.9393L29.0608 34.0607ZM40.5001 19L40.5001 31L43.5001 31L43.5001 19L40.5001 19ZM42.0001 17.5L30.0001 17.5L30.0001 20.5L42.0001 20.5L42.0001 17.5Z" fill="#5C80E0"/>
</svg>
