<svg width="56" height="56" viewBox="0 0 56 56" fill="none" xmlns="http://www.w3.org/2000/svg">
<rect x="11" y="11" width="4" height="4" fill="#3A4258"/>
<rect x="19" y="11" width="4" height="4" fill="#3A4258"/>
<rect x="27" y="11" width="4" height="4" fill="#3A4258"/>
<rect x="35" y="11" width="4" height="4" fill="#3A4258"/>
<rect x="43" y="11" width="4" height="4" fill="#3A4258"/>
<rect x="51" y="11" width="4" height="4" fill="#3A4258"/>
<rect x="11" y="19" width="4" height="4" fill="#3A4258"/>
<rect x="19" y="19" width="4" height="4" fill="#3A4258"/>
<rect x="27" y="19" width="4" height="4" fill="#3A4258"/>
<rect x="35" y="19" width="4" height="4" fill="#3A4258"/>
<rect x="43" y="19" width="4" height="4" fill="#3A4258"/>
<rect x="51" y="19" width="4" height="4" fill="#3A4258"/>
<rect x="11" y="27" width="4" height="4" fill="#3A4258"/>
<rect x="19" y="27" width="4" height="4" fill="#3A4258"/>
<rect x="27" y="27" width="4" height="4" fill="#3A4258"/>
<rect x="35" y="27" width="4" height="4" fill="#3A4258"/>
<rect x="43" y="27" width="4" height="4" fill="#3A4258"/>
<rect x="51" y="27" width="4" height="4" fill="#3A4258"/>
<rect x="11" y="35" width="4" height="4" fill="#3A4258"/>
<rect x="19" y="35" width="4" height="4" fill="#3A4258"/>
<rect x="27" y="35" width="4" height="4" fill="#3A4258"/>
<rect x="35" y="35" width="4" height="4" fill="#3A4258"/>
<rect x="43" y="35" width="4" height="4" fill="#3A4258"/>
<rect x="51" y="35" width="4" height="4" fill="#3A4258"/>
<rect x="11" y="43" width="4" height="4" fill="#3A4258"/>
<rect x="19" y="43" width="4" height="4" fill="#3A4258"/>
<rect x="27" y="43" width="4" height="4" fill="#3A4258"/>
<rect x="35" y="43" width="4" height="4" fill="#3A4258"/>
<rect x="43" y="43" width="4" height="4" fill="#3A4258"/>
<rect x="51" y="43" width="4" height="4" fill="#3A4258"/>
<rect x="11" y="51" width="4" height="4" fill="#3A4258"/>
<rect x="19" y="51" width="4" height="4" fill="#3A4258"/>
<rect x="27" y="51" width="4" height="4" fill="#3A4258"/>
<rect x="35" y="51" width="4" height="4" fill="#3A4258"/>
<rect x="43" y="51" width="4" height="4" fill="#3A4258"/>
<rect x="51" y="51" width="4" height="4" fill="#3A4258"/>
<rect x="5" y="5" width="46" height="46" stroke="white" stroke-width="3" stroke-linejoin="round"/>
<path d="M40 28C40 34.6274 34.6274 40 28 40C24.5231 40 21.3916 38.5213 19.2 36.1585M40 28L42.5 33.5M40 28L34.5 31M16 28C16 21.3726 21.3726 16 28 16C31.1505 16 34.0175 17.2141 36.1585 19.2M16 28L13.5 22.5M16 28L21.5 25" stroke="white" stroke-width="3" stroke-linecap="round" stroke-linejoin="round"/>
</svg>
