<svg width="792" height="616" viewBox="0 0 792 616" fill="none" xmlns="http://www.w3.org/2000/svg">
<g filter="url(#filter0_d)">
<path d="M48 56C48 47.1634 55.1634 40 64 40H728C736.837 40 744 47.1634 744 56V544C744 552.837 736.837 560 728 560H64C55.1634 560 48 552.837 48 544V56Z" fill="#343C53"/>
<g filter="url(#filter1_d)">
<path d="M60 52H116V544C116 546.209 114.209 548 112 548H64C61.7909 548 60 546.209 60 544V52Z" fill="#3A4258"/>
<path fill-rule="evenodd" clip-rule="evenodd" d="M90.3337 497.398C90.4411 497.12 90.5 496.817 90.5 496.5C90.5 495.119 89.3807 494 88 494C86.6193 494 85.5 495.119 85.5 496.5C85.5 496.817 85.5589 497.12 85.6663 497.398C82.9477 498.359 81 500.952 81 504V507L79 511H81H85.55C85.5172 511.162 85.5 511.329 85.5 511.5C85.5 512.881 86.6193 514 88 514C89.3807 514 90.5 512.881 90.5 511.5C90.5 511.329 90.4828 511.162 90.45 511H95H97L95 507V504C95 500.952 93.0523 498.359 90.3337 497.398ZM89.1561 497.095C89.2481 496.917 89.3 496.714 89.3 496.5C89.3 495.782 88.718 495.2 88 495.2C87.282 495.2 86.7 495.782 86.7 496.5C86.7 496.714 86.7519 496.917 86.8439 497.095C87.22 497.033 87.6062 497 88 497C88.3938 497 88.78 497.033 89.1561 497.095ZM86.7996 511C86.7354 511.154 86.7 511.323 86.7 511.5C86.7 512.218 87.282 512.8 88 512.8C88.718 512.8 89.3 512.218 89.3 511.5C89.3 511.323 89.2646 511.154 89.2004 511H86.7996ZM93.8 507.28L95.06 509.8H93.8H82.2H80.94L82.2 507.28V504C82.2 500.797 84.7968 498.2 88 498.2C91.2033 498.2 93.8 500.797 93.8 504V507.28Z" fill="white"/>
<circle cx="95" cy="500" r="4" fill="#FF9A94"/>
<path fill-rule="evenodd" clip-rule="evenodd" d="M79 199C78.4477 199 78 199.448 78 200V212C78 212.552 78.4477 213 79 213H83V216.628C83 217.035 83.4597 217.272 83.7906 217.035L89.44 213H97C97.5523 213 98 212.552 98 212V200C98 199.448 97.5523 199 97 199H79ZM79.2 200.6C79.2 200.379 79.3791 200.2 79.6 200.2H96.4C96.6209 200.2 96.8 200.379 96.8 200.6V211.4C96.8 211.621 96.6209 211.8 96.4 211.8H89.044L84.2 215.26V211.8H79.6C79.3791 211.8 79.2 211.621 79.2 211.4V200.6Z" fill="white"/>
<path fill-rule="evenodd" clip-rule="evenodd" d="M86.895 143C86.3855 143 85.9574 143.383 85.9012 143.89L85.7362 145.374C84.8661 145.671 84.0732 146.135 83.3956 146.727L82.0256 146.127C81.5589 145.923 81.013 146.102 80.7582 146.543L79.6533 148.457C79.3985 148.898 79.5163 149.46 79.9267 149.762L81.1305 150.648C81.0449 151.085 81 151.538 81 152C81 152.462 81.0449 152.915 81.1305 153.352L79.9267 154.238C79.5163 154.54 79.3985 155.102 79.6533 155.543L80.7582 157.457C81.013 157.898 81.5589 158.077 82.0256 157.873L83.3956 157.273C84.0732 157.865 84.8661 158.329 85.7362 158.626L85.9012 160.11C85.9574 160.617 86.3855 161 86.895 161H89.1049C89.6145 161 90.0426 160.617 90.0988 160.11L90.2638 158.626C91.1339 158.329 91.9267 157.865 92.6044 157.273L93.9744 157.873C94.4411 158.077 94.987 157.898 95.2417 157.457L96.3467 155.543C96.6015 155.102 96.4837 154.54 96.0733 154.238L94.8695 153.352C94.9551 152.915 95 152.462 95 152C95 151.538 94.9551 151.085 94.8695 150.648L96.0733 149.762C96.4837 149.46 96.6015 148.898 96.3467 148.457L95.2417 146.543C94.987 146.102 94.4411 145.923 93.9744 146.127L92.6044 146.727C91.9267 146.135 91.1339 145.671 90.2638 145.374L90.0988 143.89C90.0426 143.383 89.6145 143 89.1049 143H86.895ZM91.3607 147.272C91.0645 147.061 90.7477 146.878 90.4138 146.725C90.0174 146.543 89.597 146.405 89.1587 146.316L88.9701 144.644C88.9416 144.391 88.7277 144.2 88.4732 144.2H87.5268C87.2723 144.2 87.0584 144.391 87.0299 144.644L86.8413 146.316C86.4029 146.405 85.9825 146.543 85.5861 146.725C85.2523 146.878 84.9355 147.061 84.6393 147.272C84.2794 147.529 83.95 147.825 83.6577 148.155L82.1145 147.482C81.8813 147.38 81.6088 147.47 81.4816 147.69L81.0084 148.51C80.8812 148.73 80.9397 149.011 81.1444 149.162L82.4976 150.161C82.3599 150.573 82.2672 151.006 82.2254 151.453C82.2086 151.633 82.2 151.816 82.2 152C82.2 152.184 82.2086 152.367 82.2254 152.547C82.2672 152.994 82.3599 153.427 82.4976 153.839L81.1444 154.838C80.9397 154.989 80.8812 155.27 81.0084 155.49L81.4816 156.31C81.6088 156.53 81.8813 156.62 82.1145 156.518L83.6577 155.845C83.95 156.175 84.2794 156.471 84.6393 156.728C84.9355 156.939 85.2523 157.122 85.5861 157.275C85.9825 157.457 86.4029 157.595 86.8413 157.684L87.0299 159.356C87.0584 159.609 87.2723 159.8 87.5268 159.8H88.4732C88.7277 159.8 88.9416 159.609 88.9701 159.356L89.1587 157.684C89.597 157.595 90.0174 157.457 90.4138 157.275C90.7477 157.122 91.0645 156.939 91.3607 156.728C91.7206 156.471 92.0499 156.175 92.3423 155.845L93.8855 156.518C94.1187 156.62 94.3911 156.53 94.5184 156.31L94.9916 155.49C95.1188 155.27 95.0603 154.989 94.8556 154.838L93.5024 153.839C93.6401 153.427 93.7328 152.994 93.7746 152.547C93.7914 152.367 93.8 152.184 93.8 152C93.8 151.816 93.7914 151.633 93.7746 151.453C93.7328 151.006 93.6401 150.573 93.5024 150.161L94.8556 149.162C95.0603 149.011 95.1188 148.73 94.9916 148.51L94.5184 147.69C94.3911 147.47 94.1187 147.38 93.8855 147.482L92.3423 148.155C92.0499 147.825 91.7206 147.529 91.3607 147.272ZM88 156C90.2091 156 92 154.209 92 152C92 149.791 90.2091 148 88 148C85.7909 148 84 149.791 84 152C84 154.209 85.7909 156 88 156ZM90.8 152C90.8 153.546 89.5464 154.8 88 154.8C86.4536 154.8 85.2 153.546 85.2 152C85.2 150.454 86.4536 149.2 88 149.2C89.5464 149.2 90.8 150.454 90.8 152Z" fill="white"/>
<path fill-rule="evenodd" clip-rule="evenodd" d="M80 88C78.8954 88 78 88.8954 78 90V91V102C78 103.105 78.8954 104 80 104H96C97.1046 104 98 103.105 98 102V91V90C98 88.8954 97.1046 88 96 88H80ZM79.2 101.8V91.84L85.1327 95.9929C86.8543 97.198 89.1457 97.198 90.8673 95.9929L96.8 91.84V101.8C96.8 102.352 96.3523 102.8 95.8 102.8H80.2C79.6477 102.8 79.2 102.352 79.2 101.8ZM80.2 89.2C79.6477 89.2 79.2 89.6477 79.2 90.2V90.4139L85.6996 94.9829C87.0798 95.9531 88.9202 95.9531 90.3004 94.9829L96.8 90.4139V90.2C96.8 89.6477 96.3523 89.2 95.8 89.2H80.2Z" fill="white"/>
</g>
<g filter="url(#filter2_d)">
<g clip-path="url(#clip0)">
<path d="M124 52H728C730.209 52 732 53.7909 732 56V544C732 546.209 730.209 548 728 548H124V52Z" fill="#3A4258"/>
<line x1="172.5" y1="132" x2="172.5" y2="516" stroke="white" stroke-opacity="0.1"/>
<line x1="204.5" y1="132" x2="204.5" y2="516" stroke="white" stroke-opacity="0.1"/>
<line x1="236.5" y1="132" x2="236.5" y2="516" stroke="white" stroke-opacity="0.1"/>
<line x1="268.5" y1="132" x2="268.5" y2="516" stroke="white" stroke-opacity="0.1"/>
<line x1="300.5" y1="132" x2="300.5" y2="516" stroke="white" stroke-opacity="0.1"/>
<line x1="332.5" y1="132" x2="332.5" y2="516" stroke="white" stroke-opacity="0.1"/>
<line x1="364.5" y1="132" x2="364.5" y2="516" stroke="white" stroke-opacity="0.1"/>
<line x1="396.5" y1="132" x2="396.5" y2="516" stroke="white" stroke-opacity="0.1"/>
<line x1="428.5" y1="132" x2="428.5" y2="516" stroke="white" stroke-opacity="0.1"/>
<line x1="460.5" y1="132" x2="460.5" y2="516" stroke="white" stroke-opacity="0.1"/>
<line x1="492.5" y1="132" x2="492.5" y2="516" stroke="white" stroke-opacity="0.1"/>
<line x1="524.5" y1="132" x2="524.5" y2="516" stroke="white" stroke-opacity="0.1"/>
<line x1="556.5" y1="132" x2="556.5" y2="516" stroke="white" stroke-opacity="0.1"/>
<line x1="588.5" y1="132" x2="588.5" y2="516" stroke="white" stroke-opacity="0.1"/>
<line x1="620.5" y1="132" x2="620.5" y2="516" stroke="white" stroke-opacity="0.1"/>
<line x1="652.5" y1="132" x2="652.5" y2="516" stroke="white" stroke-opacity="0.1"/>
<line x1="684.5" y1="132" x2="684.5" y2="516" stroke="white" stroke-opacity="0.1"/>
<line x1="716.5" y1="132" x2="716.5" y2="516" stroke="white" stroke-opacity="0.1"/>
<line x1="156" y1="147.5" x2="700" y2="147.5" stroke="white" stroke-opacity="0.1"/>
<line x1="156" y1="179.5" x2="700" y2="179.5" stroke="white" stroke-opacity="0.1"/>
<line x1="156" y1="211.5" x2="700" y2="211.5" stroke="white" stroke-opacity="0.1"/>
<line x1="156" y1="243.5" x2="700" y2="243.5" stroke="white" stroke-opacity="0.1"/>
<line x1="156" y1="275.5" x2="700" y2="275.5" stroke="white" stroke-opacity="0.1"/>
<line x1="156" y1="307.5" x2="700" y2="307.5" stroke="white" stroke-opacity="0.1"/>
<line x1="156" y1="339.5" x2="700" y2="339.5" stroke="white" stroke-opacity="0.1"/>
<line x1="156" y1="371.5" x2="700" y2="371.5" stroke="white" stroke-opacity="0.1"/>
<line x1="156" y1="403.5" x2="700" y2="403.5" stroke="white" stroke-opacity="0.1"/>
<line x1="156" y1="435.5" x2="700" y2="435.5" stroke="white" stroke-opacity="0.1"/>
<line x1="156" y1="467.5" x2="700" y2="467.5" stroke="white" stroke-opacity="0.1"/>
<line x1="156" y1="499.5" x2="700" y2="499.5" stroke="white" stroke-opacity="0.1"/>
<line x1="156" y1="531.5" x2="700" y2="531.5" stroke="white" stroke-opacity="0.1"/>
<rect x="156.5" y="132.5" width="543" height="383" rx="7.5" stroke="white" stroke-opacity="0.2"/>
<path d="M205 403.5C348.267 375.912 422 347 467 287C512 227 579 211.5 652 211.5" stroke="#FF9A94" stroke-width="4" stroke-linecap="round" stroke-linejoin="round"/>
<path d="M205 483.5C347.597 456.041 406.104 381.899 462.5 331C534.221 266.269 595.5 244 652.5 244" stroke="#97F3C7" stroke-width="4" stroke-linecap="round" stroke-linejoin="round"/>
<circle opacity="0.5" cx="700" cy="84" r="16" fill="#242D45"/>
<rect opacity="0.5" x="244" y="68" width="368" height="32" rx="16" fill="#242D45"/>
<rect x="189" y="180" width="31" height="15" rx="7.5" fill="#FF9A94"/>
<rect x="189" y="212" width="31" height="15" rx="7.5" fill="#97F3C7"/>
</g>
</g>
</g>
<defs>
<filter id="filter0_d" x="0" y="0" width="792" height="616" filterUnits="userSpaceOnUse" color-interpolation-filters="sRGB">
<feFlood flood-opacity="0" result="BackgroundImageFix"/>
<feColorMatrix in="SourceAlpha" type="matrix" values="0 0 0 0 0 0 0 0 0 0 0 0 0 0 0 0 0 0 127 0"/>
<feOffset dy="8"/>
<feGaussianBlur stdDeviation="24"/>
<feColorMatrix type="matrix" values="0 0 0 0 0.141176 0 0 0 0 0.176471 0 0 0 0 0.270588 0 0 0 0.3 0"/>
<feBlend mode="normal" in2="BackgroundImageFix" result="effect1_dropShadow"/>
<feBlend mode="normal" in="SourceGraphic" in2="effect1_dropShadow" result="shape"/>
</filter>
<filter id="filter1_d" x="48" y="44" width="80" height="520" filterUnits="userSpaceOnUse" color-interpolation-filters="sRGB">
<feFlood flood-opacity="0" result="BackgroundImageFix"/>
<feColorMatrix in="SourceAlpha" type="matrix" values="0 0 0 0 0 0 0 0 0 0 0 0 0 0 0 0 0 0 127 0"/>
<feOffset dy="4"/>
<feGaussianBlur stdDeviation="6"/>
<feColorMatrix type="matrix" values="0 0 0 0 0 0 0 0 0 0 0 0 0 0 0 0 0 0 0.2 0"/>
<feBlend mode="normal" in2="BackgroundImageFix" result="effect1_dropShadow"/>
<feBlend mode="normal" in="SourceGraphic" in2="effect1_dropShadow" result="shape"/>
</filter>
<filter id="filter2_d" x="112" y="44" width="632" height="520" filterUnits="userSpaceOnUse" color-interpolation-filters="sRGB">
<feFlood flood-opacity="0" result="BackgroundImageFix"/>
<feColorMatrix in="SourceAlpha" type="matrix" values="0 0 0 0 0 0 0 0 0 0 0 0 0 0 0 0 0 0 127 0"/>
<feOffset dy="4"/>
<feGaussianBlur stdDeviation="6"/>
<feColorMatrix type="matrix" values="0 0 0 0 0 0 0 0 0 0 0 0 0 0 0 0 0 0 0.2 0"/>
<feBlend mode="normal" in2="BackgroundImageFix" result="effect1_dropShadow"/>
<feBlend mode="normal" in="SourceGraphic" in2="effect1_dropShadow" result="shape"/>
</filter>
<clipPath id="clip0">
<path d="M124 52H728C730.209 52 732 53.7909 732 56V544C732 546.209 730.209 548 728 548H124V52Z" fill="white"/>
</clipPath>
</defs>
</svg>
