<svg width="710" height="660" viewBox="0 0 710 660" fill="none" xmlns="http://www.w3.org/2000/svg">
<path d="M322.08 296.048V350H305.664V296.048H286.464V282.032H341.28V296.048H322.08ZM390.342 350L365.094 318.704H364.902V350H348.774V282.032H364.902V309.68H365.19L389.478 282.032H410.022L380.742 313.328L411.75 350H390.342Z" fill="#323C56" fill-opacity="0.1"/>
<path d="M340 378C340 376.895 339.105 376 338 376C336.895 376 336 376.895 336 378L340 378ZM168 448.5C168 449.605 168.895 450.5 170 450.5C171.105 450.5 172 449.605 172 448.5L168 448.5ZM186 432L186 430L186 432ZM322 432L322 434L322 432ZM172 448.417C172 447.312 171.105 446.417 170 446.417C168.895 446.417 168 447.312 168 448.417L172 448.417ZM168 448.083C168 449.188 168.895 450.083 170 450.083C171.105 450.083 172 449.188 172 448.083L168 448.083ZM172.118 446.169C172.261 445.074 171.489 444.07 170.394 443.927C169.299 443.784 168.295 444.556 168.152 445.652L172.118 446.169ZM171.72 437.041C171.047 437.917 171.211 439.172 172.087 439.845C172.963 440.518 174.218 440.354 174.891 439.478L171.72 437.041ZM177.478 436.891C178.354 436.218 178.518 434.963 177.845 434.087C177.172 433.211 175.917 433.047 175.041 433.72L177.478 436.891ZM183.652 430.152C182.556 430.295 181.784 431.299 181.927 432.394C182.07 433.489 183.074 434.261 184.169 434.118L183.652 430.152ZM188.061 434C189.165 434 190.061 433.105 190.061 432C190.061 430.895 189.165 430 188.061 430L188.061 434ZM196.303 430C195.198 430 194.303 430.895 194.303 432C194.303 433.105 195.198 434 196.303 434L196.303 430ZM200.424 434C201.529 434 202.424 433.105 202.424 432C202.424 430.895 201.529 430 200.424 430L200.424 434ZM208.667 430C207.562 430 206.667 430.895 206.667 432C206.667 433.105 207.562 434 208.667 434L208.667 430ZM212.788 434C213.892 434 214.788 433.105 214.788 432C214.788 430.895 213.892 430 212.788 430L212.788 434ZM221.03 430C219.926 430 219.03 430.895 219.03 432C219.03 433.105 219.926 434 221.03 434L221.03 430ZM225.152 434C226.256 434 227.152 433.105 227.152 432C227.152 430.895 226.256 430 225.152 430L225.152 434ZM233.394 430C232.289 430 231.394 430.895 231.394 432C231.394 433.105 232.289 434 233.394 434L233.394 430ZM237.515 434C238.62 434 239.515 433.105 239.515 432C239.515 430.895 238.62 430 237.515 430L237.515 434ZM245.758 430C244.653 430 243.758 430.895 243.758 432C243.758 433.105 244.653 434 245.758 434L245.758 430ZM249.879 434C250.983 434 251.879 433.105 251.879 432C251.879 430.895 250.983 430 249.879 430L249.879 434ZM258.121 430C257.017 430 256.121 430.895 256.121 432C256.121 433.105 257.017 434 258.121 434L258.121 430ZM262.242 434C263.347 434 264.242 433.105 264.242 432C264.242 430.895 263.347 430 262.242 430L262.242 434ZM270.485 430C269.38 430 268.485 430.895 268.485 432C268.485 433.105 269.38 434 270.485 434L270.485 430ZM274.606 434C275.711 434 276.606 433.105 276.606 432C276.606 430.895 275.711 430 274.606 430L274.606 434ZM282.848 430C281.744 430 280.848 430.895 280.848 432C280.848 433.105 281.744 434 282.848 434L282.848 430ZM286.97 434C288.074 434 288.97 433.105 288.97 432C288.97 430.895 288.074 430 286.97 430L286.97 434ZM295.212 430C294.108 430 293.212 430.895 293.212 432C293.212 433.105 294.108 434 295.212 434L295.212 430ZM299.333 434C300.438 434 301.333 433.105 301.333 432C301.333 430.895 300.438 430 299.333 430L299.333 434ZM307.576 430C306.471 430 305.576 430.895 305.576 432C305.576 433.105 306.471 434 307.576 434L307.576 430ZM311.697 434C312.802 434 313.697 433.105 313.697 432C313.697 430.895 312.802 430 311.697 430L311.697 434ZM319.939 430C318.835 430 317.939 430.895 317.939 432C317.939 433.105 318.835 434 319.939 434L319.939 430ZM324.348 433.848C325.444 433.705 326.216 432.701 326.073 431.606C325.93 430.511 324.926 429.739 323.831 429.882L324.348 433.848ZM330.522 427.109C329.646 427.782 329.482 429.037 330.155 429.913C330.828 430.789 332.083 430.953 332.959 430.28L330.522 427.109ZM336.28 426.959C336.953 426.083 336.789 424.828 335.913 424.155C335.037 423.482 333.782 423.646 333.109 424.522L336.28 426.959ZM335.882 417.831C335.739 418.926 336.511 419.93 337.606 420.073C338.701 420.216 339.705 419.444 339.848 418.348L335.882 417.831ZM340 413.889C340 412.784 339.105 411.889 338 411.889C336.895 411.889 336 412.784 336 413.889L340 413.889ZM336 405.444C336 406.549 336.895 407.444 338 407.444C339.105 407.444 340 406.549 340 405.444L336 405.444ZM340 401.222C340 400.118 339.105 399.222 338 399.222C336.895 399.222 336 400.118 336 401.222L340 401.222ZM336 392.778C336 393.882 336.895 394.778 338 394.778C339.105 394.778 340 393.882 340 392.778L336 392.778ZM340 388.556C340 387.451 339.105 386.556 338 386.556C336.895 386.556 336 387.451 336 388.556L340 388.556ZM336 380.111C336 381.216 336.895 382.111 338 382.111C339.105 382.111 340 381.216 340 380.111L336 380.111ZM172 448.5L172 448.417L168 448.417L168 448.5L172 448.5ZM172 448.083L172 448L168 448L168 448.083L172 448.083ZM172 448C172 447.378 172.04 446.767 172.118 446.169L168.152 445.652C168.052 446.421 168 447.205 168 448L172 448ZM174.891 439.478C175.637 438.508 176.508 437.637 177.478 436.891L175.041 433.72C173.795 434.677 172.677 435.795 171.72 437.041L174.891 439.478ZM184.169 434.118C184.767 434.04 185.378 434 186 434L186 430C185.205 430 184.421 430.052 183.652 430.152L184.169 434.118ZM186 434L188.061 434L188.061 430L186 430L186 434ZM196.303 434L200.424 434L200.424 430L196.303 430L196.303 434ZM208.667 434L212.788 434L212.788 430L208.667 430L208.667 434ZM221.03 434L225.152 434L225.152 430L221.03 430L221.03 434ZM233.394 434L237.515 434L237.515 430L233.394 430L233.394 434ZM245.758 434L249.879 434L249.879 430L245.758 430L245.758 434ZM258.121 434L262.242 434L262.242 430L258.121 430L258.121 434ZM270.485 434L274.606 434L274.606 430L270.485 430L270.485 434ZM282.848 434L286.97 434L286.97 430L282.848 430L282.848 434ZM295.212 434L299.333 434L299.333 430L295.212 430L295.212 434ZM307.576 434L311.697 434L311.697 430L307.576 430L307.576 434ZM319.939 434L322 434L322 430L319.939 430L319.939 434ZM322 434C322.795 434 323.579 433.948 324.348 433.848L323.831 429.882C323.233 429.96 322.622 430 322 430L322 434ZM332.959 430.28C334.205 429.323 335.323 428.205 336.28 426.959L333.109 424.522C332.363 425.492 331.492 426.363 330.522 427.109L332.959 430.28ZM339.848 418.348C339.948 417.579 340 416.795 340 416L336 416C336 416.622 335.96 417.233 335.882 417.831L339.848 418.348ZM340 416L340 413.889L336 413.889L336 416L340 416ZM340 405.444L340 401.222L336 401.222L336 405.444L340 405.444ZM340 392.778L340 388.556L336 388.556L336 392.778L340 392.778ZM340 380.111L340 378L336 378L336 380.111L340 380.111Z" fill="#6C8DE3"/>
<path d="M358 378L358 416C358 424.837 365.163 432 374 432L510 432C518.837 432 526 439.163 526 448L526 448.5" stroke="#6C8DE3" stroke-width="4" stroke-linecap="round" stroke-dasharray="4 8"/>
<path d="M348 378L348 448.5" stroke="#6C8DE3" stroke-width="4" stroke-linecap="round" stroke-dasharray="4 8"/>
<circle cx="26" cy="68" r="4" fill="#D7E2FF" fill-opacity="0.05"/>
<circle cx="54" cy="68" r="4" fill="#D7E2FF" fill-opacity="0.05"/>
<circle cx="82" cy="68" r="4" fill="#D7E2FF" fill-opacity="0.05"/>
<circle cx="110" cy="68" r="4" fill="#D7E2FF" fill-opacity="0.05"/>
<circle cx="138" cy="68" r="4" fill="#D7E2FF" fill-opacity="0.05"/>
<circle cx="166" cy="68" r="4" fill="#D7E2FF" fill-opacity="0.05"/>
<circle cx="194" cy="68" r="4" fill="#D7E2FF" fill-opacity="0.05"/>
<circle cx="222" cy="68" r="4" fill="#D7E2FF" fill-opacity="0.05"/>
<circle cx="250" cy="68" r="4" fill="#D7E2FF" fill-opacity="0.05"/>
<circle cx="278" cy="68" r="4" fill="#D7E2FF" fill-opacity="0.05"/>
<circle cx="306" cy="68" r="4" fill="#D7E2FF" fill-opacity="0.05"/>
<circle cx="334" cy="68" r="4" fill="#D7E2FF" fill-opacity="0.05"/>
<circle cx="362" cy="68" r="4" fill="#D7E2FF" fill-opacity="0.05"/>
<circle cx="390" cy="68" r="4" fill="#D7E2FF" fill-opacity="0.05"/>
<circle cx="418" cy="68" r="4" fill="#D7E2FF" fill-opacity="0.05"/>
<circle cx="446" cy="68" r="4" fill="#D7E2FF" fill-opacity="0.05"/>
<circle cx="474" cy="68" r="4" fill="#D7E2FF" fill-opacity="0.05"/>
<circle cx="502" cy="68" r="4" fill="#D7E2FF" fill-opacity="0.05"/>
<circle cx="530" cy="68" r="4" fill="#D7E2FF" fill-opacity="0.05"/>
<circle cx="558" cy="68" r="4" fill="#D7E2FF" fill-opacity="0.05"/>
<circle cx="586" cy="68" r="4" fill="#D7E2FF" fill-opacity="0.05"/>
<circle cx="614" cy="68" r="4" fill="#D7E2FF" fill-opacity="0.05"/>
<circle cx="642" cy="68" r="4" fill="#D7E2FF" fill-opacity="0.05"/>
<circle cx="670" cy="68" r="4" fill="#D7E2FF" fill-opacity="0.05"/>
<circle cx="26" cy="96" r="4" fill="#D7E2FF" fill-opacity="0.05"/>
<circle cx="54" cy="96" r="4" fill="#D7E2FF" fill-opacity="0.05"/>
<circle cx="82" cy="96" r="4" fill="#D7E2FF" fill-opacity="0.05"/>
<circle cx="110" cy="96" r="4" fill="#D7E2FF" fill-opacity="0.05"/>
<circle cx="138" cy="96" r="4" fill="#D7E2FF" fill-opacity="0.05"/>
<circle cx="166" cy="96" r="4" fill="#D7E2FF" fill-opacity="0.05"/>
<circle cx="194" cy="96" r="4" fill="#D7E2FF" fill-opacity="0.05"/>
<circle cx="222" cy="96" r="4" fill="#D7E2FF" fill-opacity="0.05"/>
<circle cx="250" cy="96" r="4" fill="#D7E2FF" fill-opacity="0.05"/>
<circle cx="278" cy="96" r="4" fill="#D7E2FF" fill-opacity="0.05"/>
<circle cx="306" cy="96" r="4" fill="#D7E2FF" fill-opacity="0.05"/>
<circle cx="334" cy="96" r="4" fill="#D7E2FF" fill-opacity="0.05"/>
<circle cx="362" cy="96" r="4" fill="#D7E2FF" fill-opacity="0.05"/>
<circle cx="390" cy="96" r="4" fill="#D7E2FF" fill-opacity="0.05"/>
<circle cx="418" cy="96" r="4" fill="#D7E2FF" fill-opacity="0.05"/>
<circle cx="446" cy="96" r="4" fill="#D7E2FF" fill-opacity="0.05"/>
<circle cx="474" cy="96" r="4" fill="#D7E2FF" fill-opacity="0.05"/>
<circle cx="502" cy="96" r="4" fill="#D7E2FF" fill-opacity="0.05"/>
<circle cx="530" cy="96" r="4" fill="#D7E2FF" fill-opacity="0.05"/>
<circle cx="558" cy="96" r="4" fill="#D7E2FF" fill-opacity="0.05"/>
<circle cx="586" cy="96" r="4" fill="#D7E2FF" fill-opacity="0.05"/>
<circle cx="614" cy="96" r="4" fill="#D7E2FF" fill-opacity="0.05"/>
<circle cx="642" cy="96" r="4" fill="#D7E2FF" fill-opacity="0.05"/>
<circle cx="670" cy="96" r="4" fill="#D7E2FF" fill-opacity="0.05"/>
<circle cx="26" cy="124" r="4" fill="#D7E2FF" fill-opacity="0.05"/>
<circle cx="54" cy="124" r="4" fill="#D7E2FF" fill-opacity="0.05"/>
<circle cx="82" cy="124" r="4" fill="#D7E2FF" fill-opacity="0.05"/>
<circle cx="110" cy="124" r="4" fill="#D7E2FF" fill-opacity="0.05"/>
<circle cx="138" cy="124" r="4" fill="#D7E2FF" fill-opacity="0.05"/>
<circle cx="166" cy="124" r="4" fill="#D7E2FF" fill-opacity="0.05"/>
<circle cx="194" cy="124" r="4" fill="#D7E2FF" fill-opacity="0.05"/>
<circle cx="222" cy="124" r="4" fill="#D7E2FF" fill-opacity="0.05"/>
<circle cx="250" cy="124" r="4" fill="#D7E2FF" fill-opacity="0.05"/>
<circle cx="278" cy="124" r="4" fill="#D7E2FF" fill-opacity="0.05"/>
<circle cx="306" cy="124" r="4" fill="#D7E2FF" fill-opacity="0.05"/>
<circle cx="334" cy="124" r="4" fill="#D7E2FF" fill-opacity="0.05"/>
<circle cx="362" cy="124" r="4" fill="#D7E2FF" fill-opacity="0.05"/>
<circle cx="390" cy="124" r="4" fill="#D7E2FF" fill-opacity="0.05"/>
<circle cx="418" cy="124" r="4" fill="#D7E2FF" fill-opacity="0.05"/>
<circle cx="446" cy="124" r="4" fill="#D7E2FF" fill-opacity="0.05"/>
<circle cx="474" cy="124" r="4" fill="#D7E2FF" fill-opacity="0.05"/>
<circle cx="502" cy="124" r="4" fill="#D7E2FF" fill-opacity="0.05"/>
<circle cx="530" cy="124" r="4" fill="#D7E2FF" fill-opacity="0.05"/>
<circle cx="558" cy="124" r="4" fill="#D7E2FF" fill-opacity="0.05"/>
<circle cx="586" cy="124" r="4" fill="#D7E2FF" fill-opacity="0.05"/>
<circle cx="614" cy="124" r="4" fill="#D7E2FF" fill-opacity="0.05"/>
<circle cx="642" cy="124" r="4" fill="#D7E2FF" fill-opacity="0.05"/>
<circle cx="670" cy="124" r="4" fill="#D7E2FF" fill-opacity="0.05"/>
<circle cx="26" cy="152" r="4" fill="#D7E2FF" fill-opacity="0.05"/>
<circle cx="54" cy="152" r="4" fill="#D7E2FF" fill-opacity="0.05"/>
<circle cx="82" cy="152" r="4" fill="#D7E2FF" fill-opacity="0.05"/>
<circle cx="110" cy="152" r="4" fill="#D7E2FF" fill-opacity="0.05"/>
<circle cx="138" cy="152" r="4" fill="#D7E2FF" fill-opacity="0.05"/>
<circle cx="166" cy="152" r="4" fill="#D7E2FF" fill-opacity="0.05"/>
<circle cx="194" cy="152" r="4" fill="#D7E2FF" fill-opacity="0.05"/>
<circle cx="222" cy="152" r="4" fill="#D7E2FF" fill-opacity="0.05"/>
<circle cx="250" cy="152" r="4" fill="#D7E2FF" fill-opacity="0.05"/>
<circle cx="278" cy="152" r="4" fill="#D7E2FF" fill-opacity="0.05"/>
<circle cx="306" cy="152" r="4" fill="#D7E2FF" fill-opacity="0.05"/>
<circle cx="334" cy="152" r="4" fill="#D7E2FF" fill-opacity="0.05"/>
<circle cx="362" cy="152" r="4" fill="#D7E2FF" fill-opacity="0.05"/>
<circle cx="390" cy="152" r="4" fill="#D7E2FF" fill-opacity="0.05"/>
<circle cx="418" cy="152" r="4" fill="#D7E2FF" fill-opacity="0.05"/>
<circle cx="446" cy="152" r="4" fill="#D7E2FF" fill-opacity="0.05"/>
<circle cx="474" cy="152" r="4" fill="#D7E2FF" fill-opacity="0.05"/>
<circle cx="502" cy="152" r="4" fill="#D7E2FF" fill-opacity="0.05"/>
<circle cx="530" cy="152" r="4" fill="#D7E2FF" fill-opacity="0.05"/>
<circle cx="558" cy="152" r="4" fill="#D7E2FF" fill-opacity="0.05"/>
<circle cx="586" cy="152" r="4" fill="#D7E2FF" fill-opacity="0.05"/>
<circle cx="614" cy="152" r="4" fill="#D7E2FF" fill-opacity="0.05"/>
<circle cx="642" cy="152" r="4" fill="#D7E2FF" fill-opacity="0.05"/>
<circle cx="670" cy="152" r="4" fill="#D7E2FF" fill-opacity="0.05"/>
<circle cx="26" cy="180" r="4" fill="#D7E2FF" fill-opacity="0.05"/>
<circle cx="54" cy="180" r="4" fill="#D7E2FF" fill-opacity="0.05"/>
<circle cx="82" cy="180" r="4" fill="#D7E2FF" fill-opacity="0.05"/>
<circle cx="110" cy="180" r="4" fill="#D7E2FF" fill-opacity="0.05"/>
<circle cx="138" cy="180" r="4" fill="#D7E2FF" fill-opacity="0.05"/>
<circle cx="166" cy="180" r="4" fill="#D7E2FF" fill-opacity="0.05"/>
<circle cx="194" cy="180" r="4" fill="#D7E2FF" fill-opacity="0.05"/>
<circle cx="222" cy="180" r="4" fill="#D7E2FF" fill-opacity="0.05"/>
<circle cx="250" cy="180" r="4" fill="#D7E2FF" fill-opacity="0.05"/>
<circle cx="278" cy="180" r="4" fill="#D7E2FF" fill-opacity="0.05"/>
<circle cx="306" cy="180" r="4" fill="#D7E2FF" fill-opacity="0.05"/>
<circle cx="334" cy="180" r="4" fill="#D7E2FF" fill-opacity="0.05"/>
<circle cx="362" cy="180" r="4" fill="#D7E2FF" fill-opacity="0.05"/>
<circle cx="390" cy="180" r="4" fill="#D7E2FF" fill-opacity="0.05"/>
<circle cx="418" cy="180" r="4" fill="#D7E2FF" fill-opacity="0.05"/>
<circle cx="446" cy="180" r="4" fill="#D7E2FF" fill-opacity="0.05"/>
<circle cx="474" cy="180" r="4" fill="#D7E2FF" fill-opacity="0.05"/>
<circle cx="502" cy="180" r="4" fill="#D7E2FF" fill-opacity="0.05"/>
<circle cx="530" cy="180" r="4" fill="#D7E2FF" fill-opacity="0.05"/>
<circle cx="558" cy="180" r="4" fill="#D7E2FF" fill-opacity="0.05"/>
<circle cx="586" cy="180" r="4" fill="#D7E2FF" fill-opacity="0.05"/>
<circle cx="614" cy="180" r="4" fill="#D7E2FF" fill-opacity="0.05"/>
<circle cx="642" cy="180" r="4" fill="#D7E2FF" fill-opacity="0.05"/>
<circle cx="670" cy="180" r="4" fill="#D7E2FF" fill-opacity="0.05"/>
<circle cx="26" cy="208" r="4" fill="#D7E2FF" fill-opacity="0.05"/>
<circle cx="54" cy="208" r="4" fill="#D7E2FF" fill-opacity="0.05"/>
<circle cx="82" cy="208" r="4" fill="#D7E2FF" fill-opacity="0.05"/>
<circle cx="110" cy="208" r="4" fill="#D7E2FF" fill-opacity="0.05"/>
<circle cx="138" cy="208" r="4" fill="#D7E2FF" fill-opacity="0.05"/>
<circle cx="166" cy="208" r="4" fill="#D7E2FF" fill-opacity="0.05"/>
<circle cx="194" cy="208" r="4" fill="#D7E2FF" fill-opacity="0.05"/>
<circle cx="222" cy="208" r="4" fill="#D7E2FF" fill-opacity="0.05"/>
<circle cx="250" cy="208" r="4" fill="#D7E2FF" fill-opacity="0.05"/>
<circle cx="278" cy="208" r="4" fill="#D7E2FF" fill-opacity="0.05"/>
<circle cx="306" cy="208" r="4" fill="#D7E2FF" fill-opacity="0.05"/>
<circle cx="334" cy="208" r="4" fill="#D7E2FF" fill-opacity="0.05"/>
<circle cx="362" cy="208" r="4" fill="#D7E2FF" fill-opacity="0.05"/>
<circle cx="390" cy="208" r="4" fill="#D7E2FF" fill-opacity="0.05"/>
<circle cx="418" cy="208" r="4" fill="#D7E2FF" fill-opacity="0.05"/>
<circle cx="446" cy="208" r="4" fill="#D7E2FF" fill-opacity="0.05"/>
<circle cx="474" cy="208" r="4" fill="#D7E2FF" fill-opacity="0.05"/>
<circle cx="502" cy="208" r="4" fill="#D7E2FF" fill-opacity="0.05"/>
<circle cx="530" cy="208" r="4" fill="#D7E2FF" fill-opacity="0.05"/>
<circle cx="558" cy="208" r="4" fill="#D7E2FF" fill-opacity="0.05"/>
<circle cx="586" cy="208" r="4" fill="#D7E2FF" fill-opacity="0.05"/>
<circle cx="614" cy="208" r="4" fill="#D7E2FF" fill-opacity="0.05"/>
<circle cx="642" cy="208" r="4" fill="#D7E2FF" fill-opacity="0.05"/>
<circle cx="670" cy="208" r="4" fill="#D7E2FF" fill-opacity="0.05"/>
<circle cx="26" cy="236" r="4" fill="#D7E2FF" fill-opacity="0.05"/>
<circle cx="54" cy="236" r="4" fill="#D7E2FF" fill-opacity="0.05"/>
<circle cx="82" cy="236" r="4" fill="#D7E2FF" fill-opacity="0.05"/>
<circle cx="110" cy="236" r="4" fill="#D7E2FF" fill-opacity="0.05"/>
<circle cx="138" cy="236" r="4" fill="#D7E2FF" fill-opacity="0.05"/>
<circle cx="166" cy="236" r="4" fill="#D7E2FF" fill-opacity="0.05"/>
<circle cx="194" cy="236" r="4" fill="#D7E2FF" fill-opacity="0.05"/>
<circle cx="222" cy="236" r="4" fill="#D7E2FF" fill-opacity="0.05"/>
<circle cx="250" cy="236" r="4" fill="#D7E2FF" fill-opacity="0.05"/>
<circle cx="278" cy="236" r="4" fill="#D7E2FF" fill-opacity="0.05"/>
<circle cx="306" cy="236" r="4" fill="#D7E2FF" fill-opacity="0.05"/>
<circle cx="334" cy="236" r="4" fill="#D7E2FF" fill-opacity="0.05"/>
<circle cx="362" cy="236" r="4" fill="#D7E2FF" fill-opacity="0.05"/>
<circle cx="390" cy="236" r="4" fill="#D7E2FF" fill-opacity="0.05"/>
<circle cx="418" cy="236" r="4" fill="#D7E2FF" fill-opacity="0.05"/>
<circle cx="446" cy="236" r="4" fill="#D7E2FF" fill-opacity="0.05"/>
<circle cx="474" cy="236" r="4" fill="#D7E2FF" fill-opacity="0.05"/>
<circle cx="502" cy="236" r="4" fill="#D7E2FF" fill-opacity="0.05"/>
<circle cx="530" cy="236" r="4" fill="#D7E2FF" fill-opacity="0.05"/>
<circle cx="558" cy="236" r="4" fill="#D7E2FF" fill-opacity="0.05"/>
<circle cx="586" cy="236" r="4" fill="#D7E2FF" fill-opacity="0.05"/>
<circle cx="614" cy="236" r="4" fill="#D7E2FF" fill-opacity="0.05"/>
<circle cx="642" cy="236" r="4" fill="#D7E2FF" fill-opacity="0.05"/>
<circle cx="670" cy="236" r="4" fill="#D7E2FF" fill-opacity="0.05"/>
<circle cx="26" cy="264" r="4" fill="#D7E2FF" fill-opacity="0.05"/>
<circle cx="54" cy="264" r="4" fill="#D7E2FF" fill-opacity="0.05"/>
<circle cx="82" cy="264" r="4" fill="#D7E2FF" fill-opacity="0.05"/>
<circle cx="110" cy="264" r="4" fill="#D7E2FF" fill-opacity="0.05"/>
<circle cx="138" cy="264" r="4" fill="#D7E2FF" fill-opacity="0.05"/>
<circle cx="166" cy="264" r="4" fill="#D7E2FF" fill-opacity="0.05"/>
<circle cx="194" cy="264" r="4" fill="#D7E2FF" fill-opacity="0.05"/>
<circle cx="222" cy="264" r="4" fill="#D7E2FF" fill-opacity="0.05"/>
<circle cx="250" cy="264" r="4" fill="#D7E2FF" fill-opacity="0.05"/>
<circle cx="278" cy="264" r="4" fill="#D7E2FF" fill-opacity="0.05"/>
<circle cx="306" cy="264" r="4" fill="#D7E2FF" fill-opacity="0.05"/>
<circle cx="334" cy="264" r="4" fill="#D7E2FF" fill-opacity="0.05"/>
<circle cx="362" cy="264" r="4" fill="#D7E2FF" fill-opacity="0.05"/>
<circle cx="390" cy="264" r="4" fill="#D7E2FF" fill-opacity="0.05"/>
<circle cx="418" cy="264" r="4" fill="#D7E2FF" fill-opacity="0.05"/>
<circle cx="446" cy="264" r="4" fill="#D7E2FF" fill-opacity="0.05"/>
<circle cx="474" cy="264" r="4" fill="#D7E2FF" fill-opacity="0.05"/>
<circle cx="502" cy="264" r="4" fill="#D7E2FF" fill-opacity="0.05"/>
<circle cx="530" cy="264" r="4" fill="#D7E2FF" fill-opacity="0.05"/>
<circle cx="558" cy="264" r="4" fill="#D7E2FF" fill-opacity="0.05"/>
<circle cx="586" cy="264" r="4" fill="#D7E2FF" fill-opacity="0.05"/>
<circle cx="614" cy="264" r="4" fill="#D7E2FF" fill-opacity="0.05"/>
<circle cx="642" cy="264" r="4" fill="#D7E2FF" fill-opacity="0.05"/>
<circle cx="670" cy="264" r="4" fill="#D7E2FF" fill-opacity="0.05"/>
<circle cx="26" cy="292" r="4" fill="#D7E2FF" fill-opacity="0.05"/>
<circle cx="54" cy="292" r="4" fill="#D7E2FF" fill-opacity="0.05"/>
<circle cx="82" cy="292" r="4" fill="#D7E2FF" fill-opacity="0.05"/>
<circle cx="110" cy="292" r="4" fill="#D7E2FF" fill-opacity="0.05"/>
<circle cx="138" cy="292" r="4" fill="#D7E2FF" fill-opacity="0.05"/>
<circle cx="166" cy="292" r="4" fill="#D7E2FF" fill-opacity="0.05"/>
<circle cx="194" cy="292" r="4" fill="#D7E2FF" fill-opacity="0.05"/>
<circle cx="222" cy="292" r="4" fill="#D7E2FF" fill-opacity="0.05"/>
<circle cx="250" cy="292" r="4" fill="#D7E2FF" fill-opacity="0.05"/>
<circle cx="278" cy="292" r="4" fill="#D7E2FF" fill-opacity="0.05"/>
<circle cx="306" cy="292" r="4" fill="#D7E2FF" fill-opacity="0.05"/>
<circle cx="334" cy="292" r="4" fill="#D7E2FF" fill-opacity="0.05"/>
<circle cx="362" cy="292" r="4" fill="#D7E2FF" fill-opacity="0.05"/>
<circle cx="390" cy="292" r="4" fill="#D7E2FF" fill-opacity="0.05"/>
<circle cx="418" cy="292" r="4" fill="#D7E2FF" fill-opacity="0.05"/>
<circle cx="446" cy="292" r="4" fill="#D7E2FF" fill-opacity="0.05"/>
<circle cx="474" cy="292" r="4" fill="#D7E2FF" fill-opacity="0.05"/>
<circle cx="502" cy="292" r="4" fill="#D7E2FF" fill-opacity="0.05"/>
<circle cx="530" cy="292" r="4" fill="#D7E2FF" fill-opacity="0.05"/>
<circle cx="558" cy="292" r="4" fill="#D7E2FF" fill-opacity="0.05"/>
<circle cx="586" cy="292" r="4" fill="#D7E2FF" fill-opacity="0.05"/>
<circle cx="614" cy="292" r="4" fill="#D7E2FF" fill-opacity="0.05"/>
<circle cx="642" cy="292" r="4" fill="#D7E2FF" fill-opacity="0.05"/>
<circle cx="670" cy="292" r="4" fill="#D7E2FF" fill-opacity="0.05"/>
<circle cx="26" cy="320" r="4" fill="#D7E2FF" fill-opacity="0.05"/>
<circle cx="54" cy="320" r="4" fill="#D7E2FF" fill-opacity="0.05"/>
<circle cx="82" cy="320" r="4" fill="#D7E2FF" fill-opacity="0.05"/>
<circle cx="110" cy="320" r="4" fill="#D7E2FF" fill-opacity="0.05"/>
<circle cx="138" cy="320" r="4" fill="#D7E2FF" fill-opacity="0.05"/>
<circle cx="166" cy="320" r="4" fill="#D7E2FF" fill-opacity="0.05"/>
<circle cx="194" cy="320" r="4" fill="#D7E2FF" fill-opacity="0.05"/>
<circle cx="222" cy="320" r="4" fill="#D7E2FF" fill-opacity="0.05"/>
<circle cx="250" cy="320" r="4" fill="#D7E2FF" fill-opacity="0.05"/>
<circle cx="278" cy="320" r="4" fill="#D7E2FF" fill-opacity="0.05"/>
<circle cx="306" cy="320" r="4" fill="#D7E2FF" fill-opacity="0.05"/>
<circle cx="334" cy="320" r="4" fill="#D7E2FF" fill-opacity="0.05"/>
<circle cx="362" cy="320" r="4" fill="#D7E2FF" fill-opacity="0.05"/>
<circle cx="390" cy="320" r="4" fill="#D7E2FF" fill-opacity="0.05"/>
<circle cx="418" cy="320" r="4" fill="#D7E2FF" fill-opacity="0.05"/>
<circle cx="446" cy="320" r="4" fill="#D7E2FF" fill-opacity="0.05"/>
<circle cx="474" cy="320" r="4" fill="#D7E2FF" fill-opacity="0.05"/>
<circle cx="502" cy="320" r="4" fill="#D7E2FF" fill-opacity="0.05"/>
<circle cx="530" cy="320" r="4" fill="#D7E2FF" fill-opacity="0.05"/>
<circle cx="558" cy="320" r="4" fill="#D7E2FF" fill-opacity="0.05"/>
<circle cx="586" cy="320" r="4" fill="#D7E2FF" fill-opacity="0.05"/>
<circle cx="614" cy="320" r="4" fill="#D7E2FF" fill-opacity="0.05"/>
<circle cx="642" cy="320" r="4" fill="#D7E2FF" fill-opacity="0.05"/>
<circle cx="670" cy="320" r="4" fill="#D7E2FF" fill-opacity="0.05"/>
<circle cx="26" cy="348" r="4" fill="#D7E2FF" fill-opacity="0.05"/>
<circle cx="54" cy="348" r="4" fill="#D7E2FF" fill-opacity="0.05"/>
<circle cx="82" cy="348" r="4" fill="#D7E2FF" fill-opacity="0.05"/>
<circle cx="110" cy="348" r="4" fill="#D7E2FF" fill-opacity="0.05"/>
<circle cx="138" cy="348" r="4" fill="#D7E2FF" fill-opacity="0.05"/>
<circle cx="166" cy="348" r="4" fill="#D7E2FF" fill-opacity="0.05"/>
<circle cx="194" cy="348" r="4" fill="#D7E2FF" fill-opacity="0.05"/>
<circle cx="222" cy="348" r="4" fill="#D7E2FF" fill-opacity="0.05"/>
<circle cx="250" cy="348" r="4" fill="#D7E2FF" fill-opacity="0.05"/>
<circle cx="278" cy="348" r="4" fill="#D7E2FF" fill-opacity="0.05"/>
<circle cx="306" cy="348" r="4" fill="#D7E2FF" fill-opacity="0.05"/>
<circle cx="334" cy="348" r="4" fill="#D7E2FF" fill-opacity="0.05"/>
<circle cx="362" cy="348" r="4" fill="#D7E2FF" fill-opacity="0.05"/>
<circle cx="390" cy="348" r="4" fill="#D7E2FF" fill-opacity="0.05"/>
<circle cx="418" cy="348" r="4" fill="#D7E2FF" fill-opacity="0.05"/>
<circle cx="446" cy="348" r="4" fill="#D7E2FF" fill-opacity="0.05"/>
<circle cx="474" cy="348" r="4" fill="#D7E2FF" fill-opacity="0.05"/>
<circle cx="502" cy="348" r="4" fill="#D7E2FF" fill-opacity="0.05"/>
<circle cx="530" cy="348" r="4" fill="#D7E2FF" fill-opacity="0.05"/>
<circle cx="558" cy="348" r="4" fill="#D7E2FF" fill-opacity="0.05"/>
<circle cx="586" cy="348" r="4" fill="#D7E2FF" fill-opacity="0.05"/>
<circle cx="614" cy="348" r="4" fill="#D7E2FF" fill-opacity="0.05"/>
<circle cx="642" cy="348" r="4" fill="#D7E2FF" fill-opacity="0.05"/>
<circle cx="670" cy="348" r="4" fill="#D7E2FF" fill-opacity="0.05"/>
<circle cx="26" cy="376" r="4" fill="#D7E2FF" fill-opacity="0.05"/>
<circle cx="54" cy="376" r="4" fill="#D7E2FF" fill-opacity="0.05"/>
<circle cx="82" cy="376" r="4" fill="#D7E2FF" fill-opacity="0.05"/>
<circle cx="110" cy="376" r="4" fill="#D7E2FF" fill-opacity="0.05"/>
<circle cx="138" cy="376" r="4" fill="#D7E2FF" fill-opacity="0.05"/>
<circle cx="166" cy="376" r="4" fill="#D7E2FF" fill-opacity="0.05"/>
<circle cx="194" cy="376" r="4" fill="#D7E2FF" fill-opacity="0.05"/>
<circle cx="222" cy="376" r="4" fill="#D7E2FF" fill-opacity="0.05"/>
<circle cx="250" cy="376" r="4" fill="#D7E2FF" fill-opacity="0.05"/>
<circle cx="278" cy="376" r="4" fill="#D7E2FF" fill-opacity="0.05"/>
<circle cx="306" cy="376" r="4" fill="#D7E2FF" fill-opacity="0.05"/>
<circle cx="334" cy="376" r="4" fill="#D7E2FF" fill-opacity="0.05"/>
<circle cx="362" cy="376" r="4" fill="#D7E2FF" fill-opacity="0.05"/>
<circle cx="390" cy="376" r="4" fill="#D7E2FF" fill-opacity="0.05"/>
<circle cx="418" cy="376" r="4" fill="#D7E2FF" fill-opacity="0.05"/>
<circle cx="446" cy="376" r="4" fill="#D7E2FF" fill-opacity="0.05"/>
<circle cx="474" cy="376" r="4" fill="#D7E2FF" fill-opacity="0.05"/>
<circle cx="502" cy="376" r="4" fill="#D7E2FF" fill-opacity="0.05"/>
<circle cx="530" cy="376" r="4" fill="#D7E2FF" fill-opacity="0.05"/>
<circle cx="558" cy="376" r="4" fill="#D7E2FF" fill-opacity="0.05"/>
<circle cx="586" cy="376" r="4" fill="#D7E2FF" fill-opacity="0.05"/>
<circle cx="614" cy="376" r="4" fill="#D7E2FF" fill-opacity="0.05"/>
<circle cx="642" cy="376" r="4" fill="#D7E2FF" fill-opacity="0.05"/>
<circle cx="670" cy="376" r="4" fill="#D7E2FF" fill-opacity="0.05"/>
<circle cx="26" cy="404" r="4" fill="#D7E2FF" fill-opacity="0.05"/>
<circle cx="54" cy="404" r="4" fill="#D7E2FF" fill-opacity="0.05"/>
<circle cx="82" cy="404" r="4" fill="#D7E2FF" fill-opacity="0.05"/>
<circle cx="110" cy="404" r="4" fill="#D7E2FF" fill-opacity="0.05"/>
<circle cx="138" cy="404" r="4" fill="#D7E2FF" fill-opacity="0.05"/>
<circle cx="166" cy="404" r="4" fill="#D7E2FF" fill-opacity="0.05"/>
<circle cx="194" cy="404" r="4" fill="#D7E2FF" fill-opacity="0.05"/>
<circle cx="222" cy="404" r="4" fill="#D7E2FF" fill-opacity="0.05"/>
<circle cx="250" cy="404" r="4" fill="#D7E2FF" fill-opacity="0.05"/>
<circle cx="278" cy="404" r="4" fill="#D7E2FF" fill-opacity="0.05"/>
<circle cx="306" cy="404" r="4" fill="#D7E2FF" fill-opacity="0.05"/>
<circle cx="334" cy="404" r="4" fill="#D7E2FF" fill-opacity="0.05"/>
<circle cx="362" cy="404" r="4" fill="#D7E2FF" fill-opacity="0.05"/>
<circle cx="390" cy="404" r="4" fill="#D7E2FF" fill-opacity="0.05"/>
<circle cx="418" cy="404" r="4" fill="#D7E2FF" fill-opacity="0.05"/>
<circle cx="446" cy="404" r="4" fill="#D7E2FF" fill-opacity="0.05"/>
<circle cx="474" cy="404" r="4" fill="#D7E2FF" fill-opacity="0.05"/>
<circle cx="502" cy="404" r="4" fill="#D7E2FF" fill-opacity="0.05"/>
<circle cx="530" cy="404" r="4" fill="#D7E2FF" fill-opacity="0.05"/>
<circle cx="558" cy="404" r="4" fill="#D7E2FF" fill-opacity="0.05"/>
<circle cx="586" cy="404" r="4" fill="#D7E2FF" fill-opacity="0.05"/>
<circle cx="614" cy="404" r="4" fill="#D7E2FF" fill-opacity="0.05"/>
<circle cx="642" cy="404" r="4" fill="#D7E2FF" fill-opacity="0.05"/>
<circle cx="670" cy="404" r="4" fill="#D7E2FF" fill-opacity="0.05"/>
<circle cx="26" cy="432" r="4" fill="#D7E2FF" fill-opacity="0.05"/>
<circle cx="54" cy="432" r="4" fill="#D7E2FF" fill-opacity="0.05"/>
<circle cx="82" cy="432" r="4" fill="#D7E2FF" fill-opacity="0.05"/>
<circle cx="110" cy="432" r="4" fill="#D7E2FF" fill-opacity="0.05"/>
<circle cx="138" cy="432" r="4" fill="#D7E2FF" fill-opacity="0.05"/>
<circle cx="166" cy="432" r="4" fill="#D7E2FF" fill-opacity="0.05"/>
<circle cx="194" cy="432" r="4" fill="#D7E2FF" fill-opacity="0.05"/>
<circle cx="222" cy="432" r="4" fill="#D7E2FF" fill-opacity="0.05"/>
<circle cx="250" cy="432" r="4" fill="#D7E2FF" fill-opacity="0.05"/>
<circle cx="278" cy="432" r="4" fill="#D7E2FF" fill-opacity="0.05"/>
<circle cx="306" cy="432" r="4" fill="#D7E2FF" fill-opacity="0.05"/>
<circle cx="334" cy="432" r="4" fill="#D7E2FF" fill-opacity="0.05"/>
<circle cx="362" cy="432" r="4" fill="#D7E2FF" fill-opacity="0.05"/>
<circle cx="390" cy="432" r="4" fill="#D7E2FF" fill-opacity="0.05"/>
<circle cx="418" cy="432" r="4" fill="#D7E2FF" fill-opacity="0.05"/>
<circle cx="446" cy="432" r="4" fill="#D7E2FF" fill-opacity="0.05"/>
<circle cx="474" cy="432" r="4" fill="#D7E2FF" fill-opacity="0.05"/>
<circle cx="502" cy="432" r="4" fill="#D7E2FF" fill-opacity="0.05"/>
<circle cx="530" cy="432" r="4" fill="#D7E2FF" fill-opacity="0.05"/>
<circle cx="558" cy="432" r="4" fill="#D7E2FF" fill-opacity="0.05"/>
<circle cx="586" cy="432" r="4" fill="#D7E2FF" fill-opacity="0.05"/>
<circle cx="614" cy="432" r="4" fill="#D7E2FF" fill-opacity="0.05"/>
<circle cx="642" cy="432" r="4" fill="#D7E2FF" fill-opacity="0.05"/>
<circle cx="670" cy="432" r="4" fill="#D7E2FF" fill-opacity="0.05"/>
<circle cx="26" cy="460" r="4" fill="#D7E2FF" fill-opacity="0.05"/>
<circle cx="54" cy="460" r="4" fill="#D7E2FF" fill-opacity="0.05"/>
<circle cx="82" cy="460" r="4" fill="#D7E2FF" fill-opacity="0.05"/>
<circle cx="110" cy="460" r="4" fill="#D7E2FF" fill-opacity="0.05"/>
<circle cx="138" cy="460" r="4" fill="#D7E2FF" fill-opacity="0.05"/>
<circle cx="166" cy="460" r="4" fill="#D7E2FF" fill-opacity="0.05"/>
<circle cx="194" cy="460" r="4" fill="#D7E2FF" fill-opacity="0.05"/>
<circle cx="222" cy="460" r="4" fill="#D7E2FF" fill-opacity="0.05"/>
<circle cx="250" cy="460" r="4" fill="#D7E2FF" fill-opacity="0.05"/>
<circle cx="278" cy="460" r="4" fill="#D7E2FF" fill-opacity="0.05"/>
<circle cx="306" cy="460" r="4" fill="#D7E2FF" fill-opacity="0.05"/>
<circle cx="334" cy="460" r="4" fill="#D7E2FF" fill-opacity="0.05"/>
<circle cx="362" cy="460" r="4" fill="#D7E2FF" fill-opacity="0.05"/>
<circle cx="390" cy="460" r="4" fill="#D7E2FF" fill-opacity="0.05"/>
<circle cx="418" cy="460" r="4" fill="#D7E2FF" fill-opacity="0.05"/>
<circle cx="446" cy="460" r="4" fill="#D7E2FF" fill-opacity="0.05"/>
<circle cx="474" cy="460" r="4" fill="#D7E2FF" fill-opacity="0.05"/>
<circle cx="502" cy="460" r="4" fill="#D7E2FF" fill-opacity="0.05"/>
<circle cx="530" cy="460" r="4" fill="#D7E2FF" fill-opacity="0.05"/>
<circle cx="558" cy="460" r="4" fill="#D7E2FF" fill-opacity="0.05"/>
<circle cx="586" cy="460" r="4" fill="#D7E2FF" fill-opacity="0.05"/>
<circle cx="614" cy="460" r="4" fill="#D7E2FF" fill-opacity="0.05"/>
<circle cx="642" cy="460" r="4" fill="#D7E2FF" fill-opacity="0.05"/>
<circle cx="670" cy="460" r="4" fill="#D7E2FF" fill-opacity="0.05"/>
<circle cx="26" cy="488" r="4" fill="#D7E2FF" fill-opacity="0.05"/>
<circle cx="54" cy="488" r="4" fill="#D7E2FF" fill-opacity="0.05"/>
<circle cx="82" cy="488" r="4" fill="#D7E2FF" fill-opacity="0.05"/>
<circle cx="110" cy="488" r="4" fill="#D7E2FF" fill-opacity="0.05"/>
<circle cx="138" cy="488" r="4" fill="#D7E2FF" fill-opacity="0.05"/>
<circle cx="166" cy="488" r="4" fill="#D7E2FF" fill-opacity="0.05"/>
<circle cx="194" cy="488" r="4" fill="#D7E2FF" fill-opacity="0.05"/>
<circle cx="222" cy="488" r="4" fill="#D7E2FF" fill-opacity="0.05"/>
<circle cx="250" cy="488" r="4" fill="#D7E2FF" fill-opacity="0.05"/>
<circle cx="278" cy="488" r="4" fill="#D7E2FF" fill-opacity="0.05"/>
<circle cx="306" cy="488" r="4" fill="#D7E2FF" fill-opacity="0.05"/>
<circle cx="334" cy="488" r="4" fill="#D7E2FF" fill-opacity="0.05"/>
<circle cx="362" cy="488" r="4" fill="#D7E2FF" fill-opacity="0.05"/>
<circle cx="390" cy="488" r="4" fill="#D7E2FF" fill-opacity="0.05"/>
<circle cx="418" cy="488" r="4" fill="#D7E2FF" fill-opacity="0.05"/>
<circle cx="446" cy="488" r="4" fill="#D7E2FF" fill-opacity="0.05"/>
<circle cx="474" cy="488" r="4" fill="#D7E2FF" fill-opacity="0.05"/>
<circle cx="502" cy="488" r="4" fill="#D7E2FF" fill-opacity="0.05"/>
<circle cx="530" cy="488" r="4" fill="#D7E2FF" fill-opacity="0.05"/>
<circle cx="558" cy="488" r="4" fill="#D7E2FF" fill-opacity="0.05"/>
<circle cx="586" cy="488" r="4" fill="#D7E2FF" fill-opacity="0.05"/>
<circle cx="614" cy="488" r="4" fill="#D7E2FF" fill-opacity="0.05"/>
<circle cx="642" cy="488" r="4" fill="#D7E2FF" fill-opacity="0.05"/>
<circle cx="670" cy="488" r="4" fill="#D7E2FF" fill-opacity="0.05"/>
<circle cx="26" cy="516" r="4" fill="#D7E2FF" fill-opacity="0.05"/>
<circle cx="54" cy="516" r="4" fill="#D7E2FF" fill-opacity="0.05"/>
<circle cx="82" cy="516" r="4" fill="#D7E2FF" fill-opacity="0.05"/>
<circle cx="110" cy="516" r="4" fill="#D7E2FF" fill-opacity="0.05"/>
<circle cx="138" cy="516" r="4" fill="#D7E2FF" fill-opacity="0.05"/>
<circle cx="166" cy="516" r="4" fill="#D7E2FF" fill-opacity="0.05"/>
<circle cx="194" cy="516" r="4" fill="#D7E2FF" fill-opacity="0.05"/>
<circle cx="222" cy="516" r="4" fill="#D7E2FF" fill-opacity="0.05"/>
<circle cx="250" cy="516" r="4" fill="#D7E2FF" fill-opacity="0.05"/>
<circle cx="278" cy="516" r="4" fill="#D7E2FF" fill-opacity="0.05"/>
<circle cx="306" cy="516" r="4" fill="#D7E2FF" fill-opacity="0.05"/>
<circle cx="334" cy="516" r="4" fill="#D7E2FF" fill-opacity="0.05"/>
<circle cx="362" cy="516" r="4" fill="#D7E2FF" fill-opacity="0.05"/>
<circle cx="390" cy="516" r="4" fill="#D7E2FF" fill-opacity="0.05"/>
<circle cx="418" cy="516" r="4" fill="#D7E2FF" fill-opacity="0.05"/>
<circle cx="446" cy="516" r="4" fill="#D7E2FF" fill-opacity="0.05"/>
<circle cx="474" cy="516" r="4" fill="#D7E2FF" fill-opacity="0.05"/>
<circle cx="502" cy="516" r="4" fill="#D7E2FF" fill-opacity="0.05"/>
<circle cx="530" cy="516" r="4" fill="#D7E2FF" fill-opacity="0.05"/>
<circle cx="558" cy="516" r="4" fill="#D7E2FF" fill-opacity="0.05"/>
<circle cx="586" cy="516" r="4" fill="#D7E2FF" fill-opacity="0.05"/>
<circle cx="614" cy="516" r="4" fill="#D7E2FF" fill-opacity="0.05"/>
<circle cx="642" cy="516" r="4" fill="#D7E2FF" fill-opacity="0.05"/>
<circle cx="670" cy="516" r="4" fill="#D7E2FF" fill-opacity="0.05"/>
<circle cx="26" cy="544" r="4" fill="#D7E2FF" fill-opacity="0.05"/>
<circle cx="54" cy="544" r="4" fill="#D7E2FF" fill-opacity="0.05"/>
<circle cx="82" cy="544" r="4" fill="#D7E2FF" fill-opacity="0.05"/>
<circle cx="110" cy="544" r="4" fill="#D7E2FF" fill-opacity="0.05"/>
<circle cx="138" cy="544" r="4" fill="#D7E2FF" fill-opacity="0.05"/>
<circle cx="166" cy="544" r="4" fill="#D7E2FF" fill-opacity="0.05"/>
<circle cx="194" cy="544" r="4" fill="#D7E2FF" fill-opacity="0.05"/>
<circle cx="222" cy="544" r="4" fill="#D7E2FF" fill-opacity="0.05"/>
<circle cx="250" cy="544" r="4" fill="#D7E2FF" fill-opacity="0.05"/>
<circle cx="278" cy="544" r="4" fill="#D7E2FF" fill-opacity="0.05"/>
<circle cx="306" cy="544" r="4" fill="#D7E2FF" fill-opacity="0.05"/>
<circle cx="334" cy="544" r="4" fill="#D7E2FF" fill-opacity="0.05"/>
<circle cx="362" cy="544" r="4" fill="#D7E2FF" fill-opacity="0.05"/>
<circle cx="390" cy="544" r="4" fill="#D7E2FF" fill-opacity="0.05"/>
<circle cx="418" cy="544" r="4" fill="#D7E2FF" fill-opacity="0.05"/>
<circle cx="446" cy="544" r="4" fill="#D7E2FF" fill-opacity="0.05"/>
<circle cx="474" cy="544" r="4" fill="#D7E2FF" fill-opacity="0.05"/>
<circle cx="502" cy="544" r="4" fill="#D7E2FF" fill-opacity="0.05"/>
<circle cx="530" cy="544" r="4" fill="#D7E2FF" fill-opacity="0.05"/>
<circle cx="558" cy="544" r="4" fill="#D7E2FF" fill-opacity="0.05"/>
<circle cx="586" cy="544" r="4" fill="#D7E2FF" fill-opacity="0.05"/>
<circle cx="614" cy="544" r="4" fill="#D7E2FF" fill-opacity="0.05"/>
<circle cx="642" cy="544" r="4" fill="#D7E2FF" fill-opacity="0.05"/>
<circle cx="670" cy="544" r="4" fill="#D7E2FF" fill-opacity="0.05"/>
<circle cx="26" cy="572" r="4" fill="#D7E2FF" fill-opacity="0.05"/>
<circle cx="54" cy="572" r="4" fill="#D7E2FF" fill-opacity="0.05"/>
<circle cx="82" cy="572" r="4" fill="#D7E2FF" fill-opacity="0.05"/>
<circle cx="110" cy="572" r="4" fill="#D7E2FF" fill-opacity="0.05"/>
<circle cx="138" cy="572" r="4" fill="#D7E2FF" fill-opacity="0.05"/>
<circle cx="166" cy="572" r="4" fill="#D7E2FF" fill-opacity="0.05"/>
<circle cx="194" cy="572" r="4" fill="#D7E2FF" fill-opacity="0.05"/>
<circle cx="222" cy="572" r="4" fill="#D7E2FF" fill-opacity="0.05"/>
<circle cx="250" cy="572" r="4" fill="#D7E2FF" fill-opacity="0.05"/>
<circle cx="278" cy="572" r="4" fill="#D7E2FF" fill-opacity="0.05"/>
<circle cx="306" cy="572" r="4" fill="#D7E2FF" fill-opacity="0.05"/>
<circle cx="334" cy="572" r="4" fill="#D7E2FF" fill-opacity="0.05"/>
<circle cx="362" cy="572" r="4" fill="#D7E2FF" fill-opacity="0.05"/>
<circle cx="390" cy="572" r="4" fill="#D7E2FF" fill-opacity="0.05"/>
<circle cx="418" cy="572" r="4" fill="#D7E2FF" fill-opacity="0.05"/>
<circle cx="446" cy="572" r="4" fill="#D7E2FF" fill-opacity="0.05"/>
<circle cx="474" cy="572" r="4" fill="#D7E2FF" fill-opacity="0.05"/>
<circle cx="502" cy="572" r="4" fill="#D7E2FF" fill-opacity="0.05"/>
<circle cx="530" cy="572" r="4" fill="#D7E2FF" fill-opacity="0.05"/>
<circle cx="558" cy="572" r="4" fill="#D7E2FF" fill-opacity="0.05"/>
<circle cx="586" cy="572" r="4" fill="#D7E2FF" fill-opacity="0.05"/>
<circle cx="614" cy="572" r="4" fill="#D7E2FF" fill-opacity="0.05"/>
<circle cx="642" cy="572" r="4" fill="#D7E2FF" fill-opacity="0.05"/>
<circle cx="670" cy="572" r="4" fill="#D7E2FF" fill-opacity="0.05"/>
<g filter="url(#filter0_d)">
<path fill-rule="evenodd" clip-rule="evenodd" d="M500.895 400H196.053H195.211V399.997C139.788 399.544 95 354.476 95 298.947C95 254.898 123.185 217.431 162.504 203.597C162.414 201.708 162.368 199.806 162.368 197.895C162.368 132.783 215.152 80 280.263 80C322.58 80 359.689 102.295 380.486 135.779C386.747 134.543 393.219 133.895 399.842 133.895C442.383 133.895 478.68 160.627 492.851 198.21C495.505 198.001 498.187 197.895 500.895 197.895C556.705 197.895 601.947 243.138 601.947 298.947C601.947 354.757 556.705 400 500.895 400Z" fill="white"/>
</g>
<mask id="mask0" mask-type="alpha" maskUnits="userSpaceOnUse" x="95" y="80" width="507" height="320">
<path d="M500.895 400H195.211V399.997C139.788 399.544 95 354.476 95 298.947C95 254.898 123.185 217.431 162.504 203.597C162.414 201.708 162.368 199.806 162.368 197.895C162.368 132.783 215.152 80 280.263 80C322.58 80 359.689 102.295 380.486 135.779C386.747 134.543 393.219 133.895 399.842 133.895C442.383 133.895 478.68 160.627 492.851 198.21C495.505 198.001 498.187 197.895 500.895 197.895C556.705 197.895 601.947 243.138 601.947 298.947C601.947 354.757 556.705 400 500.895 400Z" fill="white"/>
</mask>
<g mask="url(#mask0)">
<circle cx="409.106" cy="160" r="168.421" fill="url(#paint0_radial)" fill-opacity="0.75"/>
<ellipse cx="398.158" cy="234.105" rx="101.053" ry="101.053" fill="white"/>
<circle cx="270.158" cy="140.632" r="168.421" fill="url(#paint1_radial)" fill-opacity="0.75"/>
<circle cx="280.263" cy="197.895" r="117.895" fill="white"/>
<circle cx="126.158" cy="271.158" r="168.421" fill="url(#paint2_radial)" fill-opacity="0.75"/>
<circle cx="196.053" cy="298.947" r="101.053" fill="white"/>
</g>
<g filter="url(#filter1_d)">
<g clip-path="url(#clip0)">
<rect x="159" y="522" width="20" height="18.2812" fill="url(#paint3_linear)"/>
<rect x="131" y="466" width="76" height="56" fill="#5C80E0"/>
<rect x="129" y="464" width="80" height="60" rx="6" stroke="#FF9A94" stroke-width="4"/>
<rect x="127" y="536" width="84" height="4" rx="2" fill="#FF9A94"/>
<g opacity="0.2">
<rect x="139" y="474" width="46" height="8" rx="2" fill="#FAFAFA"/>
</g>
<g opacity="0.2">
<rect x="139" y="486" width="60" height="8" rx="2" fill="#FAFAFA"/>
</g>
</g>
</g>
<g filter="url(#filter2_d)">
<g clip-path="url(#clip1)">
<rect x="338" y="522" width="20" height="18.2812" fill="url(#paint4_linear)"/>
<rect x="310" y="466" width="76" height="56" fill="#5C80E0"/>
<rect x="308" y="464" width="80" height="60" rx="6" stroke="#FF9A94" stroke-width="4"/>
<rect x="306" y="536" width="84" height="4" rx="2" fill="#FF9A94"/>
<g opacity="0.2">
<rect x="318" y="474" width="46" height="8" rx="2" fill="#FAFAFA"/>
</g>
<g opacity="0.2">
<rect x="318" y="486" width="60" height="8" rx="2" fill="#FAFAFA"/>
</g>
</g>
</g>
<g filter="url(#filter3_d)">
<g clip-path="url(#clip2)">
<rect x="517" y="522" width="20" height="18.2812" fill="url(#paint5_linear)"/>
<rect x="489" y="466" width="76" height="56" fill="#5C80E0"/>
<rect x="487" y="464" width="80" height="60" rx="6" stroke="#FF9A94" stroke-width="4"/>
<rect x="485" y="536" width="84" height="4" rx="2" fill="#FF9A94"/>
<g opacity="0.2">
<rect x="497" y="474" width="46" height="8" rx="2" fill="#FAFAFA"/>
</g>
<g opacity="0.2">
<rect x="497" y="486" width="60" height="8" rx="2" fill="#FAFAFA"/>
</g>
</g>
</g>
<defs>
<filter id="filter0_d" x="3" y="0" width="706.947" height="520" filterUnits="userSpaceOnUse" color-interpolation-filters="sRGB">
<feFlood flood-opacity="0" result="BackgroundImageFix"/>
<feColorMatrix in="SourceAlpha" type="matrix" values="0 0 0 0 0 0 0 0 0 0 0 0 0 0 0 0 0 0 127 0"/>
<feOffset dx="8" dy="20"/>
<feGaussianBlur stdDeviation="50"/>
<feColorMatrix type="matrix" values="0 0 0 0 0 0 0 0 0 0 0 0 0 0 0 0 0 0 0.1 0"/>
<feBlend mode="normal" in2="BackgroundImageFix" result="effect1_dropShadow"/>
<feBlend mode="normal" in="SourceGraphic" in2="effect1_dropShadow" result="shape"/>
</filter>
<filter id="filter1_d" x="35" y="382" width="284" height="278" filterUnits="userSpaceOnUse" color-interpolation-filters="sRGB">
<feFlood flood-opacity="0" result="BackgroundImageFix"/>
<feColorMatrix in="SourceAlpha" type="matrix" values="0 0 0 0 0 0 0 0 0 0 0 0 0 0 0 0 0 0 127 0"/>
<feOffset dx="8" dy="20"/>
<feGaussianBlur stdDeviation="50"/>
<feColorMatrix type="matrix" values="0 0 0 0 0 0 0 0 0 0 0 0 0 0 0 0 0 0 0.1 0"/>
<feBlend mode="normal" in2="BackgroundImageFix" result="effect1_dropShadow"/>
<feBlend mode="normal" in="SourceGraphic" in2="effect1_dropShadow" result="shape"/>
</filter>
<filter id="filter2_d" x="214" y="382" width="284" height="278" filterUnits="userSpaceOnUse" color-interpolation-filters="sRGB">
<feFlood flood-opacity="0" result="BackgroundImageFix"/>
<feColorMatrix in="SourceAlpha" type="matrix" values="0 0 0 0 0 0 0 0 0 0 0 0 0 0 0 0 0 0 127 0"/>
<feOffset dx="8" dy="20"/>
<feGaussianBlur stdDeviation="50"/>
<feColorMatrix type="matrix" values="0 0 0 0 0 0 0 0 0 0 0 0 0 0 0 0 0 0 0.1 0"/>
<feBlend mode="normal" in2="BackgroundImageFix" result="effect1_dropShadow"/>
<feBlend mode="normal" in="SourceGraphic" in2="effect1_dropShadow" result="shape"/>
</filter>
<filter id="filter3_d" x="393" y="382" width="284" height="278" filterUnits="userSpaceOnUse" color-interpolation-filters="sRGB">
<feFlood flood-opacity="0" result="BackgroundImageFix"/>
<feColorMatrix in="SourceAlpha" type="matrix" values="0 0 0 0 0 0 0 0 0 0 0 0 0 0 0 0 0 0 127 0"/>
<feOffset dx="8" dy="20"/>
<feGaussianBlur stdDeviation="50"/>
<feColorMatrix type="matrix" values="0 0 0 0 0 0 0 0 0 0 0 0 0 0 0 0 0 0 0.1 0"/>
<feBlend mode="normal" in2="BackgroundImageFix" result="effect1_dropShadow"/>
<feBlend mode="normal" in="SourceGraphic" in2="effect1_dropShadow" result="shape"/>
</filter>
<radialGradient id="paint0_radial" cx="0" cy="0" r="1" gradientUnits="userSpaceOnUse" gradientTransform="translate(409.106 160) rotate(90) scale(168.421)">
<stop stop-color="#C4C4C4"/>
<stop offset="1" stop-color="#C4C4C4" stop-opacity="0"/>
</radialGradient>
<radialGradient id="paint1_radial" cx="0" cy="0" r="1" gradientUnits="userSpaceOnUse" gradientTransform="translate(270.158 140.632) rotate(90) scale(168.421)">
<stop stop-color="#C4C4C4"/>
<stop offset="1" stop-color="#C4C4C4" stop-opacity="0"/>
</radialGradient>
<radialGradient id="paint2_radial" cx="0" cy="0" r="1" gradientUnits="userSpaceOnUse" gradientTransform="translate(126.158 271.158) rotate(90) scale(168.421)">
<stop stop-color="#C4C4C4"/>
<stop offset="1" stop-color="#C4C4C4" stop-opacity="0"/>
</radialGradient>
<linearGradient id="paint3_linear" x1="169" y1="522" x2="169" y2="540.281" gradientUnits="userSpaceOnUse">
<stop stop-color="#DC726B"/>
<stop offset="0.557292" stop-color="#FF9A94"/>
</linearGradient>
<linearGradient id="paint4_linear" x1="348" y1="522" x2="348" y2="540.281" gradientUnits="userSpaceOnUse">
<stop stop-color="#DC726B"/>
<stop offset="0.557292" stop-color="#FF9A94"/>
</linearGradient>
<linearGradient id="paint5_linear" x1="527" y1="522" x2="527" y2="540.281" gradientUnits="userSpaceOnUse">
<stop stop-color="#DC726B"/>
<stop offset="0.557292" stop-color="#FF9A94"/>
</linearGradient>
<clipPath id="clip0">
<rect x="127" y="462" width="84" height="78" fill="white"/>
</clipPath>
<clipPath id="clip1">
<rect x="306" y="462" width="84" height="78" fill="white"/>
</clipPath>
<clipPath id="clip2">
<rect x="485" y="462" width="84" height="78" fill="white"/>
</clipPath>
</defs>
</svg>
