<svg width="716" height="616" viewBox="0 0 716 616" fill="none" xmlns="http://www.w3.org/2000/svg">
<g filter="url(#filter0_d)">
<path d="M48 56C48 47.1634 55.1634 40 64 40H652C660.837 40 668 47.1634 668 56V544C668 552.837 660.837 560 652 560H64C55.1634 560 48 552.837 48 544V56Z" fill="#FAFAFA"/>
<path d="M370.08 276.048V330H353.664V276.048H334.464V262.032H389.28V276.048H370.08ZM438.342 330L413.094 298.704H412.902V330H396.774V262.032H412.902V289.68H413.19L437.478 262.032H458.022L428.742 293.328L459.75 330H438.342Z" fill="white" fill-opacity="0.1"/>
<g filter="url(#filter1_d)">
<rect x="268" y="160" width="180" height="180" rx="4" fill="white"/>
<circle cx="358" cy="268" r="48" fill="#5C80E0"/>
<path d="M406 268C406 241.49 384.51 220 358 220V268L403.485 283.375C405.116 278.548 406 273.377 406 268Z" fill="#343C52" fill-opacity="0.2"/>
<path d="M310 268C310 271.474 310.369 274.861 311.07 278.125L358 268H310Z" fill="#343C52" fill-opacity="0.8"/>
<path d="M358 268H310C310 259.565 312.176 251.638 315.997 244.75L358 268Z" fill="#343C52" fill-opacity="0.6"/>
<path d="M358 220C339.925 220 324.184 229.99 315.997 244.75L358 268V220Z" fill="#343C52" fill-opacity="0.4"/>
<circle cx="358" cy="268" r="18" fill="white"/>
<rect x="268" y="195" width="180" height="1" fill="#3A4258" fill-opacity="0.1"/>
<rect x="284" y="170" width="92" height="14" fill="#EFF1F4"/>
</g>
<g filter="url(#filter2_d)">
<rect x="456" y="160" width="180" height="180" rx="4" fill="white"/>
<rect x="456" y="195" width="180" height="1" fill="#3A4258" fill-opacity="0.1"/>
<rect x="480" y="316" width="132" height="1" fill="#3A4258" fill-opacity="0.1"/>
<rect x="502" y="259" width="16" height="57" fill="#3C4A6E"/>
<rect x="526" y="244" width="16" height="72" fill="#44578B"/>
<rect x="550" y="220" width="16" height="96" fill="#4C65A7"/>
<rect x="574" y="236" width="16" height="80" fill="#5472C4"/>
<rect x="472" y="170" width="118" height="14" fill="#EFF1F4"/>
</g>
<g filter="url(#filter3_d)">
<rect x="80" y="72" width="180" height="456" rx="4" fill="white"/>
<rect x="92.5" y="128.5" width="155" height="35" rx="3.5" stroke="#EBECEE"/>
<rect x="92.5" y="84.5" width="155" height="35" rx="3.5" stroke="#EBECEE"/>
<rect x="92.5" y="216.5" width="155" height="35" rx="3.5" stroke="#EBECEE"/>
<rect x="92.5" y="260.5" width="155" height="35" rx="3.5" stroke="#EBECEE"/>
<rect x="92.5" y="304.5" width="155" height="35" rx="3.5" stroke="#EBECEE"/>
<rect x="92.5" y="348.5" width="155" height="35" rx="3.5" stroke="#EBECEE"/>
<rect x="92.5" y="172.5" width="155" height="35" rx="3.5" stroke="#EBECEE"/>
<rect x="92" y="484" width="156" height="36" rx="18" fill="#6C8DE3"/>
</g>
<g filter="url(#filter4_d)">
<rect x="268" y="348" width="368" height="180" rx="4" fill="white"/>
<rect x="268" y="383" width="368" height="1" fill="#3A4258" fill-opacity="0.1"/>
<rect x="276" y="392" width="83" height="128" rx="4" fill="#EFF1F4"/>
<rect x="366" y="392" width="83" height="128" rx="4" fill="#EFF1F4"/>
<rect x="455" y="392" width="173" height="128" rx="4" fill="#EFF1F4"/>
<path d="M490.8 441.152C492.168 441.2 493.572 441.44 495.012 441.872C496.452 442.304 497.736 442.976 498.864 443.888C497.688 445.232 496.524 446.54 495.372 447.812C494.772 447.212 494.052 446.744 493.212 446.408C492.372 446.072 491.568 445.892 490.8 445.868V451.628C491.736 451.916 492.684 452.24 493.644 452.6C494.604 452.96 495.48 453.44 496.272 454.04C497.064 454.64 497.712 455.372 498.216 456.236C498.72 457.1 498.972 458.18 498.972 459.476C498.972 460.796 498.732 461.948 498.252 462.932C497.796 463.892 497.172 464.696 496.38 465.344C495.612 465.992 494.724 466.484 493.716 466.82C492.732 467.156 491.712 467.336 490.656 467.36V469.988H487.992V467.36C486.432 467.312 484.86 467.024 483.276 466.496C481.692 465.944 480.3 465.128 479.1 464.048C479.724 463.4 480.348 462.752 480.972 462.104C481.62 461.432 482.256 460.76 482.88 460.088C483.192 460.448 483.564 460.784 483.996 461.096C484.428 461.384 484.872 461.636 485.328 461.852C485.784 462.068 486.24 462.248 486.696 462.392C487.152 462.512 487.584 462.572 487.992 462.572V456.272C486.96 455.984 485.964 455.66 485.004 455.3C484.068 454.94 483.24 454.472 482.52 453.896C481.8 453.32 481.224 452.624 480.792 451.808C480.36 450.968 480.144 449.948 480.144 448.748C480.144 447.572 480.384 446.528 480.864 445.616C481.344 444.68 481.968 443.9 482.736 443.276C483.504 442.628 484.368 442.136 485.328 441.8C486.288 441.44 487.236 441.236 488.172 441.188V438.704H490.8V441.152ZM488.172 445.796C487.524 445.868 486.936 446.12 486.408 446.552C485.904 446.96 485.652 447.56 485.652 448.352C485.652 449.12 485.88 449.708 486.336 450.116C486.792 450.524 487.404 450.824 488.172 451.016V445.796ZM490.656 462.608C491.472 462.56 492.108 462.296 492.564 461.816C493.044 461.312 493.284 460.64 493.284 459.8C493.284 458.96 493.032 458.336 492.528 457.928C492.048 457.496 491.424 457.16 490.656 456.92V462.608ZM503.561 467V461.96L513.497 452.96C514.121 452.36 514.625 451.748 515.009 451.124C515.393 450.5 515.585 449.804 515.585 449.036C515.585 448.124 515.297 447.392 514.721 446.84C514.145 446.264 513.377 445.976 512.417 445.976C511.409 445.976 510.581 446.336 509.933 447.056C509.309 447.752 508.937 448.676 508.817 449.828L503.021 449.036C503.165 447.74 503.513 446.588 504.065 445.58C504.641 444.572 505.361 443.72 506.225 443.024C507.089 442.304 508.073 441.764 509.177 441.404C510.305 441.02 511.493 440.828 512.741 440.828C513.917 440.828 515.057 440.984 516.161 441.296C517.265 441.608 518.249 442.088 519.113 442.736C519.977 443.384 520.661 444.2 521.165 445.184C521.693 446.168 521.957 447.32 521.957 448.64C521.957 449.552 521.837 450.38 521.597 451.124C521.357 451.844 521.021 452.516 520.589 453.14C520.181 453.764 519.701 454.352 519.149 454.904C518.621 455.432 518.069 455.96 517.493 456.488L511.589 461.744H521.993V467H503.561ZM529.967 471.464H525.107L527.807 461.24H533.459L529.967 471.464ZM546.196 467H539.176L549.508 446.696H537.448V441.512H555.952V446.336L546.196 467ZM580.053 454.184C580.053 455.984 579.873 457.7 579.513 459.332C579.153 460.964 578.577 462.404 577.785 463.652C576.993 464.876 575.961 465.86 574.689 466.604C573.441 467.324 571.917 467.684 570.117 467.684C568.317 467.684 566.781 467.324 565.509 466.604C564.237 465.86 563.193 464.876 562.377 463.652C561.585 462.404 561.009 460.964 560.649 459.332C560.289 457.7 560.109 455.984 560.109 454.184C560.109 452.384 560.289 450.68 560.649 449.072C561.009 447.44 561.585 446.024 562.377 444.824C563.193 443.6 564.237 442.628 565.509 441.908C566.781 441.188 568.317 440.828 570.117 440.828C571.917 440.828 573.441 441.188 574.689 441.908C575.961 442.628 576.993 443.6 577.785 444.824C578.577 446.024 579.153 447.44 579.513 449.072C579.873 450.68 580.053 452.384 580.053 454.184ZM573.861 454.184C573.861 453.392 573.813 452.516 573.717 451.556C573.621 450.596 573.441 449.708 573.177 448.892C572.913 448.052 572.529 447.356 572.025 446.804C571.545 446.228 570.909 445.94 570.117 445.94C569.325 445.94 568.677 446.228 568.173 446.804C567.669 447.356 567.273 448.052 566.985 448.892C566.721 449.708 566.541 450.596 566.445 451.556C566.349 452.516 566.301 453.392 566.301 454.184C566.301 455 566.349 455.9 566.445 456.884C566.541 457.844 566.721 458.744 566.985 459.584C567.273 460.4 567.669 461.096 568.173 461.672C568.677 462.224 569.325 462.5 570.117 462.5C570.909 462.5 571.545 462.224 572.025 461.672C572.529 461.096 572.913 460.4 573.177 459.584C573.441 458.744 573.621 457.844 573.717 456.884C573.813 455.9 573.861 455 573.861 454.184ZM603.327 454.184C603.327 455.984 603.147 457.7 602.787 459.332C602.427 460.964 601.851 462.404 601.059 463.652C600.267 464.876 599.235 465.86 597.963 466.604C596.715 467.324 595.191 467.684 593.391 467.684C591.591 467.684 590.055 467.324 588.783 466.604C587.511 465.86 586.467 464.876 585.651 463.652C584.859 462.404 584.283 460.964 583.923 459.332C583.563 457.7 583.383 455.984 583.383 454.184C583.383 452.384 583.563 450.68 583.923 449.072C584.283 447.44 584.859 446.024 585.651 444.824C586.467 443.6 587.511 442.628 588.783 441.908C590.055 441.188 591.591 440.828 593.391 440.828C595.191 440.828 596.715 441.188 597.963 441.908C599.235 442.628 600.267 443.6 601.059 444.824C601.851 446.024 602.427 447.44 602.787 449.072C603.147 450.68 603.327 452.384 603.327 454.184ZM597.135 454.184C597.135 453.392 597.087 452.516 596.991 451.556C596.895 450.596 596.715 449.708 596.451 448.892C596.187 448.052 595.803 447.356 595.299 446.804C594.819 446.228 594.183 445.94 593.391 445.94C592.599 445.94 591.951 446.228 591.447 446.804C590.943 447.356 590.547 448.052 590.259 448.892C589.995 449.708 589.815 450.596 589.719 451.556C589.623 452.516 589.575 453.392 589.575 454.184C589.575 455 589.623 455.9 589.719 456.884C589.815 457.844 589.995 458.744 590.259 459.584C590.547 460.4 590.943 461.096 591.447 461.672C591.951 462.224 592.599 462.5 593.391 462.5C594.183 462.5 594.819 462.224 595.299 461.672C595.803 461.096 596.187 460.4 596.451 459.584C596.715 458.744 596.895 457.844 596.991 456.884C597.087 455.9 597.135 455 597.135 454.184Z" fill="#5D667D" fill-opacity="0.6"/>
<path d="M327.035 449.936C327.035 451.448 326.771 452.828 326.243 454.076C325.715 455.3 325.031 456.548 324.191 457.82L318.035 467H310.727L317.063 458.216L317.135 458.108C316.871 458.204 316.571 458.276 316.235 458.324C315.923 458.372 315.623 458.396 315.335 458.396C314.207 458.396 313.139 458.204 312.131 457.82C311.123 457.412 310.235 456.848 309.467 456.128C308.699 455.384 308.087 454.508 307.631 453.5C307.175 452.468 306.947 451.328 306.947 450.08C306.947 448.64 307.211 447.344 307.739 446.192C308.267 445.04 308.987 444.068 309.899 443.276C310.811 442.484 311.879 441.884 313.103 441.476C314.327 441.044 315.623 440.828 316.991 440.828C318.383 440.828 319.691 441.044 320.915 441.476C322.139 441.884 323.195 442.484 324.083 443.276C324.995 444.068 325.715 445.028 326.243 446.156C326.771 447.284 327.035 448.544 327.035 449.936ZM320.987 449.864C320.987 448.76 320.627 447.812 319.907 447.02C319.211 446.204 318.251 445.796 317.027 445.796C315.803 445.796 314.819 446.18 314.075 446.948C313.355 447.692 312.995 448.676 312.995 449.9C312.995 451.052 313.355 452.012 314.075 452.78C314.795 453.524 315.755 453.896 316.955 453.896C318.155 453.896 319.127 453.524 319.871 452.78C320.615 452.036 320.987 451.064 320.987 449.864Z" fill="#5D667D" fill-opacity="0.6"/>
<path d="M416.851 459.584C416.851 460.976 416.563 462.188 415.987 463.22C415.435 464.228 414.703 465.068 413.791 465.74C412.879 466.388 411.847 466.868 410.695 467.18C409.567 467.516 408.415 467.684 407.239 467.684C406.087 467.684 404.959 467.552 403.855 467.288C402.775 467.024 401.779 466.628 400.867 466.1C399.979 465.548 399.199 464.852 398.527 464.012C397.855 463.148 397.351 462.116 397.015 460.916L402.631 459.44C402.871 460.28 403.363 461.024 404.107 461.672C404.851 462.296 405.799 462.608 406.951 462.608C407.383 462.608 407.815 462.548 408.247 462.428C408.703 462.308 409.099 462.128 409.435 461.888C409.795 461.624 410.083 461.288 410.299 460.88C410.539 460.472 410.659 459.968 410.659 459.368C410.659 458.72 410.503 458.18 410.191 457.748C409.903 457.316 409.507 456.98 409.003 456.74C408.523 456.476 407.971 456.296 407.347 456.2C406.723 456.08 406.099 456.02 405.475 456.02H403.855V451.592H405.619C406.195 451.592 406.747 451.556 407.275 451.484C407.803 451.388 408.271 451.232 408.679 451.016C409.111 450.776 409.447 450.464 409.687 450.08C409.951 449.696 410.083 449.192 410.083 448.568C410.083 447.656 409.759 446.96 409.111 446.48C408.463 446 407.719 445.76 406.879 445.76C406.015 445.76 405.259 446.024 404.611 446.552C403.987 447.056 403.579 447.74 403.387 448.604L397.771 447.308C398.083 446.228 398.551 445.292 399.175 444.5C399.799 443.684 400.531 443.012 401.371 442.484C402.235 441.932 403.171 441.524 404.179 441.26C405.187 440.972 406.219 440.828 407.275 440.828C408.403 440.828 409.495 440.972 410.551 441.26C411.631 441.548 412.591 441.992 413.431 442.592C414.271 443.192 414.943 443.948 415.447 444.86C415.975 445.748 416.239 446.804 416.239 448.028C416.239 449.444 415.831 450.644 415.015 451.628C414.223 452.588 413.203 453.236 411.955 453.572V453.68C412.675 453.848 413.335 454.124 413.935 454.508C414.535 454.868 415.051 455.312 415.483 455.84C415.915 456.344 416.251 456.92 416.491 457.568C416.731 458.192 416.851 458.864 416.851 459.584Z" fill="#5D667D" fill-opacity="0.6"/>
<rect x="284" y="358" width="112" height="14" fill="#EFF1F4"/>
</g>
<g filter="url(#filter5_d)">
<rect x="268" y="72" width="368" height="80" rx="4" fill="white"/>
<g clip-path="url(#clip0)">
<rect x="292" y="88" width="48" height="48" rx="24" fill="#5D667D"/>
<circle cx="316" cy="140" r="20" fill="#DAE0E8"/>
<circle cx="316" cy="107" r="10" fill="#DAE0E8"/>
</g>
<rect x="352" y="116" width="92" height="12" fill="#EFF1F4"/>
<rect x="352" y="96" width="146" height="12" fill="#5D667D"/>
<circle cx="605" cy="95" r="7" fill="#EFF1F4"/>
</g>
</g>
<defs>
<filter id="filter0_d" x="0" y="0" width="716" height="616" filterUnits="userSpaceOnUse" color-interpolation-filters="sRGB">
<feFlood flood-opacity="0" result="BackgroundImageFix"/>
<feColorMatrix in="SourceAlpha" type="matrix" values="0 0 0 0 0 0 0 0 0 0 0 0 0 0 0 0 0 0 127 0"/>
<feOffset dy="8"/>
<feGaussianBlur stdDeviation="24"/>
<feColorMatrix type="matrix" values="0 0 0 0 0.141176 0 0 0 0 0.176471 0 0 0 0 0.270588 0 0 0 0.15 0"/>
<feBlend mode="normal" in2="BackgroundImageFix" result="effect1_dropShadow"/>
<feBlend mode="normal" in="SourceGraphic" in2="effect1_dropShadow" result="shape"/>
</filter>
<filter id="filter1_d" x="264" y="160" width="188" height="188" filterUnits="userSpaceOnUse" color-interpolation-filters="sRGB">
<feFlood flood-opacity="0" result="BackgroundImageFix"/>
<feColorMatrix in="SourceAlpha" type="matrix" values="0 0 0 0 0 0 0 0 0 0 0 0 0 0 0 0 0 0 127 0"/>
<feOffset dy="4"/>
<feGaussianBlur stdDeviation="2"/>
<feColorMatrix type="matrix" values="0 0 0 0 0.141176 0 0 0 0 0.176471 0 0 0 0 0.270588 0 0 0 0.05 0"/>
<feBlend mode="normal" in2="BackgroundImageFix" result="effect1_dropShadow"/>
<feBlend mode="normal" in="SourceGraphic" in2="effect1_dropShadow" result="shape"/>
</filter>
<filter id="filter2_d" x="452" y="160" width="188" height="188" filterUnits="userSpaceOnUse" color-interpolation-filters="sRGB">
<feFlood flood-opacity="0" result="BackgroundImageFix"/>
<feColorMatrix in="SourceAlpha" type="matrix" values="0 0 0 0 0 0 0 0 0 0 0 0 0 0 0 0 0 0 127 0"/>
<feOffset dy="4"/>
<feGaussianBlur stdDeviation="2"/>
<feColorMatrix type="matrix" values="0 0 0 0 0.141176 0 0 0 0 0.176471 0 0 0 0 0.270588 0 0 0 0.05 0"/>
<feBlend mode="normal" in2="BackgroundImageFix" result="effect1_dropShadow"/>
<feBlend mode="normal" in="SourceGraphic" in2="effect1_dropShadow" result="shape"/>
</filter>
<filter id="filter3_d" x="76" y="72" width="188" height="464" filterUnits="userSpaceOnUse" color-interpolation-filters="sRGB">
<feFlood flood-opacity="0" result="BackgroundImageFix"/>
<feColorMatrix in="SourceAlpha" type="matrix" values="0 0 0 0 0 0 0 0 0 0 0 0 0 0 0 0 0 0 127 0"/>
<feOffset dy="4"/>
<feGaussianBlur stdDeviation="2"/>
<feColorMatrix type="matrix" values="0 0 0 0 0.141176 0 0 0 0 0.176471 0 0 0 0 0.270588 0 0 0 0.05 0"/>
<feBlend mode="normal" in2="BackgroundImageFix" result="effect1_dropShadow"/>
<feBlend mode="normal" in="SourceGraphic" in2="effect1_dropShadow" result="shape"/>
</filter>
<filter id="filter4_d" x="264" y="348" width="376" height="188" filterUnits="userSpaceOnUse" color-interpolation-filters="sRGB">
<feFlood flood-opacity="0" result="BackgroundImageFix"/>
<feColorMatrix in="SourceAlpha" type="matrix" values="0 0 0 0 0 0 0 0 0 0 0 0 0 0 0 0 0 0 127 0"/>
<feOffset dy="4"/>
<feGaussianBlur stdDeviation="2"/>
<feColorMatrix type="matrix" values="0 0 0 0 0.141176 0 0 0 0 0.176471 0 0 0 0 0.270588 0 0 0 0.05 0"/>
<feBlend mode="normal" in2="BackgroundImageFix" result="effect1_dropShadow"/>
<feBlend mode="normal" in="SourceGraphic" in2="effect1_dropShadow" result="shape"/>
</filter>
<filter id="filter5_d" x="264" y="72" width="376" height="88" filterUnits="userSpaceOnUse" color-interpolation-filters="sRGB">
<feFlood flood-opacity="0" result="BackgroundImageFix"/>
<feColorMatrix in="SourceAlpha" type="matrix" values="0 0 0 0 0 0 0 0 0 0 0 0 0 0 0 0 0 0 127 0"/>
<feOffset dy="4"/>
<feGaussianBlur stdDeviation="2"/>
<feColorMatrix type="matrix" values="0 0 0 0 0.141176 0 0 0 0 0.176471 0 0 0 0 0.270588 0 0 0 0.05 0"/>
<feBlend mode="normal" in2="BackgroundImageFix" result="effect1_dropShadow"/>
<feBlend mode="normal" in="SourceGraphic" in2="effect1_dropShadow" result="shape"/>
</filter>
<clipPath id="clip0">
<rect x="292" y="88" width="48" height="48" rx="24" fill="white"/>
</clipPath>
</defs>
</svg>
