<svg width="792" height="626" viewBox="0 0 792 626" fill="none" xmlns="http://www.w3.org/2000/svg">
<g filter="url(#filter0_d)">
<path d="M124 56C124 47.1634 131.163 40 140 40H728C736.837 40 744 47.1634 744 56V544C744 552.837 736.837 560 728 560H140C131.163 560 124 552.837 124 544V56Z" fill="#FAFAFA"/>
<path d="M446.08 276.048V330H429.664V276.048H410.464V262.032H465.28V276.048H446.08ZM514.342 330L489.094 298.704H488.902V330H472.774V262.032H488.902V289.68H489.19L513.478 262.032H534.022L504.742 293.328L535.75 330H514.342Z" fill="white" fill-opacity="0.1"/>
<g filter="url(#filter1_d)">
<rect x="344" y="160" width="180" height="180" rx="4" fill="white"/>
<circle cx="434" cy="268" r="48" fill="#5C80E0"/>
<path d="M482 268C482 241.49 460.51 220 434 220V268L479.485 283.375C481.116 278.548 482 273.377 482 268Z" fill="#343C52" fill-opacity="0.2"/>
<path d="M386 268C386 271.474 386.369 274.861 387.07 278.125L434 268H386Z" fill="#343C52" fill-opacity="0.8"/>
<path d="M434 268H386C386 259.565 388.176 251.638 391.997 244.75L434 268Z" fill="#343C52" fill-opacity="0.6"/>
<path d="M434 220C415.926 220 400.184 229.99 391.997 244.75L434 268V220Z" fill="#343C52" fill-opacity="0.4"/>
<circle cx="434" cy="268" r="18" fill="white"/>
<rect x="344" y="195" width="180" height="1" fill="#3A4258" fill-opacity="0.1"/>
<rect x="360" y="170" width="92" height="14" fill="#EFF1F4"/>
</g>
<g filter="url(#filter2_d)">
<rect x="532" y="160" width="180" height="180" rx="4" fill="white"/>
<rect x="532" y="195" width="180" height="1" fill="#3A4258" fill-opacity="0.1"/>
<rect x="556" y="316" width="132" height="1" fill="#3A4258" fill-opacity="0.1"/>
<rect x="578" y="259" width="16" height="57" fill="#3C4A6E"/>
<rect x="602" y="244" width="16" height="72" fill="#44578B"/>
<rect x="626" y="220" width="16" height="96" fill="#4C65A7"/>
<rect x="650" y="236" width="16" height="80" fill="#5472C4"/>
<rect x="548" y="170" width="118" height="14" fill="#EFF1F4"/>
</g>
<g filter="url(#filter3_d)">
<rect x="156" y="72" width="180" height="456" rx="4" fill="white"/>
<rect x="168.5" y="128.5" width="155" height="35" rx="3.5" stroke="#EBECEE"/>
<rect x="168.5" y="84.5" width="155" height="35" rx="3.5" stroke="#EBECEE"/>
<rect x="168.5" y="216.5" width="155" height="35" rx="3.5" stroke="#EBECEE"/>
<rect x="168.5" y="260.5" width="155" height="35" rx="3.5" stroke="#EBECEE"/>
<rect x="168.5" y="304.5" width="155" height="35" rx="3.5" stroke="#EBECEE"/>
<rect x="168.5" y="348.5" width="155" height="35" rx="3.5" stroke="#EBECEE"/>
<rect x="168.5" y="172.5" width="155" height="35" rx="3.5" stroke="#EBECEE"/>
<rect x="168" y="484" width="156" height="36" rx="18" fill="#6C8DE3"/>
</g>
<g filter="url(#filter4_d)">
<rect x="344" y="348" width="368" height="180" rx="4" fill="white"/>
<rect x="344" y="383" width="368" height="1" fill="#3A4258" fill-opacity="0.1"/>
<rect x="352" y="392" width="83" height="128" rx="4" fill="#EFF1F4"/>
<rect x="442" y="392" width="83" height="128" rx="4" fill="#EFF1F4"/>
<rect x="531" y="392" width="173" height="128" rx="4" fill="#EFF1F4"/>
<path d="M566.8 441.152C568.168 441.2 569.572 441.44 571.012 441.872C572.452 442.304 573.736 442.976 574.864 443.888C573.688 445.232 572.524 446.54 571.372 447.812C570.772 447.212 570.052 446.744 569.212 446.408C568.372 446.072 567.568 445.892 566.8 445.868V451.628C567.736 451.916 568.684 452.24 569.644 452.6C570.604 452.96 571.48 453.44 572.272 454.04C573.064 454.64 573.712 455.372 574.216 456.236C574.72 457.1 574.972 458.18 574.972 459.476C574.972 460.796 574.732 461.948 574.252 462.932C573.796 463.892 573.172 464.696 572.38 465.344C571.612 465.992 570.724 466.484 569.716 466.82C568.732 467.156 567.712 467.336 566.656 467.36V469.988H563.992V467.36C562.432 467.312 560.86 467.024 559.276 466.496C557.692 465.944 556.3 465.128 555.1 464.048C555.724 463.4 556.348 462.752 556.972 462.104C557.62 461.432 558.256 460.76 558.88 460.088C559.192 460.448 559.564 460.784 559.996 461.096C560.428 461.384 560.872 461.636 561.328 461.852C561.784 462.068 562.24 462.248 562.696 462.392C563.152 462.512 563.584 462.572 563.992 462.572V456.272C562.96 455.984 561.964 455.66 561.004 455.3C560.068 454.94 559.24 454.472 558.52 453.896C557.8 453.32 557.224 452.624 556.792 451.808C556.36 450.968 556.144 449.948 556.144 448.748C556.144 447.572 556.384 446.528 556.864 445.616C557.344 444.68 557.968 443.9 558.736 443.276C559.504 442.628 560.368 442.136 561.328 441.8C562.288 441.44 563.236 441.236 564.172 441.188V438.704H566.8V441.152ZM564.172 445.796C563.524 445.868 562.936 446.12 562.408 446.552C561.904 446.96 561.652 447.56 561.652 448.352C561.652 449.12 561.88 449.708 562.336 450.116C562.792 450.524 563.404 450.824 564.172 451.016V445.796ZM566.656 462.608C567.472 462.56 568.108 462.296 568.564 461.816C569.044 461.312 569.284 460.64 569.284 459.8C569.284 458.96 569.032 458.336 568.528 457.928C568.048 457.496 567.424 457.16 566.656 456.92V462.608ZM579.561 467V461.96L589.497 452.96C590.121 452.36 590.625 451.748 591.009 451.124C591.393 450.5 591.585 449.804 591.585 449.036C591.585 448.124 591.297 447.392 590.721 446.84C590.145 446.264 589.377 445.976 588.417 445.976C587.409 445.976 586.581 446.336 585.933 447.056C585.309 447.752 584.937 448.676 584.817 449.828L579.021 449.036C579.165 447.74 579.513 446.588 580.065 445.58C580.641 444.572 581.361 443.72 582.225 443.024C583.089 442.304 584.073 441.764 585.177 441.404C586.305 441.02 587.493 440.828 588.741 440.828C589.917 440.828 591.057 440.984 592.161 441.296C593.265 441.608 594.249 442.088 595.113 442.736C595.977 443.384 596.661 444.2 597.165 445.184C597.693 446.168 597.957 447.32 597.957 448.64C597.957 449.552 597.837 450.38 597.597 451.124C597.357 451.844 597.021 452.516 596.589 453.14C596.181 453.764 595.701 454.352 595.149 454.904C594.621 455.432 594.069 455.96 593.493 456.488L587.589 461.744H597.993V467H579.561ZM605.967 471.464H601.107L603.807 461.24H609.459L605.967 471.464ZM622.196 467H615.176L625.508 446.696H613.448V441.512H631.952V446.336L622.196 467ZM656.053 454.184C656.053 455.984 655.873 457.7 655.513 459.332C655.153 460.964 654.577 462.404 653.785 463.652C652.993 464.876 651.961 465.86 650.689 466.604C649.441 467.324 647.917 467.684 646.117 467.684C644.317 467.684 642.781 467.324 641.509 466.604C640.237 465.86 639.193 464.876 638.377 463.652C637.585 462.404 637.009 460.964 636.649 459.332C636.289 457.7 636.109 455.984 636.109 454.184C636.109 452.384 636.289 450.68 636.649 449.072C637.009 447.44 637.585 446.024 638.377 444.824C639.193 443.6 640.237 442.628 641.509 441.908C642.781 441.188 644.317 440.828 646.117 440.828C647.917 440.828 649.441 441.188 650.689 441.908C651.961 442.628 652.993 443.6 653.785 444.824C654.577 446.024 655.153 447.44 655.513 449.072C655.873 450.68 656.053 452.384 656.053 454.184ZM649.861 454.184C649.861 453.392 649.813 452.516 649.717 451.556C649.621 450.596 649.441 449.708 649.177 448.892C648.913 448.052 648.529 447.356 648.025 446.804C647.545 446.228 646.909 445.94 646.117 445.94C645.325 445.94 644.677 446.228 644.173 446.804C643.669 447.356 643.273 448.052 642.985 448.892C642.721 449.708 642.541 450.596 642.445 451.556C642.349 452.516 642.301 453.392 642.301 454.184C642.301 455 642.349 455.9 642.445 456.884C642.541 457.844 642.721 458.744 642.985 459.584C643.273 460.4 643.669 461.096 644.173 461.672C644.677 462.224 645.325 462.5 646.117 462.5C646.909 462.5 647.545 462.224 648.025 461.672C648.529 461.096 648.913 460.4 649.177 459.584C649.441 458.744 649.621 457.844 649.717 456.884C649.813 455.9 649.861 455 649.861 454.184ZM679.327 454.184C679.327 455.984 679.147 457.7 678.787 459.332C678.427 460.964 677.851 462.404 677.059 463.652C676.267 464.876 675.235 465.86 673.963 466.604C672.715 467.324 671.191 467.684 669.391 467.684C667.591 467.684 666.055 467.324 664.783 466.604C663.511 465.86 662.467 464.876 661.651 463.652C660.859 462.404 660.283 460.964 659.923 459.332C659.563 457.7 659.383 455.984 659.383 454.184C659.383 452.384 659.563 450.68 659.923 449.072C660.283 447.44 660.859 446.024 661.651 444.824C662.467 443.6 663.511 442.628 664.783 441.908C666.055 441.188 667.591 440.828 669.391 440.828C671.191 440.828 672.715 441.188 673.963 441.908C675.235 442.628 676.267 443.6 677.059 444.824C677.851 446.024 678.427 447.44 678.787 449.072C679.147 450.68 679.327 452.384 679.327 454.184ZM673.135 454.184C673.135 453.392 673.087 452.516 672.991 451.556C672.895 450.596 672.715 449.708 672.451 448.892C672.187 448.052 671.803 447.356 671.299 446.804C670.819 446.228 670.183 445.94 669.391 445.94C668.599 445.94 667.951 446.228 667.447 446.804C666.943 447.356 666.547 448.052 666.259 448.892C665.995 449.708 665.815 450.596 665.719 451.556C665.623 452.516 665.575 453.392 665.575 454.184C665.575 455 665.623 455.9 665.719 456.884C665.815 457.844 665.995 458.744 666.259 459.584C666.547 460.4 666.943 461.096 667.447 461.672C667.951 462.224 668.599 462.5 669.391 462.5C670.183 462.5 670.819 462.224 671.299 461.672C671.803 461.096 672.187 460.4 672.451 459.584C672.715 458.744 672.895 457.844 672.991 456.884C673.087 455.9 673.135 455 673.135 454.184Z" fill="#5D667D" fill-opacity="0.6"/>
<path d="M403.035 449.936C403.035 451.448 402.771 452.828 402.243 454.076C401.715 455.3 401.031 456.548 400.191 457.82L394.035 467H386.727L393.063 458.216L393.135 458.108C392.871 458.204 392.571 458.276 392.235 458.324C391.923 458.372 391.623 458.396 391.335 458.396C390.207 458.396 389.139 458.204 388.131 457.82C387.123 457.412 386.235 456.848 385.467 456.128C384.699 455.384 384.087 454.508 383.631 453.5C383.175 452.468 382.947 451.328 382.947 450.08C382.947 448.64 383.211 447.344 383.739 446.192C384.267 445.04 384.987 444.068 385.899 443.276C386.811 442.484 387.879 441.884 389.103 441.476C390.327 441.044 391.623 440.828 392.991 440.828C394.383 440.828 395.691 441.044 396.915 441.476C398.139 441.884 399.195 442.484 400.083 443.276C400.995 444.068 401.715 445.028 402.243 446.156C402.771 447.284 403.035 448.544 403.035 449.936ZM396.987 449.864C396.987 448.76 396.627 447.812 395.907 447.02C395.211 446.204 394.251 445.796 393.027 445.796C391.803 445.796 390.819 446.18 390.075 446.948C389.355 447.692 388.995 448.676 388.995 449.9C388.995 451.052 389.355 452.012 390.075 452.78C390.795 453.524 391.755 453.896 392.955 453.896C394.155 453.896 395.127 453.524 395.871 452.78C396.615 452.036 396.987 451.064 396.987 449.864Z" fill="#5D667D" fill-opacity="0.6"/>
<path d="M492.851 459.584C492.851 460.976 492.563 462.188 491.987 463.22C491.435 464.228 490.703 465.068 489.791 465.74C488.879 466.388 487.847 466.868 486.695 467.18C485.567 467.516 484.415 467.684 483.239 467.684C482.087 467.684 480.959 467.552 479.855 467.288C478.775 467.024 477.779 466.628 476.867 466.1C475.979 465.548 475.199 464.852 474.527 464.012C473.855 463.148 473.351 462.116 473.015 460.916L478.631 459.44C478.871 460.28 479.363 461.024 480.107 461.672C480.851 462.296 481.799 462.608 482.951 462.608C483.383 462.608 483.815 462.548 484.247 462.428C484.703 462.308 485.099 462.128 485.435 461.888C485.795 461.624 486.083 461.288 486.299 460.88C486.539 460.472 486.659 459.968 486.659 459.368C486.659 458.72 486.503 458.18 486.191 457.748C485.903 457.316 485.507 456.98 485.003 456.74C484.523 456.476 483.971 456.296 483.347 456.2C482.723 456.08 482.099 456.02 481.475 456.02H479.855V451.592H481.619C482.195 451.592 482.747 451.556 483.275 451.484C483.803 451.388 484.271 451.232 484.679 451.016C485.111 450.776 485.447 450.464 485.687 450.08C485.951 449.696 486.083 449.192 486.083 448.568C486.083 447.656 485.759 446.96 485.111 446.48C484.463 446 483.719 445.76 482.879 445.76C482.015 445.76 481.259 446.024 480.611 446.552C479.987 447.056 479.579 447.74 479.387 448.604L473.771 447.308C474.083 446.228 474.551 445.292 475.175 444.5C475.799 443.684 476.531 443.012 477.371 442.484C478.235 441.932 479.171 441.524 480.179 441.26C481.187 440.972 482.219 440.828 483.275 440.828C484.403 440.828 485.495 440.972 486.551 441.26C487.631 441.548 488.591 441.992 489.431 442.592C490.271 443.192 490.943 443.948 491.447 444.86C491.975 445.748 492.239 446.804 492.239 448.028C492.239 449.444 491.831 450.644 491.015 451.628C490.223 452.588 489.203 453.236 487.955 453.572V453.68C488.675 453.848 489.335 454.124 489.935 454.508C490.535 454.868 491.051 455.312 491.483 455.84C491.915 456.344 492.251 456.92 492.491 457.568C492.731 458.192 492.851 458.864 492.851 459.584Z" fill="#5D667D" fill-opacity="0.6"/>
<rect x="360" y="358" width="112" height="14" fill="#EFF1F4"/>
</g>
<g filter="url(#filter5_d)">
<rect x="344" y="72" width="368" height="80" rx="4" fill="white"/>
<g clip-path="url(#clip0)">
<rect x="368" y="88" width="48" height="48" rx="24" fill="#5D667D"/>
<circle cx="392" cy="140" r="20" fill="#DAE0E8"/>
<circle cx="392" cy="107" r="10" fill="#DAE0E8"/>
</g>
<rect x="428" y="116" width="92" height="12" fill="#EFF1F4"/>
<rect x="428" y="96" width="146" height="12" fill="#5D667D"/>
<circle cx="681" cy="95" r="7" fill="#EFF1F4"/>
</g>
</g>
<g filter="url(#filter6_di)">
<path d="M48 111.6C48 97.0386 48 89.758 50.8338 84.1962C53.3265 79.304 57.304 75.3265 62.1962 72.8338C67.758 70 75.0386 70 89.6 70H250.504C265.065 70 272.346 70 277.908 72.8338C282.8 75.3265 286.777 79.304 289.27 84.1962C292.104 89.758 292.104 97.0386 292.104 111.6V528.4C292.104 542.961 292.104 550.242 289.27 555.804C286.777 560.696 282.8 564.673 277.908 567.166C272.346 570 265.065 570 250.504 570H89.6C75.0386 570 67.758 570 62.1962 567.166C57.304 564.673 53.3265 560.696 50.8338 555.804C48 550.242 48 542.961 48 528.4V111.6Z" fill="#EFF1F4"/>
<g clip-path="url(#clip1)">
<rect x="59.792" y="81.7924" width="220.519" height="476.415" rx="20" fill="white"/>
<rect x="78.6602" y="511.038" width="182.783" height="28.3018" rx="14" fill="#EFF1F4"/>
<rect x="79.1602" y="511.538" width="181.783" height="27.3018" rx="13.5" stroke="#3A4258" stroke-opacity="0.1"/>
<rect x="58.6123" y="490.991" width="221.698" height="1.17923" fill="#EFF1F4"/>
<ellipse cx="247.292" cy="525.189" rx="11.7925" ry="11.7924" fill="#6C8DE3"/>
<path fill-rule="evenodd" clip-rule="evenodd" d="M242.747 525.016C242.517 524.786 242.517 524.412 242.747 524.182L246.874 520.055C246.985 519.944 247.135 519.882 247.291 519.882C247.448 519.882 247.598 519.944 247.708 520.055L251.835 524.182C252.066 524.412 252.066 524.786 251.835 525.016C251.605 525.246 251.232 525.246 251.002 525.016L247.881 521.895L247.881 529.906C247.881 530.231 247.617 530.495 247.291 530.495C246.966 530.495 246.702 530.231 246.702 529.906L246.702 521.895L243.581 525.016C243.351 525.246 242.977 525.246 242.747 525.016Z" fill="white"/>
<rect x="59.792" y="81.7924" width="220.519" height="69.5755" fill="white"/>
<rect x="58.6123" y="150.189" width="221.698" height="1.17924" fill="#EFF1F4"/>
<path fill-rule="evenodd" clip-rule="evenodd" d="M108.141 81.7924C112.268 81.7924 112.268 84.1509 112.268 87.6887C112.268 89.4575 113.565 93.5849 116.395 95.9434C119.226 98.3019 122.292 99.4811 125.829 99.4811H171.82H217.811C221.348 99.4811 224.414 98.3019 227.244 95.9434C230.075 93.5849 231.372 89.4575 231.372 87.6887C231.372 84.1509 231.372 81.7924 235.499 81.7924H171.82V99.4811L171.82 81.7924H108.141Z" fill="#EFF1F4"/>
<circle cx="169.461" cy="125.425" r="14.1509" fill="#ACB1BF"/>
<path d="M75.1218 119.528L69.2256 125.425L75.1218 131.321" stroke="#ACB1BF" stroke-linecap="round" stroke-linejoin="round"/>
<rect x="73.9424" y="189.104" width="192.217" height="75.4717" rx="8" fill="#FF9A94"/>
<path d="M91.752 210.094C91.32 210.302 90.844 210.462 90.324 210.574C89.812 210.694 89.22 210.754 88.548 210.754C87.86 210.754 87.232 210.646 86.664 210.43C86.096 210.206 85.608 209.898 85.2 209.506C84.792 209.106 84.472 208.634 84.24 208.09C84.016 207.538 83.904 206.93 83.904 206.266C83.904 205.586 84.02 204.974 84.252 204.43C84.492 203.878 84.816 203.41 85.224 203.026C85.64 202.642 86.128 202.346 86.688 202.138C87.248 201.93 87.856 201.826 88.512 201.826C89.192 201.826 89.812 201.926 90.372 202.126C90.94 202.318 91.396 202.574 91.74 202.894L90.696 204.022C90.48 203.782 90.176 203.578 89.784 203.41C89.4 203.242 88.98 203.158 88.524 203.158C88.076 203.158 87.668 203.238 87.3 203.398C86.94 203.558 86.632 203.778 86.376 204.058C86.12 204.338 85.92 204.666 85.776 205.042C85.64 205.418 85.572 205.826 85.572 206.266C85.572 206.722 85.64 207.142 85.776 207.526C85.92 207.902 86.12 208.23 86.376 208.51C86.64 208.79 86.956 209.01 87.324 209.17C87.7 209.322 88.124 209.398 88.596 209.398C89.244 209.398 89.808 209.298 90.288 209.098V206.938H88.5V205.69H91.752V210.094ZM93.1852 207.634C93.1852 207.178 93.2652 206.766 93.4252 206.398C93.5932 206.022 93.8172 205.702 94.0972 205.438C94.3772 205.174 94.7092 204.97 95.0932 204.826C95.4772 204.682 95.8852 204.61 96.3172 204.61C96.7492 204.61 97.1572 204.682 97.5412 204.826C97.9252 204.97 98.2572 205.174 98.5372 205.438C98.8172 205.702 99.0372 206.022 99.1972 206.398C99.3652 206.766 99.4492 207.178 99.4492 207.634C99.4492 208.09 99.3652 208.506 99.1972 208.882C99.0372 209.258 98.8172 209.582 98.5372 209.854C98.2572 210.118 97.9252 210.326 97.5412 210.478C97.1572 210.63 96.7492 210.706 96.3172 210.706C95.8852 210.706 95.4772 210.63 95.0932 210.478C94.7092 210.326 94.3772 210.118 94.0972 209.854C93.8172 209.582 93.5932 209.258 93.4252 208.882C93.2652 208.506 93.1852 208.09 93.1852 207.634ZM94.6492 207.634C94.6492 207.858 94.6812 208.082 94.7452 208.306C94.8172 208.53 94.9212 208.73 95.0572 208.906C95.1932 209.082 95.3652 209.226 95.5732 209.338C95.7812 209.45 96.0292 209.506 96.3172 209.506C96.6052 209.506 96.8532 209.45 97.0612 209.338C97.2692 209.226 97.4412 209.082 97.5772 208.906C97.7132 208.73 97.8132 208.53 97.8772 208.306C97.9492 208.082 97.9852 207.858 97.9852 207.634C97.9852 207.41 97.9492 207.19 97.8772 206.974C97.8132 206.75 97.7132 206.55 97.5772 206.374C97.4412 206.198 97.2692 206.058 97.0612 205.954C96.8532 205.842 96.6052 205.786 96.3172 205.786C96.0292 205.786 95.7812 205.842 95.5732 205.954C95.3652 206.058 95.1932 206.198 95.0572 206.374C94.9212 206.55 94.8172 206.75 94.7452 206.974C94.6812 207.19 94.6492 207.41 94.6492 207.634ZM100.509 207.634C100.509 207.178 100.589 206.766 100.749 206.398C100.917 206.022 101.141 205.702 101.421 205.438C101.701 205.174 102.033 204.97 102.417 204.826C102.801 204.682 103.209 204.61 103.641 204.61C104.073 204.61 104.481 204.682 104.865 204.826C105.249 204.97 105.581 205.174 105.861 205.438C106.141 205.702 106.361 206.022 106.521 206.398C106.689 206.766 106.773 207.178 106.773 207.634C106.773 208.09 106.689 208.506 106.521 208.882C106.361 209.258 106.141 209.582 105.861 209.854C105.581 210.118 105.249 210.326 104.865 210.478C104.481 210.63 104.073 210.706 103.641 210.706C103.209 210.706 102.801 210.63 102.417 210.478C102.033 210.326 101.701 210.118 101.421 209.854C101.141 209.582 100.917 209.258 100.749 208.882C100.589 208.506 100.509 208.09 100.509 207.634ZM101.973 207.634C101.973 207.858 102.005 208.082 102.069 208.306C102.141 208.53 102.245 208.73 102.381 208.906C102.517 209.082 102.689 209.226 102.897 209.338C103.105 209.45 103.353 209.506 103.641 209.506C103.929 209.506 104.177 209.45 104.385 209.338C104.593 209.226 104.765 209.082 104.901 208.906C105.037 208.73 105.137 208.53 105.201 208.306C105.273 208.082 105.309 207.858 105.309 207.634C105.309 207.41 105.273 207.19 105.201 206.974C105.137 206.75 105.037 206.55 104.901 206.374C104.765 206.198 104.593 206.058 104.385 205.954C104.177 205.842 103.929 205.786 103.641 205.786C103.353 205.786 103.105 205.842 102.897 205.954C102.689 206.058 102.517 206.198 102.381 206.374C102.245 206.55 102.141 206.75 102.069 206.974C102.005 207.19 101.973 207.41 101.973 207.634ZM114.026 210.538H112.658V209.674H112.634C112.434 210.01 112.154 210.266 111.794 210.442C111.442 210.618 111.062 210.706 110.654 210.706C110.214 210.706 109.818 210.626 109.466 210.466C109.122 210.298 108.826 210.078 108.578 209.806C108.338 209.526 108.15 209.202 108.014 208.834C107.886 208.458 107.822 208.058 107.822 207.634C107.822 207.21 107.89 206.814 108.026 206.446C108.162 206.078 108.354 205.758 108.602 205.486C108.85 205.214 109.146 205.002 109.49 204.85C109.834 204.69 110.21 204.61 110.618 204.61C110.882 204.61 111.118 204.642 111.326 204.706C111.534 204.762 111.714 204.834 111.866 204.922C112.026 205.01 112.162 205.106 112.274 205.21C112.386 205.314 112.478 205.414 112.55 205.51H112.586V201.466H114.026V210.538ZM109.286 207.634C109.286 207.858 109.318 208.082 109.382 208.306C109.454 208.53 109.558 208.73 109.694 208.906C109.83 209.082 110.002 209.226 110.21 209.338C110.418 209.45 110.662 209.506 110.942 209.506C111.206 209.506 111.442 209.454 111.65 209.35C111.858 209.238 112.034 209.094 112.178 208.918C112.33 208.742 112.442 208.546 112.514 208.33C112.594 208.106 112.634 207.882 112.634 207.658C112.634 207.434 112.594 207.21 112.514 206.986C112.442 206.762 112.33 206.562 112.178 206.386C112.034 206.21 111.858 206.066 111.65 205.954C111.442 205.842 111.206 205.786 110.942 205.786C110.662 205.786 110.418 205.842 110.21 205.954C110.002 206.058 109.83 206.198 109.694 206.374C109.558 206.55 109.454 206.75 109.382 206.974C109.318 207.19 109.286 207.41 109.286 207.634ZM118.775 204.778H120.143V205.702H120.167C120.295 205.414 120.515 205.162 120.827 204.946C121.147 204.722 121.523 204.61 121.955 204.61C122.331 204.61 122.651 204.678 122.915 204.814C123.187 204.942 123.407 205.114 123.575 205.33C123.751 205.546 123.879 205.794 123.959 206.074C124.039 206.354 124.079 206.642 124.079 206.938V210.538H122.639V207.346C122.639 207.178 122.627 207.002 122.603 206.818C122.579 206.634 122.527 206.47 122.447 206.326C122.367 206.174 122.255 206.05 122.111 205.954C121.975 205.858 121.791 205.81 121.559 205.81C121.327 205.81 121.127 205.858 120.959 205.954C120.791 206.042 120.651 206.158 120.539 206.302C120.435 206.446 120.355 206.614 120.299 206.806C120.243 206.99 120.215 207.178 120.215 207.37V210.538H118.775V204.778ZM129.816 207.082C129.816 206.898 129.788 206.722 129.732 206.554C129.684 206.386 129.604 206.238 129.492 206.11C129.38 205.982 129.236 205.882 129.06 205.81C128.892 205.73 128.692 205.69 128.46 205.69C128.028 205.69 127.66 205.822 127.356 206.086C127.06 206.342 126.896 206.674 126.864 207.082H129.816ZM131.256 207.73C131.256 207.794 131.256 207.858 131.256 207.922C131.256 207.986 131.252 208.05 131.244 208.114H126.864C126.88 208.322 126.932 208.514 127.02 208.69C127.116 208.858 127.24 209.006 127.392 209.134C127.544 209.254 127.716 209.35 127.908 209.422C128.1 209.494 128.3 209.53 128.508 209.53C128.868 209.53 129.172 209.466 129.42 209.338C129.668 209.202 129.872 209.018 130.032 208.786L130.992 209.554C130.424 210.322 129.6 210.706 128.52 210.706C128.072 210.706 127.66 210.638 127.284 210.502C126.908 210.358 126.58 210.158 126.3 209.902C126.028 209.646 125.812 209.334 125.652 208.966C125.5 208.59 125.424 208.166 125.424 207.694C125.424 207.23 125.5 206.81 125.652 206.434C125.812 206.05 126.028 205.726 126.3 205.462C126.572 205.19 126.892 204.982 127.26 204.838C127.636 204.686 128.04 204.61 128.472 204.61C128.872 204.61 129.24 204.678 129.576 204.814C129.92 204.942 130.216 205.138 130.464 205.402C130.712 205.658 130.904 205.982 131.04 206.374C131.184 206.758 131.256 207.21 131.256 207.73ZM131.834 204.778H133.394L134.594 208.906H134.618L135.854 204.778H137.39L138.638 208.906H138.662L139.886 204.778H141.386L139.394 210.538H137.93L136.622 206.506H136.598L135.302 210.538H133.838L131.834 204.778ZM145.451 206.314C145.323 206.146 145.147 206.002 144.923 205.882C144.699 205.754 144.455 205.69 144.191 205.69C143.959 205.69 143.747 205.738 143.555 205.834C143.363 205.93 143.267 206.09 143.267 206.314C143.267 206.538 143.371 206.698 143.579 206.794C143.795 206.882 144.107 206.974 144.515 207.07C144.731 207.118 144.947 207.182 145.163 207.262C145.387 207.342 145.587 207.45 145.763 207.586C145.947 207.714 146.095 207.878 146.207 208.078C146.319 208.27 146.375 208.506 146.375 208.786C146.375 209.138 146.307 209.438 146.171 209.686C146.043 209.926 145.867 210.122 145.643 210.274C145.427 210.426 145.171 210.534 144.875 210.598C144.587 210.67 144.287 210.706 143.975 210.706C143.527 210.706 143.091 210.626 142.667 210.466C142.243 210.298 141.891 210.062 141.611 209.758L142.559 208.87C142.719 209.078 142.927 209.25 143.183 209.386C143.439 209.522 143.723 209.59 144.035 209.59C144.139 209.59 144.243 209.578 144.347 209.554C144.459 209.53 144.559 209.494 144.647 209.446C144.743 209.39 144.819 209.318 144.875 209.23C144.931 209.142 144.959 209.034 144.959 208.906C144.959 208.666 144.847 208.494 144.623 208.39C144.407 208.286 144.079 208.182 143.639 208.078C143.423 208.03 143.211 207.97 143.003 207.898C142.803 207.818 142.623 207.718 142.463 207.598C142.303 207.47 142.175 207.314 142.079 207.13C141.983 206.946 141.935 206.718 141.935 206.446C141.935 206.126 141.999 205.85 142.127 205.618C142.263 205.386 142.439 205.198 142.655 205.054C142.871 204.902 143.115 204.79 143.387 204.718C143.659 204.646 143.939 204.61 144.227 204.61C144.643 204.61 145.047 204.682 145.439 204.826C145.839 204.97 146.155 205.19 146.387 205.486L145.451 206.314ZM149.523 207.874H148.083V202.042H149.523V207.874ZM147.843 209.698C147.843 209.442 147.935 209.222 148.119 209.038C148.311 208.854 148.539 208.762 148.803 208.762C149.059 208.762 149.283 208.85 149.475 209.026C149.667 209.202 149.763 209.418 149.763 209.674C149.763 209.93 149.667 210.15 149.475 210.334C149.291 210.518 149.067 210.61 148.803 210.61C148.675 210.61 148.551 210.586 148.431 210.538C148.319 210.49 148.219 210.426 148.131 210.346C148.043 210.266 147.971 210.17 147.915 210.058C147.867 209.946 147.843 209.826 147.843 209.698ZM154.777 202.042H156.289V205.474H160.261V202.042H161.773V210.538H160.261V206.77H156.289V210.538H154.777V202.042ZM167.632 207.082C167.632 206.898 167.604 206.722 167.548 206.554C167.5 206.386 167.42 206.238 167.308 206.11C167.196 205.982 167.052 205.882 166.876 205.81C166.708 205.73 166.508 205.69 166.276 205.69C165.844 205.69 165.476 205.822 165.172 206.086C164.876 206.342 164.712 206.674 164.68 207.082H167.632ZM169.072 207.73C169.072 207.794 169.072 207.858 169.072 207.922C169.072 207.986 169.068 208.05 169.06 208.114H164.68C164.696 208.322 164.748 208.514 164.836 208.69C164.932 208.858 165.056 209.006 165.208 209.134C165.36 209.254 165.532 209.35 165.724 209.422C165.916 209.494 166.116 209.53 166.324 209.53C166.684 209.53 166.988 209.466 167.236 209.338C167.484 209.202 167.688 209.018 167.848 208.786L168.808 209.554C168.24 210.322 167.416 210.706 166.336 210.706C165.888 210.706 165.476 210.638 165.1 210.502C164.724 210.358 164.396 210.158 164.116 209.902C163.844 209.646 163.628 209.334 163.468 208.966C163.316 208.59 163.24 208.166 163.24 207.694C163.24 207.23 163.316 206.81 163.468 206.434C163.628 206.05 163.844 205.726 164.116 205.462C164.388 205.19 164.708 204.982 165.076 204.838C165.452 204.686 165.856 204.61 166.288 204.61C166.688 204.61 167.056 204.678 167.392 204.814C167.736 204.942 168.032 205.138 168.28 205.402C168.528 205.658 168.72 205.982 168.856 206.374C169 206.758 169.072 207.21 169.072 207.73ZM170.467 204.778H171.847V205.738H171.871C172.031 205.402 172.255 205.13 172.543 204.922C172.831 204.714 173.167 204.61 173.551 204.61C173.607 204.61 173.667 204.614 173.731 204.622C173.795 204.622 173.851 204.63 173.899 204.646V205.966C173.803 205.942 173.719 205.926 173.647 205.918C173.583 205.91 173.519 205.906 173.455 205.906C173.127 205.906 172.863 205.966 172.663 206.086C172.463 206.206 172.307 206.35 172.195 206.518C172.083 206.686 172.007 206.858 171.967 207.034C171.927 207.21 171.907 207.35 171.907 207.454V210.538H170.467V204.778ZM178.683 207.082C178.683 206.898 178.655 206.722 178.599 206.554C178.551 206.386 178.471 206.238 178.359 206.11C178.247 205.982 178.103 205.882 177.927 205.81C177.759 205.73 177.559 205.69 177.327 205.69C176.895 205.69 176.527 205.822 176.223 206.086C175.927 206.342 175.763 206.674 175.731 207.082H178.683ZM180.123 207.73C180.123 207.794 180.123 207.858 180.123 207.922C180.123 207.986 180.119 208.05 180.111 208.114H175.731C175.747 208.322 175.799 208.514 175.887 208.69C175.983 208.858 176.107 209.006 176.259 209.134C176.411 209.254 176.583 209.35 176.775 209.422C176.967 209.494 177.167 209.53 177.375 209.53C177.735 209.53 178.039 209.466 178.287 209.338C178.535 209.202 178.739 209.018 178.899 208.786L179.859 209.554C179.291 210.322 178.467 210.706 177.387 210.706C176.939 210.706 176.527 210.638 176.151 210.502C175.775 210.358 175.447 210.158 175.167 209.902C174.895 209.646 174.679 209.334 174.519 208.966C174.367 208.59 174.291 208.166 174.291 207.694C174.291 207.23 174.367 206.81 174.519 206.434C174.679 206.05 174.895 205.726 175.167 205.462C175.439 205.19 175.759 204.982 176.127 204.838C176.503 204.686 176.907 204.61 177.339 204.61C177.739 204.61 178.107 204.678 178.443 204.814C178.787 204.942 179.083 205.138 179.331 205.402C179.579 205.658 179.771 205.982 179.907 206.374C180.051 206.758 180.123 207.21 180.123 207.73ZM184.541 204.778H185.981V210.538H184.541V204.778ZM184.337 202.822C184.337 202.59 184.421 202.39 184.589 202.222C184.765 202.046 184.985 201.958 185.249 201.958C185.513 201.958 185.733 202.042 185.909 202.21C186.093 202.37 186.185 202.574 186.185 202.822C186.185 203.07 186.093 203.278 185.909 203.446C185.733 203.606 185.513 203.686 185.249 203.686C184.985 203.686 184.765 203.602 184.589 203.434C184.421 203.258 184.337 203.054 184.337 202.822ZM190.884 206.314C190.756 206.146 190.58 206.002 190.356 205.882C190.132 205.754 189.888 205.69 189.624 205.69C189.392 205.69 189.18 205.738 188.988 205.834C188.796 205.93 188.7 206.09 188.7 206.314C188.7 206.538 188.804 206.698 189.012 206.794C189.228 206.882 189.54 206.974 189.948 207.07C190.164 207.118 190.38 207.182 190.596 207.262C190.82 207.342 191.02 207.45 191.196 207.586C191.38 207.714 191.528 207.878 191.64 208.078C191.752 208.27 191.808 208.506 191.808 208.786C191.808 209.138 191.74 209.438 191.604 209.686C191.476 209.926 191.3 210.122 191.076 210.274C190.86 210.426 190.604 210.534 190.308 210.598C190.02 210.67 189.72 210.706 189.408 210.706C188.96 210.706 188.524 210.626 188.1 210.466C187.676 210.298 187.324 210.062 187.044 209.758L187.992 208.87C188.152 209.078 188.36 209.25 188.616 209.386C188.872 209.522 189.156 209.59 189.468 209.59C189.572 209.59 189.676 209.578 189.78 209.554C189.892 209.53 189.992 209.494 190.08 209.446C190.176 209.39 190.252 209.318 190.308 209.23C190.364 209.142 190.392 209.034 190.392 208.906C190.392 208.666 190.28 208.494 190.056 208.39C189.84 208.286 189.512 208.182 189.072 208.078C188.856 208.03 188.644 207.97 188.436 207.898C188.236 207.818 188.056 207.718 187.896 207.598C187.736 207.47 187.608 207.314 187.512 207.13C187.416 206.946 187.368 206.718 187.368 206.446C187.368 206.126 187.432 205.85 187.56 205.618C187.696 205.386 187.872 205.198 188.088 205.054C188.304 204.902 188.548 204.79 188.82 204.718C189.092 204.646 189.372 204.61 189.66 204.61C190.076 204.61 190.48 204.682 190.872 204.826C191.272 204.97 191.588 205.19 191.82 205.486L190.884 206.314ZM199.264 204.61C199.64 204.61 199.96 204.678 200.224 204.814C200.496 204.942 200.716 205.114 200.884 205.33C201.06 205.546 201.188 205.794 201.268 206.074C201.348 206.354 201.388 206.642 201.388 206.938V210.538H199.948V207.37C199.948 207.202 199.936 207.03 199.912 206.854C199.888 206.67 199.836 206.506 199.756 206.362C199.684 206.21 199.576 206.086 199.432 205.99C199.296 205.894 199.112 205.846 198.88 205.846C198.648 205.846 198.448 205.89 198.28 205.978C198.112 206.066 197.972 206.186 197.86 206.338C197.748 206.482 197.664 206.646 197.608 206.83C197.552 207.014 197.524 207.202 197.524 207.394V210.538H196.084V201.466H197.524V205.582H197.548C197.604 205.462 197.684 205.346 197.788 205.234C197.9 205.114 198.028 205.01 198.172 204.922C198.316 204.826 198.48 204.75 198.664 204.694C198.848 204.638 199.048 204.61 199.264 204.61ZM206.644 209.806H206.608C206.464 210.062 206.232 210.274 205.912 210.442C205.592 210.602 205.228 210.682 204.82 210.682C204.588 210.682 204.344 210.65 204.088 210.586C203.84 210.53 203.608 210.434 203.392 210.298C203.184 210.154 203.008 209.97 202.864 209.746C202.728 209.514 202.66 209.23 202.66 208.894C202.66 208.462 202.78 208.118 203.02 207.862C203.268 207.606 203.584 207.41 203.968 207.274C204.352 207.138 204.776 207.05 205.24 207.01C205.712 206.962 206.172 206.938 206.62 206.938V206.794C206.62 206.434 206.488 206.17 206.224 206.002C205.968 205.826 205.66 205.738 205.3 205.738C204.996 205.738 204.704 205.802 204.424 205.93C204.144 206.058 203.912 206.214 203.728 206.398L202.984 205.522C203.312 205.218 203.688 204.99 204.112 204.838C204.544 204.686 204.98 204.61 205.42 204.61C205.932 204.61 206.352 204.682 206.68 204.826C207.016 204.97 207.28 205.158 207.472 205.39C207.664 205.622 207.796 205.882 207.868 206.17C207.948 206.458 207.988 206.746 207.988 207.034V210.538H206.644V209.806ZM206.62 207.91H206.296C206.064 207.91 205.82 207.922 205.564 207.946C205.308 207.962 205.072 208.006 204.856 208.078C204.64 208.142 204.46 208.238 204.316 208.366C204.172 208.486 204.1 208.654 204.1 208.87C204.1 209.006 204.128 209.122 204.184 209.218C204.248 209.306 204.328 209.378 204.424 209.434C204.52 209.49 204.628 209.53 204.748 209.554C204.868 209.578 204.988 209.59 205.108 209.59C205.604 209.59 205.98 209.458 206.236 209.194C206.492 208.93 206.62 208.57 206.62 208.114V207.91ZM209.69 201.466H211.13V210.538H209.69V201.466ZM213.105 205.93H212.013V204.778H213.105V203.926C213.105 203.582 213.141 203.254 213.213 202.942C213.293 202.622 213.421 202.342 213.597 202.102C213.781 201.862 214.021 201.674 214.317 201.538C214.613 201.394 214.985 201.322 215.433 201.322C215.593 201.322 215.725 201.33 215.829 201.346C215.941 201.354 216.053 201.374 216.165 201.406L216.069 202.63C215.989 202.606 215.901 202.586 215.805 202.57C215.717 202.554 215.621 202.546 215.517 202.546C215.309 202.546 215.141 202.586 215.013 202.666C214.885 202.746 214.785 202.85 214.713 202.978C214.649 203.106 214.605 203.246 214.581 203.398C214.557 203.55 214.545 203.698 214.545 203.842V204.778H215.877V205.93H214.545V210.538H213.105V205.93ZM223.636 209.806H223.6C223.456 210.062 223.224 210.274 222.904 210.442C222.584 210.602 222.22 210.682 221.812 210.682C221.58 210.682 221.336 210.65 221.08 210.586C220.832 210.53 220.6 210.434 220.384 210.298C220.176 210.154 220 209.97 219.856 209.746C219.72 209.514 219.652 209.23 219.652 208.894C219.652 208.462 219.772 208.118 220.012 207.862C220.26 207.606 220.576 207.41 220.96 207.274C221.344 207.138 221.768 207.05 222.232 207.01C222.704 206.962 223.164 206.938 223.612 206.938V206.794C223.612 206.434 223.48 206.17 223.216 206.002C222.96 205.826 222.652 205.738 222.292 205.738C221.988 205.738 221.696 205.802 221.416 205.93C221.136 206.058 220.904 206.214 220.72 206.398L219.976 205.522C220.304 205.218 220.68 204.99 221.104 204.838C221.536 204.686 221.972 204.61 222.412 204.61C222.924 204.61 223.344 204.682 223.672 204.826C224.008 204.97 224.272 205.158 224.464 205.39C224.656 205.622 224.788 205.882 224.86 206.17C224.94 206.458 224.98 206.746 224.98 207.034V210.538H223.636V209.806ZM223.612 207.91H223.288C223.056 207.91 222.812 207.922 222.556 207.946C222.3 207.962 222.064 208.006 221.848 208.078C221.632 208.142 221.452 208.238 221.308 208.366C221.164 208.486 221.092 208.654 221.092 208.87C221.092 209.006 221.12 209.122 221.176 209.218C221.24 209.306 221.32 209.378 221.416 209.434C221.512 209.49 221.62 209.53 221.74 209.554C221.86 209.578 221.98 209.59 222.1 209.59C222.596 209.59 222.972 209.458 223.228 209.194C223.484 208.93 223.612 208.57 223.612 208.114V207.91ZM91.116 220.61C91.492 220.61 91.812 220.678 92.076 220.814C92.348 220.942 92.568 221.114 92.736 221.33C92.912 221.546 93.04 221.794 93.12 222.074C93.2 222.354 93.24 222.642 93.24 222.938V226.538H91.8V223.346C91.8 223.178 91.788 223.002 91.764 222.818C91.74 222.634 91.688 222.47 91.608 222.326C91.528 222.174 91.416 222.05 91.272 221.954C91.136 221.858 90.952 221.81 90.72 221.81C90.496 221.81 90.304 221.858 90.144 221.954C89.984 222.05 89.852 222.174 89.748 222.326C89.644 222.478 89.568 222.65 89.52 222.842C89.472 223.026 89.448 223.21 89.448 223.394V226.538H88.008V223.058C88.008 222.698 87.92 222.402 87.744 222.17C87.576 221.93 87.308 221.81 86.94 221.81C86.724 221.81 86.536 221.858 86.376 221.954C86.216 222.042 86.084 222.158 85.98 222.302C85.884 222.446 85.808 222.614 85.752 222.806C85.704 222.99 85.68 223.178 85.68 223.37V226.538H84.24V220.778H85.608V221.702H85.632C85.696 221.558 85.78 221.422 85.884 221.294C85.996 221.166 86.124 221.05 86.268 220.946C86.42 220.842 86.592 220.762 86.784 220.706C86.976 220.642 87.188 220.61 87.42 220.61C87.868 220.61 88.24 220.71 88.536 220.91C88.832 221.11 89.06 221.374 89.22 221.702C89.412 221.35 89.668 221.082 89.988 220.898C90.308 220.706 90.684 220.61 91.116 220.61ZM94.5798 223.634C94.5798 223.178 94.6598 222.766 94.8198 222.398C94.9878 222.022 95.2118 221.702 95.4918 221.438C95.7718 221.174 96.1038 220.97 96.4878 220.826C96.8718 220.682 97.2798 220.61 97.7118 220.61C98.1438 220.61 98.5518 220.682 98.9358 220.826C99.3198 220.97 99.6518 221.174 99.9318 221.438C100.212 221.702 100.432 222.022 100.592 222.398C100.76 222.766 100.844 223.178 100.844 223.634C100.844 224.09 100.76 224.506 100.592 224.882C100.432 225.258 100.212 225.582 99.9318 225.854C99.6518 226.118 99.3198 226.326 98.9358 226.478C98.5518 226.63 98.1438 226.706 97.7118 226.706C97.2798 226.706 96.8718 226.63 96.4878 226.478C96.1038 226.326 95.7718 226.118 95.4918 225.854C95.2118 225.582 94.9878 225.258 94.8198 224.882C94.6598 224.506 94.5798 224.09 94.5798 223.634ZM96.0438 223.634C96.0438 223.858 96.0758 224.082 96.1398 224.306C96.2118 224.53 96.3158 224.73 96.4518 224.906C96.5878 225.082 96.7598 225.226 96.9678 225.338C97.1758 225.45 97.4238 225.506 97.7118 225.506C97.9998 225.506 98.2478 225.45 98.4558 225.338C98.6638 225.226 98.8358 225.082 98.9718 224.906C99.1078 224.73 99.2078 224.53 99.2718 224.306C99.3438 224.082 99.3798 223.858 99.3798 223.634C99.3798 223.41 99.3438 223.19 99.2718 222.974C99.2078 222.75 99.1078 222.55 98.9718 222.374C98.8358 222.198 98.6638 222.058 98.4558 221.954C98.2478 221.842 97.9998 221.786 97.7118 221.786C97.4238 221.786 97.1758 221.842 96.9678 221.954C96.7598 222.058 96.5878 222.198 96.4518 222.374C96.3158 222.55 96.2118 222.75 96.1398 222.974C96.0758 223.19 96.0438 223.41 96.0438 223.634ZM102.24 220.778H103.608V221.702H103.632C103.76 221.414 103.98 221.162 104.292 220.946C104.612 220.722 104.988 220.61 105.42 220.61C105.796 220.61 106.116 220.678 106.38 220.814C106.652 220.942 106.872 221.114 107.04 221.33C107.216 221.546 107.344 221.794 107.424 222.074C107.504 222.354 107.544 222.642 107.544 222.938V226.538H106.104V223.346C106.104 223.178 106.092 223.002 106.068 222.818C106.044 222.634 105.992 222.47 105.912 222.326C105.832 222.174 105.72 222.05 105.576 221.954C105.44 221.858 105.256 221.81 105.024 221.81C104.792 221.81 104.592 221.858 104.424 221.954C104.256 222.042 104.116 222.158 104.004 222.302C103.9 222.446 103.82 222.614 103.764 222.806C103.708 222.99 103.68 223.178 103.68 223.37V226.538H102.24V220.778ZM108.396 221.93V220.778H109.404V219.11H110.82V220.778H112.26V221.93H110.82V224.606C110.82 224.862 110.864 225.074 110.952 225.242C111.048 225.41 111.256 225.494 111.576 225.494C111.672 225.494 111.776 225.486 111.888 225.47C112 225.446 112.1 225.414 112.188 225.374L112.236 226.502C112.108 226.55 111.956 226.586 111.78 226.61C111.604 226.642 111.436 226.658 111.276 226.658C110.892 226.658 110.58 226.606 110.34 226.502C110.1 226.39 109.908 226.242 109.764 226.058C109.628 225.866 109.532 225.65 109.476 225.41C109.428 225.162 109.404 224.898 109.404 224.618V221.93H108.396ZM116.506 220.61C116.882 220.61 117.202 220.678 117.466 220.814C117.738 220.942 117.958 221.114 118.126 221.33C118.302 221.546 118.43 221.794 118.51 222.074C118.59 222.354 118.63 222.642 118.63 222.938V226.538H117.19V223.37C117.19 223.202 117.178 223.03 117.154 222.854C117.13 222.67 117.078 222.506 116.998 222.362C116.926 222.21 116.818 222.086 116.674 221.99C116.538 221.894 116.354 221.846 116.122 221.846C115.89 221.846 115.69 221.89 115.522 221.978C115.354 222.066 115.214 222.186 115.102 222.338C114.99 222.482 114.906 222.646 114.85 222.83C114.794 223.014 114.766 223.202 114.766 223.394V226.538H113.326V217.466H114.766V221.582H114.79C114.846 221.462 114.926 221.346 115.03 221.234C115.142 221.114 115.27 221.01 115.414 220.922C115.558 220.826 115.722 220.75 115.906 220.694C116.09 220.638 116.29 220.61 116.506 220.61ZM122.974 223.634C122.974 223.178 123.054 222.766 123.214 222.398C123.382 222.022 123.606 221.702 123.886 221.438C124.166 221.174 124.498 220.97 124.882 220.826C125.266 220.682 125.674 220.61 126.106 220.61C126.538 220.61 126.946 220.682 127.33 220.826C127.714 220.97 128.046 221.174 128.326 221.438C128.606 221.702 128.826 222.022 128.986 222.398C129.154 222.766 129.238 223.178 129.238 223.634C129.238 224.09 129.154 224.506 128.986 224.882C128.826 225.258 128.606 225.582 128.326 225.854C128.046 226.118 127.714 226.326 127.33 226.478C126.946 226.63 126.538 226.706 126.106 226.706C125.674 226.706 125.266 226.63 124.882 226.478C124.498 226.326 124.166 226.118 123.886 225.854C123.606 225.582 123.382 225.258 123.214 224.882C123.054 224.506 122.974 224.09 122.974 223.634ZM124.438 223.634C124.438 223.858 124.47 224.082 124.534 224.306C124.606 224.53 124.71 224.73 124.846 224.906C124.982 225.082 125.154 225.226 125.362 225.338C125.57 225.45 125.818 225.506 126.106 225.506C126.394 225.506 126.642 225.45 126.85 225.338C127.058 225.226 127.23 225.082 127.366 224.906C127.502 224.73 127.602 224.53 127.666 224.306C127.738 224.082 127.774 223.858 127.774 223.634C127.774 223.41 127.738 223.19 127.666 222.974C127.602 222.75 127.502 222.55 127.366 222.374C127.23 222.198 127.058 222.058 126.85 221.954C126.642 221.842 126.394 221.786 126.106 221.786C125.818 221.786 125.57 221.842 125.362 221.954C125.154 222.058 124.982 222.198 124.846 222.374C124.71 222.55 124.606 222.75 124.534 222.974C124.47 223.19 124.438 223.41 124.438 223.634ZM130.863 221.93H129.771V220.778H130.863V219.926C130.863 219.582 130.899 219.254 130.971 218.942C131.051 218.622 131.179 218.342 131.355 218.102C131.539 217.862 131.779 217.674 132.075 217.538C132.371 217.394 132.743 217.322 133.191 217.322C133.351 217.322 133.483 217.33 133.587 217.346C133.699 217.354 133.811 217.374 133.923 217.406L133.827 218.63C133.747 218.606 133.659 218.586 133.563 218.57C133.475 218.554 133.379 218.546 133.275 218.546C133.067 218.546 132.899 218.586 132.771 218.666C132.643 218.746 132.543 218.85 132.471 218.978C132.407 219.106 132.363 219.246 132.339 219.398C132.315 219.55 132.303 219.698 132.303 219.842V220.778H133.635V221.93H132.303V226.538H130.863V221.93ZM138.046 221.93H136.954V220.778H138.046V219.926C138.046 219.582 138.082 219.254 138.154 218.942C138.234 218.622 138.362 218.342 138.538 218.102C138.722 217.862 138.962 217.674 139.258 217.538C139.554 217.394 139.926 217.322 140.374 217.322C140.534 217.322 140.666 217.33 140.77 217.346C140.882 217.354 140.994 217.374 141.106 217.406L141.01 218.63C140.93 218.606 140.842 218.586 140.746 218.57C140.658 218.554 140.562 218.546 140.458 218.546C140.25 218.546 140.082 218.586 139.954 218.666C139.826 218.746 139.726 218.85 139.654 218.978C139.59 219.106 139.546 219.246 139.522 219.398C139.498 219.55 139.486 219.698 139.486 219.842V220.778H140.818V221.93H139.486V226.538H138.046V221.93ZM141.709 220.778H143.089V221.738H143.113C143.273 221.402 143.497 221.13 143.785 220.922C144.073 220.714 144.409 220.61 144.793 220.61C144.849 220.61 144.909 220.614 144.973 220.622C145.037 220.622 145.093 220.63 145.141 220.646V221.966C145.045 221.942 144.961 221.926 144.889 221.918C144.825 221.91 144.761 221.906 144.697 221.906C144.369 221.906 144.105 221.966 143.905 222.086C143.705 222.206 143.549 222.35 143.437 222.518C143.325 222.686 143.249 222.858 143.209 223.034C143.169 223.21 143.149 223.35 143.149 223.454V226.538H141.709V220.778ZM149.925 223.082C149.925 222.898 149.897 222.722 149.841 222.554C149.793 222.386 149.713 222.238 149.601 222.11C149.489 221.982 149.345 221.882 149.169 221.81C149.001 221.73 148.801 221.69 148.569 221.69C148.137 221.69 147.769 221.822 147.465 222.086C147.169 222.342 147.005 222.674 146.973 223.082H149.925ZM151.365 223.73C151.365 223.794 151.365 223.858 151.365 223.922C151.365 223.986 151.361 224.05 151.353 224.114H146.973C146.989 224.322 147.041 224.514 147.129 224.69C147.225 224.858 147.349 225.006 147.501 225.134C147.653 225.254 147.825 225.35 148.017 225.422C148.209 225.494 148.409 225.53 148.617 225.53C148.977 225.53 149.281 225.466 149.529 225.338C149.777 225.202 149.981 225.018 150.141 224.786L151.101 225.554C150.533 226.322 149.709 226.706 148.629 226.706C148.181 226.706 147.769 226.638 147.393 226.502C147.017 226.358 146.689 226.158 146.409 225.902C146.137 225.646 145.921 225.334 145.761 224.966C145.609 224.59 145.533 224.166 145.533 223.694C145.533 223.23 145.609 222.81 145.761 222.434C145.921 222.05 146.137 221.726 146.409 221.462C146.681 221.19 147.001 220.982 147.369 220.838C147.745 220.686 148.149 220.61 148.581 220.61C148.981 220.61 149.349 220.678 149.685 220.814C150.029 220.942 150.325 221.138 150.573 221.402C150.821 221.658 151.013 221.982 151.149 222.374C151.293 222.758 151.365 223.21 151.365 223.73ZM156.816 223.082C156.816 222.898 156.788 222.722 156.732 222.554C156.684 222.386 156.604 222.238 156.492 222.11C156.38 221.982 156.236 221.882 156.06 221.81C155.892 221.73 155.692 221.69 155.46 221.69C155.028 221.69 154.66 221.822 154.356 222.086C154.06 222.342 153.896 222.674 153.864 223.082H156.816ZM158.256 223.73C158.256 223.794 158.256 223.858 158.256 223.922C158.256 223.986 158.252 224.05 158.244 224.114H153.864C153.88 224.322 153.932 224.514 154.02 224.69C154.116 224.858 154.24 225.006 154.392 225.134C154.544 225.254 154.716 225.35 154.908 225.422C155.1 225.494 155.3 225.53 155.508 225.53C155.868 225.53 156.172 225.466 156.42 225.338C156.668 225.202 156.872 225.018 157.032 224.786L157.992 225.554C157.424 226.322 156.6 226.706 155.52 226.706C155.072 226.706 154.66 226.638 154.284 226.502C153.908 226.358 153.58 226.158 153.3 225.902C153.028 225.646 152.812 225.334 152.652 224.966C152.5 224.59 152.424 224.166 152.424 223.694C152.424 223.23 152.5 222.81 152.652 222.434C152.812 222.05 153.028 221.726 153.3 221.462C153.572 221.19 153.892 220.982 154.26 220.838C154.636 220.686 155.04 220.61 155.472 220.61C155.872 220.61 156.24 220.678 156.576 220.814C156.92 220.942 157.216 221.138 157.464 221.402C157.712 221.658 157.904 221.982 158.04 222.374C158.184 222.758 158.256 223.21 158.256 223.73ZM166.586 222.374C166.474 222.214 166.306 222.082 166.082 221.978C165.858 221.866 165.63 221.81 165.398 221.81C165.134 221.81 164.902 221.866 164.702 221.978C164.502 222.082 164.334 222.222 164.198 222.398C164.07 222.574 163.974 222.774 163.91 222.998C163.846 223.214 163.814 223.434 163.814 223.658C163.814 223.882 163.846 224.106 163.91 224.33C163.982 224.546 164.086 224.742 164.222 224.918C164.358 225.094 164.526 225.238 164.726 225.35C164.934 225.454 165.174 225.506 165.446 225.506C165.67 225.506 165.894 225.462 166.118 225.374C166.342 225.286 166.522 225.158 166.658 224.99L167.558 225.902C167.318 226.158 167.01 226.358 166.634 226.502C166.266 226.638 165.866 226.706 165.434 226.706C165.01 226.706 164.606 226.638 164.222 226.502C163.846 226.366 163.514 226.166 163.226 225.902C162.946 225.638 162.722 225.318 162.554 224.942C162.394 224.566 162.314 224.138 162.314 223.658C162.314 223.194 162.394 222.774 162.554 222.398C162.722 222.022 162.946 221.702 163.226 221.438C163.506 221.174 163.83 220.97 164.198 220.826C164.574 220.682 164.974 220.61 165.398 220.61C165.822 220.61 166.23 220.69 166.622 220.85C167.022 221.01 167.338 221.23 167.57 221.51L166.586 222.374ZM172.086 225.806H172.05C171.906 226.062 171.674 226.274 171.354 226.442C171.034 226.602 170.67 226.682 170.262 226.682C170.03 226.682 169.786 226.65 169.53 226.586C169.282 226.53 169.05 226.434 168.834 226.298C168.626 226.154 168.45 225.97 168.306 225.746C168.17 225.514 168.102 225.23 168.102 224.894C168.102 224.462 168.222 224.118 168.462 223.862C168.71 223.606 169.026 223.41 169.41 223.274C169.794 223.138 170.218 223.05 170.682 223.01C171.154 222.962 171.614 222.938 172.062 222.938V222.794C172.062 222.434 171.93 222.17 171.666 222.002C171.41 221.826 171.102 221.738 170.742 221.738C170.438 221.738 170.146 221.802 169.866 221.93C169.586 222.058 169.354 222.214 169.17 222.398L168.426 221.522C168.754 221.218 169.13 220.99 169.554 220.838C169.986 220.686 170.422 220.61 170.862 220.61C171.374 220.61 171.794 220.682 172.122 220.826C172.458 220.97 172.722 221.158 172.914 221.39C173.106 221.622 173.238 221.882 173.31 222.17C173.39 222.458 173.43 222.746 173.43 223.034V226.538H172.086V225.806ZM172.062 223.91H171.738C171.506 223.91 171.262 223.922 171.006 223.946C170.75 223.962 170.514 224.006 170.298 224.078C170.082 224.142 169.902 224.238 169.758 224.366C169.614 224.486 169.542 224.654 169.542 224.87C169.542 225.006 169.57 225.122 169.626 225.218C169.69 225.306 169.77 225.378 169.866 225.434C169.962 225.49 170.07 225.53 170.19 225.554C170.31 225.578 170.43 225.59 170.55 225.59C171.046 225.59 171.422 225.458 171.678 225.194C171.934 224.93 172.062 224.57 172.062 224.114V223.91ZM175.107 220.778H176.487V221.738H176.511C176.671 221.402 176.895 221.13 177.183 220.922C177.471 220.714 177.807 220.61 178.191 220.61C178.247 220.61 178.307 220.614 178.371 220.622C178.435 220.622 178.491 220.63 178.539 220.646V221.966C178.443 221.942 178.359 221.926 178.287 221.918C178.223 221.91 178.159 221.906 178.095 221.906C177.767 221.906 177.503 221.966 177.303 222.086C177.103 222.206 176.947 222.35 176.835 222.518C176.723 222.686 176.647 222.858 176.607 223.034C176.567 223.21 176.547 223.35 176.547 223.454V226.538H175.107V220.778ZM181.662 220.778H183.222L184.422 224.906H184.446L185.682 220.778H187.218L188.466 224.906H188.49L189.714 220.778H191.214L189.222 226.538H187.758L186.45 222.506H186.426L185.13 226.538H183.666L181.662 220.778ZM195.699 225.806H195.663C195.519 226.062 195.287 226.274 194.967 226.442C194.647 226.602 194.283 226.682 193.875 226.682C193.643 226.682 193.399 226.65 193.143 226.586C192.895 226.53 192.663 226.434 192.447 226.298C192.239 226.154 192.063 225.97 191.919 225.746C191.783 225.514 191.715 225.23 191.715 224.894C191.715 224.462 191.835 224.118 192.075 223.862C192.323 223.606 192.639 223.41 193.023 223.274C193.407 223.138 193.831 223.05 194.295 223.01C194.767 222.962 195.227 222.938 195.675 222.938V222.794C195.675 222.434 195.543 222.17 195.279 222.002C195.023 221.826 194.715 221.738 194.355 221.738C194.051 221.738 193.759 221.802 193.479 221.93C193.199 222.058 192.967 222.214 192.783 222.398L192.039 221.522C192.367 221.218 192.743 220.99 193.167 220.838C193.599 220.686 194.035 220.61 194.475 220.61C194.987 220.61 195.407 220.682 195.735 220.826C196.071 220.97 196.335 221.158 196.527 221.39C196.719 221.622 196.851 221.882 196.923 222.17C197.003 222.458 197.043 222.746 197.043 223.034V226.538H195.699V225.806ZM195.675 223.91H195.351C195.119 223.91 194.875 223.922 194.619 223.946C194.363 223.962 194.127 224.006 193.911 224.078C193.695 224.142 193.515 224.238 193.371 224.366C193.227 224.486 193.155 224.654 193.155 224.87C193.155 225.006 193.183 225.122 193.239 225.218C193.303 225.306 193.383 225.378 193.479 225.434C193.575 225.49 193.683 225.53 193.803 225.554C193.923 225.578 194.043 225.59 194.163 225.59C194.659 225.59 195.035 225.458 195.291 225.194C195.547 224.93 195.675 224.57 195.675 224.114V223.91ZM201.876 222.314C201.748 222.146 201.572 222.002 201.348 221.882C201.124 221.754 200.88 221.69 200.616 221.69C200.384 221.69 200.172 221.738 199.98 221.834C199.788 221.93 199.692 222.09 199.692 222.314C199.692 222.538 199.796 222.698 200.004 222.794C200.22 222.882 200.532 222.974 200.94 223.07C201.156 223.118 201.372 223.182 201.588 223.262C201.812 223.342 202.012 223.45 202.188 223.586C202.372 223.714 202.52 223.878 202.632 224.078C202.744 224.27 202.8 224.506 202.8 224.786C202.8 225.138 202.732 225.438 202.596 225.686C202.468 225.926 202.292 226.122 202.068 226.274C201.852 226.426 201.596 226.534 201.3 226.598C201.012 226.67 200.712 226.706 200.4 226.706C199.952 226.706 199.516 226.626 199.092 226.466C198.668 226.298 198.316 226.062 198.036 225.758L198.984 224.87C199.144 225.078 199.352 225.25 199.608 225.386C199.864 225.522 200.148 225.59 200.46 225.59C200.564 225.59 200.668 225.578 200.772 225.554C200.884 225.53 200.984 225.494 201.072 225.446C201.168 225.39 201.244 225.318 201.3 225.23C201.356 225.142 201.384 225.034 201.384 224.906C201.384 224.666 201.272 224.494 201.048 224.39C200.832 224.286 200.504 224.182 200.064 224.078C199.848 224.03 199.636 223.97 199.428 223.898C199.228 223.818 199.048 223.718 198.888 223.598C198.728 223.47 198.6 223.314 198.504 223.13C198.408 222.946 198.36 222.718 198.36 222.446C198.36 222.126 198.424 221.85 198.552 221.618C198.688 221.386 198.864 221.198 199.08 221.054C199.296 220.902 199.54 220.79 199.812 220.718C200.084 220.646 200.364 220.61 200.652 220.61C201.068 220.61 201.472 220.682 201.864 220.826C202.264 220.97 202.58 221.19 202.812 221.486L201.876 222.314ZM207.256 220.61C207.632 220.61 207.952 220.678 208.216 220.814C208.488 220.942 208.708 221.114 208.876 221.33C209.052 221.546 209.18 221.794 209.26 222.074C209.34 222.354 209.38 222.642 209.38 222.938V226.538H207.94V223.37C207.94 223.202 207.928 223.03 207.904 222.854C207.88 222.67 207.828 222.506 207.748 222.362C207.676 222.21 207.568 222.086 207.424 221.99C207.288 221.894 207.104 221.846 206.872 221.846C206.64 221.846 206.44 221.89 206.272 221.978C206.104 222.066 205.964 222.186 205.852 222.338C205.74 222.482 205.656 222.646 205.6 222.83C205.544 223.014 205.516 223.202 205.516 223.394V226.538H204.076V217.466H205.516V221.582H205.54C205.596 221.462 205.676 221.346 205.78 221.234C205.892 221.114 206.02 221.01 206.164 220.922C206.308 220.826 206.472 220.75 206.656 220.694C206.84 220.638 207.04 220.61 207.256 220.61ZM215.116 223.082C215.116 222.898 215.088 222.722 215.032 222.554C214.984 222.386 214.904 222.238 214.792 222.11C214.68 221.982 214.536 221.882 214.36 221.81C214.192 221.73 213.992 221.69 213.76 221.69C213.328 221.69 212.96 221.822 212.656 222.086C212.36 222.342 212.196 222.674 212.164 223.082H215.116ZM216.556 223.73C216.556 223.794 216.556 223.858 216.556 223.922C216.556 223.986 216.552 224.05 216.544 224.114H212.164C212.18 224.322 212.232 224.514 212.32 224.69C212.416 224.858 212.54 225.006 212.692 225.134C212.844 225.254 213.016 225.35 213.208 225.422C213.4 225.494 213.6 225.53 213.808 225.53C214.168 225.53 214.472 225.466 214.72 225.338C214.968 225.202 215.172 225.018 215.332 224.786L216.292 225.554C215.724 226.322 214.9 226.706 213.82 226.706C213.372 226.706 212.96 226.638 212.584 226.502C212.208 226.358 211.88 226.158 211.6 225.902C211.328 225.646 211.112 225.334 210.952 224.966C210.8 224.59 210.724 224.166 210.724 223.694C210.724 223.23 210.8 222.81 210.952 222.434C211.112 222.05 211.328 221.726 211.6 221.462C211.872 221.19 212.192 220.982 212.56 220.838C212.936 220.686 213.34 220.61 213.772 220.61C214.172 220.61 214.54 220.678 214.876 220.814C215.22 220.942 215.516 221.138 215.764 221.402C216.012 221.658 216.204 221.982 216.34 222.374C216.484 222.758 216.556 223.21 216.556 223.73ZM221.107 222.314C220.979 222.146 220.803 222.002 220.579 221.882C220.355 221.754 220.111 221.69 219.847 221.69C219.615 221.69 219.403 221.738 219.211 221.834C219.019 221.93 218.923 222.09 218.923 222.314C218.923 222.538 219.027 222.698 219.235 222.794C219.451 222.882 219.763 222.974 220.171 223.07C220.387 223.118 220.603 223.182 220.819 223.262C221.043 223.342 221.243 223.45 221.419 223.586C221.603 223.714 221.751 223.878 221.863 224.078C221.975 224.27 222.031 224.506 222.031 224.786C222.031 225.138 221.963 225.438 221.827 225.686C221.699 225.926 221.523 226.122 221.299 226.274C221.083 226.426 220.827 226.534 220.531 226.598C220.243 226.67 219.943 226.706 219.631 226.706C219.183 226.706 218.747 226.626 218.323 226.466C217.899 226.298 217.547 226.062 217.267 225.758L218.215 224.87C218.375 225.078 218.583 225.25 218.839 225.386C219.095 225.522 219.379 225.59 219.691 225.59C219.795 225.59 219.899 225.578 220.003 225.554C220.115 225.53 220.215 225.494 220.303 225.446C220.399 225.39 220.475 225.318 220.531 225.23C220.587 225.142 220.615 225.034 220.615 224.906C220.615 224.666 220.503 224.494 220.279 224.39C220.063 224.286 219.735 224.182 219.295 224.078C219.079 224.03 218.867 223.97 218.659 223.898C218.459 223.818 218.279 223.718 218.119 223.598C217.959 223.47 217.831 223.314 217.735 223.13C217.639 222.946 217.591 222.718 217.591 222.446C217.591 222.126 217.655 221.85 217.783 221.618C217.919 221.386 218.095 221.198 218.311 221.054C218.527 220.902 218.771 220.79 219.043 220.718C219.315 220.646 219.595 220.61 219.883 220.61C220.299 220.61 220.703 220.682 221.095 220.826C221.495 220.97 221.811 221.19 222.043 221.486L221.107 222.314ZM225.947 223.634C225.947 223.178 226.027 222.766 226.187 222.398C226.355 222.022 226.579 221.702 226.859 221.438C227.139 221.174 227.471 220.97 227.855 220.826C228.239 220.682 228.647 220.61 229.079 220.61C229.511 220.61 229.919 220.682 230.303 220.826C230.687 220.97 231.019 221.174 231.299 221.438C231.579 221.702 231.799 222.022 231.959 222.398C232.127 222.766 232.211 223.178 232.211 223.634C232.211 224.09 232.127 224.506 231.959 224.882C231.799 225.258 231.579 225.582 231.299 225.854C231.019 226.118 230.687 226.326 230.303 226.478C229.919 226.63 229.511 226.706 229.079 226.706C228.647 226.706 228.239 226.63 227.855 226.478C227.471 226.326 227.139 226.118 226.859 225.854C226.579 225.582 226.355 225.258 226.187 224.882C226.027 224.506 225.947 224.09 225.947 223.634ZM227.411 223.634C227.411 223.858 227.443 224.082 227.507 224.306C227.579 224.53 227.683 224.73 227.819 224.906C227.955 225.082 228.127 225.226 228.335 225.338C228.543 225.45 228.791 225.506 229.079 225.506C229.367 225.506 229.615 225.45 229.823 225.338C230.031 225.226 230.203 225.082 230.339 224.906C230.475 224.73 230.575 224.53 230.639 224.306C230.711 224.082 230.747 223.858 230.747 223.634C230.747 223.41 230.711 223.19 230.639 222.974C230.575 222.75 230.475 222.55 230.339 222.374C230.203 222.198 230.031 222.058 229.823 221.954C229.615 221.842 229.367 221.786 229.079 221.786C228.791 221.786 228.543 221.842 228.335 221.954C228.127 222.058 227.955 222.198 227.819 222.374C227.683 222.55 227.579 222.75 227.507 222.974C227.443 223.19 227.411 223.41 227.411 223.634ZM233.607 220.778H234.975V221.702H234.999C235.127 221.414 235.347 221.162 235.659 220.946C235.979 220.722 236.355 220.61 236.787 220.61C237.163 220.61 237.483 220.678 237.747 220.814C238.019 220.942 238.239 221.114 238.407 221.33C238.583 221.546 238.711 221.794 238.791 222.074C238.871 222.354 238.911 222.642 238.911 222.938V226.538H237.471V223.346C237.471 223.178 237.459 223.002 237.435 222.818C237.411 222.634 237.359 222.47 237.279 222.326C237.199 222.174 237.087 222.05 236.943 221.954C236.807 221.858 236.623 221.81 236.391 221.81C236.159 221.81 235.959 221.858 235.791 221.954C235.623 222.042 235.483 222.158 235.371 222.302C235.267 222.446 235.187 222.614 235.131 222.806C235.075 222.99 235.047 223.178 235.047 223.37V226.538H233.607V220.778ZM91.116 236.61C91.492 236.61 91.812 236.678 92.076 236.814C92.348 236.942 92.568 237.114 92.736 237.33C92.912 237.546 93.04 237.794 93.12 238.074C93.2 238.354 93.24 238.642 93.24 238.938V242.538H91.8V239.346C91.8 239.178 91.788 239.002 91.764 238.818C91.74 238.634 91.688 238.47 91.608 238.326C91.528 238.174 91.416 238.05 91.272 237.954C91.136 237.858 90.952 237.81 90.72 237.81C90.496 237.81 90.304 237.858 90.144 237.954C89.984 238.05 89.852 238.174 89.748 238.326C89.644 238.478 89.568 238.65 89.52 238.842C89.472 239.026 89.448 239.21 89.448 239.394V242.538H88.008V239.058C88.008 238.698 87.92 238.402 87.744 238.17C87.576 237.93 87.308 237.81 86.94 237.81C86.724 237.81 86.536 237.858 86.376 237.954C86.216 238.042 86.084 238.158 85.98 238.302C85.884 238.446 85.808 238.614 85.752 238.806C85.704 238.99 85.68 239.178 85.68 239.37V242.538H84.24V236.778H85.608V237.702H85.632C85.696 237.558 85.78 237.422 85.884 237.294C85.996 237.166 86.124 237.05 86.268 236.946C86.42 236.842 86.592 236.762 86.784 236.706C86.976 236.642 87.188 236.61 87.42 236.61C87.868 236.61 88.24 236.71 88.536 236.91C88.832 237.11 89.06 237.374 89.22 237.702C89.412 237.35 89.668 237.082 89.988 236.898C90.308 236.706 90.684 236.61 91.116 236.61ZM98.9718 239.082C98.9718 238.898 98.9438 238.722 98.8878 238.554C98.8398 238.386 98.7598 238.238 98.6478 238.11C98.5358 237.982 98.3918 237.882 98.2158 237.81C98.0478 237.73 97.8478 237.69 97.6158 237.69C97.1838 237.69 96.8158 237.822 96.5118 238.086C96.2158 238.342 96.0518 238.674 96.0198 239.082H98.9718ZM100.412 239.73C100.412 239.794 100.412 239.858 100.412 239.922C100.412 239.986 100.408 240.05 100.4 240.114H96.0198C96.0358 240.322 96.0878 240.514 96.1758 240.69C96.2718 240.858 96.3958 241.006 96.5478 241.134C96.6998 241.254 96.8718 241.35 97.0638 241.422C97.2558 241.494 97.4558 241.53 97.6638 241.53C98.0238 241.53 98.3278 241.466 98.5758 241.338C98.8238 241.202 99.0278 241.018 99.1878 240.786L100.148 241.554C99.5798 242.322 98.7558 242.706 97.6758 242.706C97.2278 242.706 96.8158 242.638 96.4398 242.502C96.0638 242.358 95.7358 242.158 95.4558 241.902C95.1838 241.646 94.9678 241.334 94.8078 240.966C94.6558 240.59 94.5798 240.166 94.5798 239.694C94.5798 239.23 94.6558 238.81 94.8078 238.434C94.9678 238.05 95.1838 237.726 95.4558 237.462C95.7278 237.19 96.0478 236.982 96.4158 236.838C96.7918 236.686 97.1958 236.61 97.6278 236.61C98.0278 236.61 98.3958 236.678 98.7318 236.814C99.0758 236.942 99.3718 237.138 99.6198 237.402C99.8678 237.658 100.06 237.982 100.196 238.374C100.34 238.758 100.412 239.21 100.412 239.73ZM101.542 241.698C101.542 241.442 101.634 241.222 101.818 241.038C102.01 240.854 102.238 240.762 102.502 240.762C102.758 240.762 102.982 240.85 103.174 241.026C103.366 241.202 103.462 241.418 103.462 241.674C103.462 241.93 103.366 242.15 103.174 242.334C102.99 242.518 102.766 242.61 102.502 242.61C102.374 242.61 102.25 242.586 102.13 242.538C102.018 242.49 101.918 242.426 101.83 242.346C101.742 242.266 101.67 242.17 101.614 242.058C101.566 241.946 101.542 241.826 101.542 241.698Z" fill="white"/>
<path d="M71.584 264.575C71.584 264.575 73.9425 261.627 73.9425 253.962L79.8387 256.321C79.8387 265.755 71.584 264.575 71.584 264.575Z" fill="#FF9A94"/>
<path d="M151.29 180.236H150.498V175.268H148.682V174.572H153.106V175.268H151.29V180.236ZM155.774 180.236C155.763 180.14 155.755 180.033 155.75 179.916C155.744 179.793 155.742 179.692 155.742 179.612H155.726C155.63 179.815 155.467 179.988 155.238 180.132C155.014 180.271 154.763 180.34 154.486 180.34C154.24 180.34 154.027 180.3 153.846 180.22C153.67 180.14 153.523 180.031 153.406 179.892C153.294 179.748 153.208 179.583 153.15 179.396C153.096 179.209 153.07 179.009 153.07 178.796V176.444H153.822V178.54C153.822 178.695 153.832 178.844 153.854 178.988C153.88 179.127 153.926 179.249 153.99 179.356C154.054 179.463 154.142 179.548 154.254 179.612C154.366 179.676 154.51 179.708 154.686 179.708C154.99 179.708 155.235 179.596 155.422 179.372C155.608 179.143 155.702 178.839 155.702 178.46V176.444H156.454V179.42C156.454 179.521 156.456 179.652 156.462 179.812C156.467 179.972 156.475 180.113 156.486 180.236H155.774ZM160.534 178.004C160.529 177.855 160.502 177.716 160.454 177.588C160.411 177.455 160.345 177.34 160.254 177.244C160.169 177.148 160.059 177.073 159.926 177.02C159.798 176.961 159.646 176.932 159.47 176.932C159.31 176.932 159.158 176.961 159.014 177.02C158.875 177.073 158.753 177.148 158.646 177.244C158.545 177.34 158.459 177.455 158.39 177.588C158.326 177.716 158.289 177.855 158.278 178.004H160.534ZM161.294 178.308C161.294 178.351 161.294 178.393 161.294 178.436C161.294 178.479 161.291 178.521 161.286 178.564H158.278C158.283 178.724 158.318 178.876 158.382 179.02C158.451 179.159 158.542 179.281 158.654 179.388C158.766 179.489 158.894 179.569 159.038 179.628C159.187 179.687 159.345 179.716 159.51 179.716C159.766 179.716 159.987 179.66 160.174 179.548C160.361 179.436 160.507 179.3 160.614 179.14L161.142 179.564C160.939 179.831 160.699 180.028 160.422 180.156C160.15 180.279 159.846 180.34 159.51 180.34C159.222 180.34 158.955 180.292 158.71 180.196C158.465 180.1 158.254 179.967 158.078 179.796C157.902 179.62 157.763 179.409 157.662 179.164C157.561 178.919 157.51 178.647 157.51 178.348C157.51 178.055 157.558 177.785 157.654 177.54C157.755 177.289 157.894 177.076 158.07 176.9C158.246 176.724 158.454 176.588 158.694 176.492C158.934 176.391 159.193 176.34 159.47 176.34C159.747 176.34 159.998 176.385 160.222 176.476C160.451 176.567 160.643 176.697 160.798 176.868C160.958 177.039 161.081 177.247 161.166 177.492C161.251 177.732 161.294 178.004 161.294 178.308ZM164.392 177.404C164.307 177.265 164.187 177.153 164.032 177.068C163.877 176.977 163.704 176.932 163.512 176.932C163.427 176.932 163.341 176.943 163.256 176.964C163.171 176.98 163.093 177.009 163.024 177.052C162.96 177.089 162.907 177.14 162.864 177.204C162.827 177.263 162.808 177.337 162.808 177.428C162.808 177.588 162.88 177.708 163.024 177.788C163.168 177.863 163.384 177.932 163.672 177.996C163.853 178.039 164.021 178.089 164.176 178.148C164.331 178.207 164.464 178.281 164.576 178.372C164.693 178.457 164.784 178.561 164.848 178.684C164.912 178.807 164.944 178.951 164.944 179.116C164.944 179.34 164.901 179.529 164.816 179.684C164.731 179.839 164.616 179.967 164.472 180.068C164.333 180.164 164.173 180.233 163.992 180.276C163.811 180.319 163.624 180.34 163.432 180.34C163.144 180.34 162.861 180.284 162.584 180.172C162.312 180.06 162.085 179.889 161.904 179.66L162.44 179.204C162.541 179.353 162.68 179.479 162.856 179.58C163.037 179.681 163.235 179.732 163.448 179.732C163.544 179.732 163.635 179.724 163.72 179.708C163.811 179.687 163.891 179.655 163.96 179.612C164.035 179.569 164.093 179.513 164.136 179.444C164.179 179.375 164.2 179.287 164.2 179.18C164.2 179.004 164.115 178.873 163.944 178.788C163.779 178.703 163.533 178.623 163.208 178.548C163.08 178.516 162.949 178.479 162.816 178.436C162.688 178.388 162.571 178.324 162.464 178.244C162.357 178.164 162.269 178.065 162.2 177.948C162.136 177.825 162.104 177.676 162.104 177.5C162.104 177.297 162.144 177.124 162.224 176.98C162.309 176.831 162.419 176.711 162.552 176.62C162.685 176.524 162.837 176.455 163.008 176.412C163.179 176.364 163.355 176.34 163.536 176.34C163.808 176.34 164.069 176.393 164.32 176.5C164.576 176.607 164.773 176.761 164.912 176.964L164.392 177.404ZM166.163 181.3H165.523L166.075 179.3H166.827L166.163 181.3ZM172.703 178.924H172.719L174.391 174.572H175.623V180.236H174.831V175.5H174.815L172.935 180.236H172.431L170.559 175.5H170.543V180.236H169.775V174.572H171.007L172.703 178.924ZM179.321 177.78C179.321 177.497 179.236 177.289 179.065 177.156C178.894 177.017 178.668 176.948 178.385 176.948C178.172 176.948 177.969 176.991 177.777 177.076C177.59 177.156 177.433 177.26 177.305 177.388L176.905 176.908C177.092 176.732 177.318 176.593 177.585 176.492C177.857 176.391 178.148 176.34 178.457 176.34C178.729 176.34 178.964 176.38 179.161 176.46C179.364 176.535 179.529 176.639 179.657 176.772C179.785 176.905 179.881 177.063 179.945 177.244C180.009 177.425 180.041 177.62 180.041 177.828V179.484C180.041 179.612 180.044 179.748 180.049 179.892C180.06 180.031 180.076 180.145 180.097 180.236H179.417C179.374 180.055 179.353 179.873 179.353 179.692H179.329C179.19 179.895 179.014 180.052 178.801 180.164C178.593 180.276 178.345 180.332 178.057 180.332C177.908 180.332 177.75 180.311 177.585 180.268C177.425 180.231 177.278 180.167 177.145 180.076C177.012 179.985 176.9 179.865 176.809 179.716C176.724 179.567 176.681 179.383 176.681 179.164C176.681 178.876 176.758 178.649 176.913 178.484C177.068 178.313 177.27 178.185 177.521 178.1C177.772 178.009 178.054 177.951 178.369 177.924C178.684 177.897 179.001 177.884 179.321 177.884V177.78ZM179.137 178.428C178.95 178.428 178.756 178.436 178.553 178.452C178.356 178.468 178.174 178.5 178.009 178.548C177.849 178.596 177.716 178.668 177.609 178.764C177.502 178.86 177.449 178.988 177.449 179.148C177.449 179.26 177.47 179.353 177.513 179.428C177.561 179.503 177.622 179.564 177.697 179.612C177.772 179.66 177.854 179.695 177.945 179.716C178.036 179.732 178.129 179.74 178.225 179.74C178.577 179.74 178.846 179.636 179.033 179.428C179.225 179.215 179.321 178.948 179.321 178.628V178.428H179.137ZM181.297 177.26C181.297 177.159 181.294 177.028 181.289 176.868C181.284 176.708 181.276 176.567 181.265 176.444H181.977C181.988 176.54 181.996 176.652 182.001 176.78C182.006 176.903 182.009 177.004 182.009 177.084H182.033C182.14 176.86 182.294 176.681 182.497 176.548C182.705 176.409 182.937 176.34 183.193 176.34C183.31 176.34 183.409 176.351 183.489 176.372L183.457 177.068C183.35 177.041 183.236 177.028 183.113 177.028C182.932 177.028 182.774 177.063 182.641 177.132C182.508 177.196 182.396 177.284 182.305 177.396C182.22 177.508 182.156 177.639 182.113 177.788C182.07 177.932 182.049 178.084 182.049 178.244V180.236H181.297V177.26ZM188.579 180.236H187.803V175.516L186.731 176.412L186.275 175.876L187.883 174.572H188.579V180.236Z" fill="#ACB1BF"/>
</g>
</g>
<defs>
<filter id="filter0_d" x="76" y="0" width="716" height="616" filterUnits="userSpaceOnUse" color-interpolation-filters="sRGB">
<feFlood flood-opacity="0" result="BackgroundImageFix"/>
<feColorMatrix in="SourceAlpha" type="matrix" values="0 0 0 0 0 0 0 0 0 0 0 0 0 0 0 0 0 0 127 0"/>
<feOffset dy="8"/>
<feGaussianBlur stdDeviation="24"/>
<feColorMatrix type="matrix" values="0 0 0 0 0.141176 0 0 0 0 0.176471 0 0 0 0 0.270588 0 0 0 0.15 0"/>
<feBlend mode="normal" in2="BackgroundImageFix" result="effect1_dropShadow"/>
<feBlend mode="normal" in="SourceGraphic" in2="effect1_dropShadow" result="shape"/>
</filter>
<filter id="filter1_d" x="340" y="160" width="188" height="188" filterUnits="userSpaceOnUse" color-interpolation-filters="sRGB">
<feFlood flood-opacity="0" result="BackgroundImageFix"/>
<feColorMatrix in="SourceAlpha" type="matrix" values="0 0 0 0 0 0 0 0 0 0 0 0 0 0 0 0 0 0 127 0"/>
<feOffset dy="4"/>
<feGaussianBlur stdDeviation="2"/>
<feColorMatrix type="matrix" values="0 0 0 0 0.141176 0 0 0 0 0.176471 0 0 0 0 0.270588 0 0 0 0.05 0"/>
<feBlend mode="normal" in2="BackgroundImageFix" result="effect1_dropShadow"/>
<feBlend mode="normal" in="SourceGraphic" in2="effect1_dropShadow" result="shape"/>
</filter>
<filter id="filter2_d" x="528" y="160" width="188" height="188" filterUnits="userSpaceOnUse" color-interpolation-filters="sRGB">
<feFlood flood-opacity="0" result="BackgroundImageFix"/>
<feColorMatrix in="SourceAlpha" type="matrix" values="0 0 0 0 0 0 0 0 0 0 0 0 0 0 0 0 0 0 127 0"/>
<feOffset dy="4"/>
<feGaussianBlur stdDeviation="2"/>
<feColorMatrix type="matrix" values="0 0 0 0 0.141176 0 0 0 0 0.176471 0 0 0 0 0.270588 0 0 0 0.05 0"/>
<feBlend mode="normal" in2="BackgroundImageFix" result="effect1_dropShadow"/>
<feBlend mode="normal" in="SourceGraphic" in2="effect1_dropShadow" result="shape"/>
</filter>
<filter id="filter3_d" x="152" y="72" width="188" height="464" filterUnits="userSpaceOnUse" color-interpolation-filters="sRGB">
<feFlood flood-opacity="0" result="BackgroundImageFix"/>
<feColorMatrix in="SourceAlpha" type="matrix" values="0 0 0 0 0 0 0 0 0 0 0 0 0 0 0 0 0 0 127 0"/>
<feOffset dy="4"/>
<feGaussianBlur stdDeviation="2"/>
<feColorMatrix type="matrix" values="0 0 0 0 0.141176 0 0 0 0 0.176471 0 0 0 0 0.270588 0 0 0 0.05 0"/>
<feBlend mode="normal" in2="BackgroundImageFix" result="effect1_dropShadow"/>
<feBlend mode="normal" in="SourceGraphic" in2="effect1_dropShadow" result="shape"/>
</filter>
<filter id="filter4_d" x="340" y="348" width="376" height="188" filterUnits="userSpaceOnUse" color-interpolation-filters="sRGB">
<feFlood flood-opacity="0" result="BackgroundImageFix"/>
<feColorMatrix in="SourceAlpha" type="matrix" values="0 0 0 0 0 0 0 0 0 0 0 0 0 0 0 0 0 0 127 0"/>
<feOffset dy="4"/>
<feGaussianBlur stdDeviation="2"/>
<feColorMatrix type="matrix" values="0 0 0 0 0.141176 0 0 0 0 0.176471 0 0 0 0 0.270588 0 0 0 0.05 0"/>
<feBlend mode="normal" in2="BackgroundImageFix" result="effect1_dropShadow"/>
<feBlend mode="normal" in="SourceGraphic" in2="effect1_dropShadow" result="shape"/>
</filter>
<filter id="filter5_d" x="340" y="72" width="376" height="88" filterUnits="userSpaceOnUse" color-interpolation-filters="sRGB">
<feFlood flood-opacity="0" result="BackgroundImageFix"/>
<feColorMatrix in="SourceAlpha" type="matrix" values="0 0 0 0 0 0 0 0 0 0 0 0 0 0 0 0 0 0 127 0"/>
<feOffset dy="4"/>
<feGaussianBlur stdDeviation="2"/>
<feColorMatrix type="matrix" values="0 0 0 0 0.141176 0 0 0 0 0.176471 0 0 0 0 0.270588 0 0 0 0.05 0"/>
<feBlend mode="normal" in2="BackgroundImageFix" result="effect1_dropShadow"/>
<feBlend mode="normal" in="SourceGraphic" in2="effect1_dropShadow" result="shape"/>
</filter>
<filter id="filter6_di" x="0" y="30" width="340.104" height="596" filterUnits="userSpaceOnUse" color-interpolation-filters="sRGB">
<feFlood flood-opacity="0" result="BackgroundImageFix"/>
<feColorMatrix in="SourceAlpha" type="matrix" values="0 0 0 0 0 0 0 0 0 0 0 0 0 0 0 0 0 0 127 0"/>
<feOffset dy="8"/>
<feGaussianBlur stdDeviation="24"/>
<feColorMatrix type="matrix" values="0 0 0 0 0.141176 0 0 0 0 0.176471 0 0 0 0 0.270588 0 0 0 0.15 0"/>
<feBlend mode="normal" in2="BackgroundImageFix" result="effect1_dropShadow"/>
<feBlend mode="normal" in="SourceGraphic" in2="effect1_dropShadow" result="shape"/>
<feColorMatrix in="SourceAlpha" type="matrix" values="0 0 0 0 0 0 0 0 0 0 0 0 0 0 0 0 0 0 127 0" result="hardAlpha"/>
<feOffset/>
<feGaussianBlur stdDeviation="6"/>
<feComposite in2="hardAlpha" operator="arithmetic" k2="-1" k3="1"/>
<feColorMatrix type="matrix" values="0 0 0 0 0.12549 0 0 0 0 0.129412 0 0 0 0 0.141176 0 0 0 0.1 0"/>
<feBlend mode="normal" in2="shape" result="effect2_innerShadow"/>
</filter>
<clipPath id="clip0">
<rect x="368" y="88" width="48" height="48" rx="24" fill="white"/>
</clipPath>
<clipPath id="clip1">
<rect x="59.792" y="81.7924" width="220.519" height="476.415" rx="20" fill="white"/>
</clipPath>
</defs>
</svg>
