<svg width="341" height="596" viewBox="0 0 341 596" fill="none" xmlns="http://www.w3.org/2000/svg">
<g filter="url(#filter0_di)">
<path d="M48 81.6C48 67.0386 48 59.758 50.8338 54.1962C53.3265 49.304 57.304 45.3265 62.1962 42.8338C67.758 40 75.0386 40 89.6 40H250.504C265.065 40 272.346 40 277.908 42.8338C282.8 45.3265 286.777 49.304 289.27 54.1962C292.104 59.758 292.104 67.0386 292.104 81.6V498.4C292.104 512.961 292.104 520.242 289.27 525.804C286.777 530.696 282.8 534.673 277.908 537.166C272.346 540 265.065 540 250.504 540H89.6C75.0386 540 67.758 540 62.1962 537.166C57.304 534.673 53.3265 530.696 50.8338 525.804C48 520.242 48 512.961 48 498.4V81.6Z" fill="#EFF1F4"/>
<g clip-path="url(#clip0)">
<rect x="59.7925" y="51.7925" width="220.519" height="476.415" rx="20" fill="white"/>
<rect x="78.6604" y="481.038" width="182.783" height="28.3018" rx="14" fill="#EFF1F4"/>
<rect x="79.1604" y="481.538" width="181.783" height="27.3018" rx="13.5" stroke="#3A4258" stroke-opacity="0.1"/>
<rect x="58.6133" y="460.991" width="221.698" height="1.17923" fill="#EFF1F4"/>
<ellipse cx="247.292" cy="495.189" rx="11.7925" ry="11.7924" fill="#6C8DE3"/>
<path fill-rule="evenodd" clip-rule="evenodd" d="M242.748 495.016C242.518 494.786 242.518 494.412 242.748 494.182L246.875 490.055C246.986 489.944 247.136 489.882 247.292 489.882C247.449 489.882 247.599 489.944 247.709 490.055L251.837 494.182C252.067 494.412 252.067 494.786 251.837 495.016C251.606 495.246 251.233 495.246 251.003 495.016L247.882 491.895L247.882 499.906C247.882 500.231 247.618 500.495 247.292 500.495C246.967 500.495 246.703 500.231 246.703 499.906L246.703 491.895L243.582 495.016C243.352 495.246 242.978 495.246 242.748 495.016Z" fill="white"/>
<rect x="59.7925" y="51.7925" width="220.519" height="69.5755" fill="white"/>
<rect x="58.6133" y="120.189" width="221.698" height="1.17924" fill="#EFF1F4"/>
<path fill-rule="evenodd" clip-rule="evenodd" d="M108.141 51.7925C112.269 51.7925 112.269 54.151 112.269 57.6887C112.269 59.4576 113.566 63.5849 116.396 65.9434C119.226 68.3019 122.292 69.4812 125.83 69.4812H171.821H217.811C221.349 69.4812 224.415 68.3019 227.245 65.9434C230.076 63.5849 231.373 59.4576 231.373 57.6887C231.373 54.151 231.373 51.7925 235.5 51.7925H171.821V69.4812L171.821 51.7925H108.141Z" fill="#EFF1F4"/>
<circle cx="169.462" cy="95.4246" r="14.1509" fill="#ACB1BF"/>
<path d="M75.1227 89.5283L69.2264 95.4245L75.1227 101.321" stroke="#ACB1BF" stroke-linecap="round" stroke-linejoin="round"/>
<rect x="73.9435" y="159.104" width="192.217" height="75.4717" rx="8" fill="#FF9A94"/>
<path d="M91.7534 180.094C91.3214 180.302 90.8454 180.462 90.3254 180.574C89.8134 180.694 89.2214 180.754 88.5494 180.754C87.8614 180.754 87.2334 180.646 86.6654 180.43C86.0974 180.206 85.6094 179.898 85.2014 179.506C84.7934 179.106 84.4734 178.634 84.2414 178.09C84.0174 177.538 83.9054 176.93 83.9054 176.266C83.9054 175.586 84.0214 174.974 84.2534 174.43C84.4934 173.878 84.8174 173.41 85.2254 173.026C85.6414 172.642 86.1294 172.346 86.6894 172.138C87.2494 171.93 87.8574 171.826 88.5134 171.826C89.1934 171.826 89.8134 171.926 90.3734 172.126C90.9414 172.318 91.3974 172.574 91.7414 172.894L90.6974 174.022C90.4814 173.782 90.1774 173.578 89.7854 173.41C89.4014 173.242 88.9814 173.158 88.5254 173.158C88.0774 173.158 87.6694 173.238 87.3014 173.398C86.9414 173.558 86.6334 173.778 86.3774 174.058C86.1214 174.338 85.9214 174.666 85.7774 175.042C85.6414 175.418 85.5734 175.826 85.5734 176.266C85.5734 176.722 85.6414 177.142 85.7774 177.526C85.9214 177.902 86.1214 178.23 86.3774 178.51C86.6414 178.79 86.9574 179.01 87.3254 179.17C87.7014 179.322 88.1254 179.398 88.5974 179.398C89.2454 179.398 89.8094 179.298 90.2894 179.098V176.938H88.5014V175.69H91.7534V180.094ZM93.1867 177.634C93.1867 177.178 93.2667 176.766 93.4267 176.398C93.5947 176.022 93.8187 175.702 94.0987 175.438C94.3787 175.174 94.7107 174.97 95.0947 174.826C95.4787 174.682 95.8867 174.61 96.3187 174.61C96.7507 174.61 97.1587 174.682 97.5427 174.826C97.9267 174.97 98.2587 175.174 98.5387 175.438C98.8187 175.702 99.0387 176.022 99.1987 176.398C99.3667 176.766 99.4507 177.178 99.4507 177.634C99.4507 178.09 99.3667 178.506 99.1987 178.882C99.0387 179.258 98.8187 179.582 98.5387 179.854C98.2587 180.118 97.9267 180.326 97.5427 180.478C97.1587 180.63 96.7507 180.706 96.3187 180.706C95.8867 180.706 95.4787 180.63 95.0947 180.478C94.7107 180.326 94.3787 180.118 94.0987 179.854C93.8187 179.582 93.5947 179.258 93.4267 178.882C93.2667 178.506 93.1867 178.09 93.1867 177.634ZM94.6507 177.634C94.6507 177.858 94.6827 178.082 94.7467 178.306C94.8187 178.53 94.9227 178.73 95.0587 178.906C95.1947 179.082 95.3667 179.226 95.5747 179.338C95.7827 179.45 96.0307 179.506 96.3187 179.506C96.6067 179.506 96.8547 179.45 97.0627 179.338C97.2707 179.226 97.4427 179.082 97.5787 178.906C97.7147 178.73 97.8147 178.53 97.8787 178.306C97.9507 178.082 97.9867 177.858 97.9867 177.634C97.9867 177.41 97.9507 177.19 97.8787 176.974C97.8147 176.75 97.7147 176.55 97.5787 176.374C97.4427 176.198 97.2707 176.058 97.0627 175.954C96.8547 175.842 96.6067 175.786 96.3187 175.786C96.0307 175.786 95.7827 175.842 95.5747 175.954C95.3667 176.058 95.1947 176.198 95.0587 176.374C94.9227 176.55 94.8187 176.75 94.7467 176.974C94.6827 177.19 94.6507 177.41 94.6507 177.634ZM100.511 177.634C100.511 177.178 100.591 176.766 100.751 176.398C100.919 176.022 101.143 175.702 101.423 175.438C101.703 175.174 102.035 174.97 102.419 174.826C102.803 174.682 103.211 174.61 103.643 174.61C104.075 174.61 104.483 174.682 104.867 174.826C105.251 174.97 105.583 175.174 105.863 175.438C106.143 175.702 106.363 176.022 106.523 176.398C106.691 176.766 106.775 177.178 106.775 177.634C106.775 178.09 106.691 178.506 106.523 178.882C106.363 179.258 106.143 179.582 105.863 179.854C105.583 180.118 105.251 180.326 104.867 180.478C104.483 180.63 104.075 180.706 103.643 180.706C103.211 180.706 102.803 180.63 102.419 180.478C102.035 180.326 101.703 180.118 101.423 179.854C101.143 179.582 100.919 179.258 100.751 178.882C100.591 178.506 100.511 178.09 100.511 177.634ZM101.975 177.634C101.975 177.858 102.007 178.082 102.071 178.306C102.143 178.53 102.247 178.73 102.383 178.906C102.519 179.082 102.691 179.226 102.899 179.338C103.107 179.45 103.355 179.506 103.643 179.506C103.931 179.506 104.179 179.45 104.387 179.338C104.595 179.226 104.767 179.082 104.903 178.906C105.039 178.73 105.139 178.53 105.203 178.306C105.275 178.082 105.311 177.858 105.311 177.634C105.311 177.41 105.275 177.19 105.203 176.974C105.139 176.75 105.039 176.55 104.903 176.374C104.767 176.198 104.595 176.058 104.387 175.954C104.179 175.842 103.931 175.786 103.643 175.786C103.355 175.786 103.107 175.842 102.899 175.954C102.691 176.058 102.519 176.198 102.383 176.374C102.247 176.55 102.143 176.75 102.071 176.974C102.007 177.19 101.975 177.41 101.975 177.634ZM114.027 180.538H112.659V179.674H112.635C112.435 180.01 112.155 180.266 111.795 180.442C111.443 180.618 111.063 180.706 110.655 180.706C110.215 180.706 109.819 180.626 109.467 180.466C109.123 180.298 108.827 180.078 108.579 179.806C108.339 179.526 108.151 179.202 108.015 178.834C107.887 178.458 107.823 178.058 107.823 177.634C107.823 177.21 107.891 176.814 108.027 176.446C108.163 176.078 108.355 175.758 108.603 175.486C108.851 175.214 109.147 175.002 109.491 174.85C109.835 174.69 110.211 174.61 110.619 174.61C110.883 174.61 111.119 174.642 111.327 174.706C111.535 174.762 111.715 174.834 111.867 174.922C112.027 175.01 112.163 175.106 112.275 175.21C112.387 175.314 112.479 175.414 112.551 175.51H112.587V171.466H114.027V180.538ZM109.287 177.634C109.287 177.858 109.319 178.082 109.383 178.306C109.455 178.53 109.559 178.73 109.695 178.906C109.831 179.082 110.003 179.226 110.211 179.338C110.419 179.45 110.663 179.506 110.943 179.506C111.207 179.506 111.443 179.454 111.651 179.35C111.859 179.238 112.035 179.094 112.179 178.918C112.331 178.742 112.443 178.546 112.515 178.33C112.595 178.106 112.635 177.882 112.635 177.658C112.635 177.434 112.595 177.21 112.515 176.986C112.443 176.762 112.331 176.562 112.179 176.386C112.035 176.21 111.859 176.066 111.651 175.954C111.443 175.842 111.207 175.786 110.943 175.786C110.663 175.786 110.419 175.842 110.211 175.954C110.003 176.058 109.831 176.198 109.695 176.374C109.559 176.55 109.455 176.75 109.383 176.974C109.319 177.19 109.287 177.41 109.287 177.634ZM118.777 174.778H120.145V175.702H120.169C120.297 175.414 120.517 175.162 120.829 174.946C121.149 174.722 121.525 174.61 121.957 174.61C122.333 174.61 122.653 174.678 122.917 174.814C123.189 174.942 123.409 175.114 123.577 175.33C123.753 175.546 123.881 175.794 123.961 176.074C124.041 176.354 124.081 176.642 124.081 176.938V180.538H122.641V177.346C122.641 177.178 122.629 177.002 122.605 176.818C122.581 176.634 122.529 176.47 122.449 176.326C122.369 176.174 122.257 176.05 122.113 175.954C121.977 175.858 121.793 175.81 121.561 175.81C121.329 175.81 121.129 175.858 120.961 175.954C120.793 176.042 120.653 176.158 120.541 176.302C120.437 176.446 120.357 176.614 120.301 176.806C120.245 176.99 120.217 177.178 120.217 177.37V180.538H118.777V174.778ZM129.817 177.082C129.817 176.898 129.789 176.722 129.733 176.554C129.685 176.386 129.605 176.238 129.493 176.11C129.381 175.982 129.237 175.882 129.061 175.81C128.893 175.73 128.693 175.69 128.461 175.69C128.029 175.69 127.661 175.822 127.357 176.086C127.061 176.342 126.897 176.674 126.865 177.082H129.817ZM131.257 177.73C131.257 177.794 131.257 177.858 131.257 177.922C131.257 177.986 131.253 178.05 131.245 178.114H126.865C126.881 178.322 126.933 178.514 127.021 178.69C127.117 178.858 127.241 179.006 127.393 179.134C127.545 179.254 127.717 179.35 127.909 179.422C128.101 179.494 128.301 179.53 128.509 179.53C128.869 179.53 129.173 179.466 129.421 179.338C129.669 179.202 129.873 179.018 130.033 178.786L130.993 179.554C130.425 180.322 129.601 180.706 128.521 180.706C128.073 180.706 127.661 180.638 127.285 180.502C126.909 180.358 126.581 180.158 126.301 179.902C126.029 179.646 125.813 179.334 125.653 178.966C125.501 178.59 125.425 178.166 125.425 177.694C125.425 177.23 125.501 176.81 125.653 176.434C125.813 176.05 126.029 175.726 126.301 175.462C126.573 175.19 126.893 174.982 127.261 174.838C127.637 174.686 128.041 174.61 128.473 174.61C128.873 174.61 129.241 174.678 129.577 174.814C129.921 174.942 130.217 175.138 130.465 175.402C130.713 175.658 130.905 175.982 131.041 176.374C131.185 176.758 131.257 177.21 131.257 177.73ZM131.836 174.778H133.396L134.596 178.906H134.62L135.856 174.778H137.392L138.64 178.906H138.664L139.888 174.778H141.388L139.396 180.538H137.932L136.624 176.506H136.6L135.304 180.538H133.84L131.836 174.778ZM145.452 176.314C145.324 176.146 145.148 176.002 144.924 175.882C144.7 175.754 144.456 175.69 144.192 175.69C143.96 175.69 143.748 175.738 143.556 175.834C143.364 175.93 143.268 176.09 143.268 176.314C143.268 176.538 143.372 176.698 143.58 176.794C143.796 176.882 144.108 176.974 144.516 177.07C144.732 177.118 144.948 177.182 145.164 177.262C145.388 177.342 145.588 177.45 145.764 177.586C145.948 177.714 146.096 177.878 146.208 178.078C146.32 178.27 146.376 178.506 146.376 178.786C146.376 179.138 146.308 179.438 146.172 179.686C146.044 179.926 145.868 180.122 145.644 180.274C145.428 180.426 145.172 180.534 144.876 180.598C144.588 180.67 144.288 180.706 143.976 180.706C143.528 180.706 143.092 180.626 142.668 180.466C142.244 180.298 141.892 180.062 141.612 179.758L142.56 178.87C142.72 179.078 142.928 179.25 143.184 179.386C143.44 179.522 143.724 179.59 144.036 179.59C144.14 179.59 144.244 179.578 144.348 179.554C144.46 179.53 144.56 179.494 144.648 179.446C144.744 179.39 144.82 179.318 144.876 179.23C144.932 179.142 144.96 179.034 144.96 178.906C144.96 178.666 144.848 178.494 144.624 178.39C144.408 178.286 144.08 178.182 143.64 178.078C143.424 178.03 143.212 177.97 143.004 177.898C142.804 177.818 142.624 177.718 142.464 177.598C142.304 177.47 142.176 177.314 142.08 177.13C141.984 176.946 141.936 176.718 141.936 176.446C141.936 176.126 142 175.85 142.128 175.618C142.264 175.386 142.44 175.198 142.656 175.054C142.872 174.902 143.116 174.79 143.388 174.718C143.66 174.646 143.94 174.61 144.228 174.61C144.644 174.61 145.048 174.682 145.44 174.826C145.84 174.97 146.156 175.19 146.388 175.486L145.452 176.314ZM149.524 177.874H148.084V172.042H149.524V177.874ZM147.844 179.698C147.844 179.442 147.936 179.222 148.12 179.038C148.312 178.854 148.54 178.762 148.804 178.762C149.06 178.762 149.284 178.85 149.476 179.026C149.668 179.202 149.764 179.418 149.764 179.674C149.764 179.93 149.668 180.15 149.476 180.334C149.292 180.518 149.068 180.61 148.804 180.61C148.676 180.61 148.552 180.586 148.432 180.538C148.32 180.49 148.22 180.426 148.132 180.346C148.044 180.266 147.972 180.17 147.916 180.058C147.868 179.946 147.844 179.826 147.844 179.698ZM154.778 172.042H156.29V175.474H160.262V172.042H161.774V180.538H160.262V176.77H156.29V180.538H154.778V172.042ZM167.633 177.082C167.633 176.898 167.605 176.722 167.549 176.554C167.501 176.386 167.421 176.238 167.309 176.11C167.197 175.982 167.053 175.882 166.877 175.81C166.709 175.73 166.509 175.69 166.277 175.69C165.845 175.69 165.477 175.822 165.173 176.086C164.877 176.342 164.713 176.674 164.681 177.082H167.633ZM169.073 177.73C169.073 177.794 169.073 177.858 169.073 177.922C169.073 177.986 169.069 178.05 169.061 178.114H164.681C164.697 178.322 164.749 178.514 164.837 178.69C164.933 178.858 165.057 179.006 165.209 179.134C165.361 179.254 165.533 179.35 165.725 179.422C165.917 179.494 166.117 179.53 166.325 179.53C166.685 179.53 166.989 179.466 167.237 179.338C167.485 179.202 167.689 179.018 167.849 178.786L168.809 179.554C168.241 180.322 167.417 180.706 166.337 180.706C165.889 180.706 165.477 180.638 165.101 180.502C164.725 180.358 164.397 180.158 164.117 179.902C163.845 179.646 163.629 179.334 163.469 178.966C163.317 178.59 163.241 178.166 163.241 177.694C163.241 177.23 163.317 176.81 163.469 176.434C163.629 176.05 163.845 175.726 164.117 175.462C164.389 175.19 164.709 174.982 165.077 174.838C165.453 174.686 165.857 174.61 166.289 174.61C166.689 174.61 167.057 174.678 167.393 174.814C167.737 174.942 168.033 175.138 168.281 175.402C168.529 175.658 168.721 175.982 168.857 176.374C169.001 176.758 169.073 177.21 169.073 177.73ZM170.468 174.778H171.848V175.738H171.872C172.032 175.402 172.256 175.13 172.544 174.922C172.832 174.714 173.168 174.61 173.552 174.61C173.608 174.61 173.668 174.614 173.732 174.622C173.796 174.622 173.852 174.63 173.9 174.646V175.966C173.804 175.942 173.72 175.926 173.648 175.918C173.584 175.91 173.52 175.906 173.456 175.906C173.128 175.906 172.864 175.966 172.664 176.086C172.464 176.206 172.308 176.35 172.196 176.518C172.084 176.686 172.008 176.858 171.968 177.034C171.928 177.21 171.908 177.35 171.908 177.454V180.538H170.468V174.778ZM178.684 177.082C178.684 176.898 178.656 176.722 178.6 176.554C178.552 176.386 178.472 176.238 178.36 176.11C178.248 175.982 178.104 175.882 177.928 175.81C177.76 175.73 177.56 175.69 177.328 175.69C176.896 175.69 176.528 175.822 176.224 176.086C175.928 176.342 175.764 176.674 175.732 177.082H178.684ZM180.124 177.73C180.124 177.794 180.124 177.858 180.124 177.922C180.124 177.986 180.12 178.05 180.112 178.114H175.732C175.748 178.322 175.8 178.514 175.888 178.69C175.984 178.858 176.108 179.006 176.26 179.134C176.412 179.254 176.584 179.35 176.776 179.422C176.968 179.494 177.168 179.53 177.376 179.53C177.736 179.53 178.04 179.466 178.288 179.338C178.536 179.202 178.74 179.018 178.9 178.786L179.86 179.554C179.292 180.322 178.468 180.706 177.388 180.706C176.94 180.706 176.528 180.638 176.152 180.502C175.776 180.358 175.448 180.158 175.168 179.902C174.896 179.646 174.68 179.334 174.52 178.966C174.368 178.59 174.292 178.166 174.292 177.694C174.292 177.23 174.368 176.81 174.52 176.434C174.68 176.05 174.896 175.726 175.168 175.462C175.44 175.19 175.76 174.982 176.128 174.838C176.504 174.686 176.908 174.61 177.34 174.61C177.74 174.61 178.108 174.678 178.444 174.814C178.788 174.942 179.084 175.138 179.332 175.402C179.58 175.658 179.772 175.982 179.908 176.374C180.052 176.758 180.124 177.21 180.124 177.73ZM184.543 174.778H185.983V180.538H184.543V174.778ZM184.339 172.822C184.339 172.59 184.423 172.39 184.591 172.222C184.767 172.046 184.987 171.958 185.251 171.958C185.515 171.958 185.735 172.042 185.911 172.21C186.095 172.37 186.187 172.574 186.187 172.822C186.187 173.07 186.095 173.278 185.911 173.446C185.735 173.606 185.515 173.686 185.251 173.686C184.987 173.686 184.767 173.602 184.591 173.434C184.423 173.258 184.339 173.054 184.339 172.822ZM190.886 176.314C190.758 176.146 190.582 176.002 190.358 175.882C190.134 175.754 189.89 175.69 189.626 175.69C189.394 175.69 189.182 175.738 188.99 175.834C188.798 175.93 188.702 176.09 188.702 176.314C188.702 176.538 188.806 176.698 189.014 176.794C189.23 176.882 189.542 176.974 189.95 177.07C190.166 177.118 190.382 177.182 190.598 177.262C190.822 177.342 191.022 177.45 191.198 177.586C191.382 177.714 191.53 177.878 191.642 178.078C191.754 178.27 191.81 178.506 191.81 178.786C191.81 179.138 191.742 179.438 191.606 179.686C191.478 179.926 191.302 180.122 191.078 180.274C190.862 180.426 190.606 180.534 190.31 180.598C190.022 180.67 189.722 180.706 189.41 180.706C188.962 180.706 188.526 180.626 188.102 180.466C187.678 180.298 187.326 180.062 187.046 179.758L187.994 178.87C188.154 179.078 188.362 179.25 188.618 179.386C188.874 179.522 189.158 179.59 189.47 179.59C189.574 179.59 189.678 179.578 189.782 179.554C189.894 179.53 189.994 179.494 190.082 179.446C190.178 179.39 190.254 179.318 190.31 179.23C190.366 179.142 190.394 179.034 190.394 178.906C190.394 178.666 190.282 178.494 190.058 178.39C189.842 178.286 189.514 178.182 189.074 178.078C188.858 178.03 188.646 177.97 188.438 177.898C188.238 177.818 188.058 177.718 187.898 177.598C187.738 177.47 187.61 177.314 187.514 177.13C187.418 176.946 187.37 176.718 187.37 176.446C187.37 176.126 187.434 175.85 187.562 175.618C187.698 175.386 187.874 175.198 188.09 175.054C188.306 174.902 188.55 174.79 188.822 174.718C189.094 174.646 189.374 174.61 189.662 174.61C190.078 174.61 190.482 174.682 190.874 174.826C191.274 174.97 191.59 175.19 191.822 175.486L190.886 176.314ZM199.266 174.61C199.642 174.61 199.962 174.678 200.226 174.814C200.498 174.942 200.718 175.114 200.886 175.33C201.062 175.546 201.19 175.794 201.27 176.074C201.35 176.354 201.39 176.642 201.39 176.938V180.538H199.95V177.37C199.95 177.202 199.938 177.03 199.914 176.854C199.89 176.67 199.838 176.506 199.758 176.362C199.686 176.21 199.578 176.086 199.434 175.99C199.298 175.894 199.114 175.846 198.882 175.846C198.65 175.846 198.45 175.89 198.282 175.978C198.114 176.066 197.974 176.186 197.862 176.338C197.75 176.482 197.666 176.646 197.61 176.83C197.554 177.014 197.526 177.202 197.526 177.394V180.538H196.086V171.466H197.526V175.582H197.55C197.606 175.462 197.686 175.346 197.79 175.234C197.902 175.114 198.03 175.01 198.174 174.922C198.318 174.826 198.482 174.75 198.666 174.694C198.85 174.638 199.05 174.61 199.266 174.61ZM206.646 179.806H206.61C206.466 180.062 206.234 180.274 205.914 180.442C205.594 180.602 205.23 180.682 204.822 180.682C204.59 180.682 204.346 180.65 204.09 180.586C203.842 180.53 203.61 180.434 203.394 180.298C203.186 180.154 203.01 179.97 202.866 179.746C202.73 179.514 202.662 179.23 202.662 178.894C202.662 178.462 202.782 178.118 203.022 177.862C203.27 177.606 203.586 177.41 203.97 177.274C204.354 177.138 204.778 177.05 205.242 177.01C205.714 176.962 206.174 176.938 206.622 176.938V176.794C206.622 176.434 206.49 176.17 206.226 176.002C205.97 175.826 205.662 175.738 205.302 175.738C204.998 175.738 204.706 175.802 204.426 175.93C204.146 176.058 203.914 176.214 203.73 176.398L202.986 175.522C203.314 175.218 203.69 174.99 204.114 174.838C204.546 174.686 204.982 174.61 205.422 174.61C205.934 174.61 206.354 174.682 206.682 174.826C207.018 174.97 207.282 175.158 207.474 175.39C207.666 175.622 207.798 175.882 207.87 176.17C207.95 176.458 207.99 176.746 207.99 177.034V180.538H206.646V179.806ZM206.622 177.91H206.298C206.066 177.91 205.822 177.922 205.566 177.946C205.31 177.962 205.074 178.006 204.858 178.078C204.642 178.142 204.462 178.238 204.318 178.366C204.174 178.486 204.102 178.654 204.102 178.87C204.102 179.006 204.13 179.122 204.186 179.218C204.25 179.306 204.33 179.378 204.426 179.434C204.522 179.49 204.63 179.53 204.75 179.554C204.87 179.578 204.99 179.59 205.11 179.59C205.606 179.59 205.982 179.458 206.238 179.194C206.494 178.93 206.622 178.57 206.622 178.114V177.91ZM209.691 171.466H211.131V180.538H209.691V171.466ZM213.106 175.93H212.014V174.778H213.106V173.926C213.106 173.582 213.142 173.254 213.214 172.942C213.294 172.622 213.422 172.342 213.598 172.102C213.782 171.862 214.022 171.674 214.318 171.538C214.614 171.394 214.986 171.322 215.434 171.322C215.594 171.322 215.726 171.33 215.83 171.346C215.942 171.354 216.054 171.374 216.166 171.406L216.07 172.63C215.99 172.606 215.902 172.586 215.806 172.57C215.718 172.554 215.622 172.546 215.518 172.546C215.31 172.546 215.142 172.586 215.014 172.666C214.886 172.746 214.786 172.85 214.714 172.978C214.65 173.106 214.606 173.246 214.582 173.398C214.558 173.55 214.546 173.698 214.546 173.842V174.778H215.878V175.93H214.546V180.538H213.106V175.93ZM223.638 179.806H223.602C223.458 180.062 223.226 180.274 222.906 180.442C222.586 180.602 222.222 180.682 221.814 180.682C221.582 180.682 221.338 180.65 221.082 180.586C220.834 180.53 220.602 180.434 220.386 180.298C220.178 180.154 220.002 179.97 219.858 179.746C219.722 179.514 219.654 179.23 219.654 178.894C219.654 178.462 219.774 178.118 220.014 177.862C220.262 177.606 220.578 177.41 220.962 177.274C221.346 177.138 221.77 177.05 222.234 177.01C222.706 176.962 223.166 176.938 223.614 176.938V176.794C223.614 176.434 223.482 176.17 223.218 176.002C222.962 175.826 222.654 175.738 222.294 175.738C221.99 175.738 221.698 175.802 221.418 175.93C221.138 176.058 220.906 176.214 220.722 176.398L219.978 175.522C220.306 175.218 220.682 174.99 221.106 174.838C221.538 174.686 221.974 174.61 222.414 174.61C222.926 174.61 223.346 174.682 223.674 174.826C224.01 174.97 224.274 175.158 224.466 175.39C224.658 175.622 224.79 175.882 224.862 176.17C224.942 176.458 224.982 176.746 224.982 177.034V180.538H223.638V179.806ZM223.614 177.91H223.29C223.058 177.91 222.814 177.922 222.558 177.946C222.302 177.962 222.066 178.006 221.85 178.078C221.634 178.142 221.454 178.238 221.31 178.366C221.166 178.486 221.094 178.654 221.094 178.87C221.094 179.006 221.122 179.122 221.178 179.218C221.242 179.306 221.322 179.378 221.418 179.434C221.514 179.49 221.622 179.53 221.742 179.554C221.862 179.578 221.982 179.59 222.102 179.59C222.598 179.59 222.974 179.458 223.23 179.194C223.486 178.93 223.614 178.57 223.614 178.114V177.91ZM91.1174 190.61C91.4934 190.61 91.8134 190.678 92.0774 190.814C92.3494 190.942 92.5694 191.114 92.7374 191.33C92.9134 191.546 93.0414 191.794 93.1214 192.074C93.2014 192.354 93.2414 192.642 93.2414 192.938V196.538H91.8014V193.346C91.8014 193.178 91.7894 193.002 91.7654 192.818C91.7414 192.634 91.6894 192.47 91.6094 192.326C91.5294 192.174 91.4174 192.05 91.2734 191.954C91.1374 191.858 90.9534 191.81 90.7214 191.81C90.4974 191.81 90.3054 191.858 90.1454 191.954C89.9854 192.05 89.8534 192.174 89.7494 192.326C89.6454 192.478 89.5694 192.65 89.5214 192.842C89.4734 193.026 89.4494 193.21 89.4494 193.394V196.538H88.0094V193.058C88.0094 192.698 87.9214 192.402 87.7454 192.17C87.5774 191.93 87.3094 191.81 86.9414 191.81C86.7254 191.81 86.5374 191.858 86.3774 191.954C86.2174 192.042 86.0854 192.158 85.9814 192.302C85.8854 192.446 85.8094 192.614 85.7534 192.806C85.7054 192.99 85.6814 193.178 85.6814 193.37V196.538H84.2414V190.778H85.6094V191.702H85.6334C85.6974 191.558 85.7814 191.422 85.8854 191.294C85.9974 191.166 86.1254 191.05 86.2694 190.946C86.4214 190.842 86.5934 190.762 86.7854 190.706C86.9774 190.642 87.1894 190.61 87.4214 190.61C87.8694 190.61 88.2414 190.71 88.5374 190.91C88.8334 191.11 89.0614 191.374 89.2214 191.702C89.4134 191.35 89.6694 191.082 89.9894 190.898C90.3094 190.706 90.6854 190.61 91.1174 190.61ZM94.5812 193.634C94.5812 193.178 94.6612 192.766 94.8212 192.398C94.9892 192.022 95.2132 191.702 95.4932 191.438C95.7732 191.174 96.1052 190.97 96.4892 190.826C96.8732 190.682 97.2812 190.61 97.7132 190.61C98.1452 190.61 98.5532 190.682 98.9372 190.826C99.3212 190.97 99.6532 191.174 99.9332 191.438C100.213 191.702 100.433 192.022 100.593 192.398C100.761 192.766 100.845 193.178 100.845 193.634C100.845 194.09 100.761 194.506 100.593 194.882C100.433 195.258 100.213 195.582 99.9332 195.854C99.6532 196.118 99.3212 196.326 98.9372 196.478C98.5532 196.63 98.1452 196.706 97.7132 196.706C97.2812 196.706 96.8732 196.63 96.4892 196.478C96.1052 196.326 95.7732 196.118 95.4932 195.854C95.2132 195.582 94.9892 195.258 94.8212 194.882C94.6612 194.506 94.5812 194.09 94.5812 193.634ZM96.0452 193.634C96.0452 193.858 96.0772 194.082 96.1412 194.306C96.2132 194.53 96.3172 194.73 96.4532 194.906C96.5892 195.082 96.7612 195.226 96.9692 195.338C97.1772 195.45 97.4252 195.506 97.7132 195.506C98.0012 195.506 98.2492 195.45 98.4572 195.338C98.6652 195.226 98.8372 195.082 98.9732 194.906C99.1092 194.73 99.2092 194.53 99.2732 194.306C99.3452 194.082 99.3812 193.858 99.3812 193.634C99.3812 193.41 99.3452 193.19 99.2732 192.974C99.2092 192.75 99.1092 192.55 98.9732 192.374C98.8372 192.198 98.6652 192.058 98.4572 191.954C98.2492 191.842 98.0012 191.786 97.7132 191.786C97.4252 191.786 97.1772 191.842 96.9692 191.954C96.7612 192.058 96.5892 192.198 96.4532 192.374C96.3172 192.55 96.2132 192.75 96.1412 192.974C96.0772 193.19 96.0452 193.41 96.0452 193.634ZM102.241 190.778H103.609V191.702H103.633C103.761 191.414 103.981 191.162 104.293 190.946C104.613 190.722 104.989 190.61 105.421 190.61C105.797 190.61 106.117 190.678 106.381 190.814C106.653 190.942 106.873 191.114 107.041 191.33C107.217 191.546 107.345 191.794 107.425 192.074C107.505 192.354 107.545 192.642 107.545 192.938V196.538H106.105V193.346C106.105 193.178 106.093 193.002 106.069 192.818C106.045 192.634 105.993 192.47 105.913 192.326C105.833 192.174 105.721 192.05 105.577 191.954C105.441 191.858 105.257 191.81 105.025 191.81C104.793 191.81 104.593 191.858 104.425 191.954C104.257 192.042 104.117 192.158 104.005 192.302C103.901 192.446 103.821 192.614 103.765 192.806C103.709 192.99 103.681 193.178 103.681 193.37V196.538H102.241V190.778ZM108.398 191.93V190.778H109.406V189.11H110.822V190.778H112.262V191.93H110.822V194.606C110.822 194.862 110.866 195.074 110.954 195.242C111.05 195.41 111.258 195.494 111.578 195.494C111.674 195.494 111.778 195.486 111.89 195.47C112.002 195.446 112.102 195.414 112.19 195.374L112.238 196.502C112.11 196.55 111.958 196.586 111.782 196.61C111.606 196.642 111.438 196.658 111.278 196.658C110.894 196.658 110.582 196.606 110.342 196.502C110.102 196.39 109.91 196.242 109.766 196.058C109.63 195.866 109.534 195.65 109.478 195.41C109.43 195.162 109.406 194.898 109.406 194.618V191.93H108.398ZM116.508 190.61C116.884 190.61 117.204 190.678 117.468 190.814C117.74 190.942 117.96 191.114 118.128 191.33C118.304 191.546 118.432 191.794 118.512 192.074C118.592 192.354 118.632 192.642 118.632 192.938V196.538H117.192V193.37C117.192 193.202 117.18 193.03 117.156 192.854C117.132 192.67 117.08 192.506 117 192.362C116.928 192.21 116.82 192.086 116.676 191.99C116.54 191.894 116.356 191.846 116.124 191.846C115.892 191.846 115.692 191.89 115.524 191.978C115.356 192.066 115.216 192.186 115.104 192.338C114.992 192.482 114.908 192.646 114.852 192.83C114.796 193.014 114.768 193.202 114.768 193.394V196.538H113.328V187.466H114.768V191.582H114.792C114.848 191.462 114.928 191.346 115.032 191.234C115.144 191.114 115.272 191.01 115.416 190.922C115.56 190.826 115.724 190.75 115.908 190.694C116.092 190.638 116.292 190.61 116.508 190.61ZM122.976 193.634C122.976 193.178 123.056 192.766 123.216 192.398C123.384 192.022 123.608 191.702 123.888 191.438C124.168 191.174 124.5 190.97 124.884 190.826C125.268 190.682 125.676 190.61 126.108 190.61C126.54 190.61 126.948 190.682 127.332 190.826C127.716 190.97 128.048 191.174 128.328 191.438C128.608 191.702 128.828 192.022 128.988 192.398C129.156 192.766 129.24 193.178 129.24 193.634C129.24 194.09 129.156 194.506 128.988 194.882C128.828 195.258 128.608 195.582 128.328 195.854C128.048 196.118 127.716 196.326 127.332 196.478C126.948 196.63 126.54 196.706 126.108 196.706C125.676 196.706 125.268 196.63 124.884 196.478C124.5 196.326 124.168 196.118 123.888 195.854C123.608 195.582 123.384 195.258 123.216 194.882C123.056 194.506 122.976 194.09 122.976 193.634ZM124.44 193.634C124.44 193.858 124.472 194.082 124.536 194.306C124.608 194.53 124.712 194.73 124.848 194.906C124.984 195.082 125.156 195.226 125.364 195.338C125.572 195.45 125.82 195.506 126.108 195.506C126.396 195.506 126.644 195.45 126.852 195.338C127.06 195.226 127.232 195.082 127.368 194.906C127.504 194.73 127.604 194.53 127.668 194.306C127.74 194.082 127.776 193.858 127.776 193.634C127.776 193.41 127.74 193.19 127.668 192.974C127.604 192.75 127.504 192.55 127.368 192.374C127.232 192.198 127.06 192.058 126.852 191.954C126.644 191.842 126.396 191.786 126.108 191.786C125.82 191.786 125.572 191.842 125.364 191.954C125.156 192.058 124.984 192.198 124.848 192.374C124.712 192.55 124.608 192.75 124.536 192.974C124.472 193.19 124.44 193.41 124.44 193.634ZM130.864 191.93H129.772V190.778H130.864V189.926C130.864 189.582 130.9 189.254 130.972 188.942C131.052 188.622 131.18 188.342 131.356 188.102C131.54 187.862 131.78 187.674 132.076 187.538C132.372 187.394 132.744 187.322 133.192 187.322C133.352 187.322 133.484 187.33 133.588 187.346C133.7 187.354 133.812 187.374 133.924 187.406L133.828 188.63C133.748 188.606 133.66 188.586 133.564 188.57C133.476 188.554 133.38 188.546 133.276 188.546C133.068 188.546 132.9 188.586 132.772 188.666C132.644 188.746 132.544 188.85 132.472 188.978C132.408 189.106 132.364 189.246 132.34 189.398C132.316 189.55 132.304 189.698 132.304 189.842V190.778H133.636V191.93H132.304V196.538H130.864V191.93ZM138.048 191.93H136.956V190.778H138.048V189.926C138.048 189.582 138.084 189.254 138.156 188.942C138.236 188.622 138.364 188.342 138.54 188.102C138.724 187.862 138.964 187.674 139.26 187.538C139.556 187.394 139.928 187.322 140.376 187.322C140.536 187.322 140.668 187.33 140.772 187.346C140.884 187.354 140.996 187.374 141.108 187.406L141.012 188.63C140.932 188.606 140.844 188.586 140.748 188.57C140.66 188.554 140.564 188.546 140.46 188.546C140.252 188.546 140.084 188.586 139.956 188.666C139.828 188.746 139.728 188.85 139.656 188.978C139.592 189.106 139.548 189.246 139.524 189.398C139.5 189.55 139.488 189.698 139.488 189.842V190.778H140.82V191.93H139.488V196.538H138.048V191.93ZM141.71 190.778H143.09V191.738H143.114C143.274 191.402 143.498 191.13 143.786 190.922C144.074 190.714 144.41 190.61 144.794 190.61C144.85 190.61 144.91 190.614 144.974 190.622C145.038 190.622 145.094 190.63 145.142 190.646V191.966C145.046 191.942 144.962 191.926 144.89 191.918C144.826 191.91 144.762 191.906 144.698 191.906C144.37 191.906 144.106 191.966 143.906 192.086C143.706 192.206 143.55 192.35 143.438 192.518C143.326 192.686 143.25 192.858 143.21 193.034C143.17 193.21 143.15 193.35 143.15 193.454V196.538H141.71V190.778ZM149.926 193.082C149.926 192.898 149.898 192.722 149.842 192.554C149.794 192.386 149.714 192.238 149.602 192.11C149.49 191.982 149.346 191.882 149.17 191.81C149.002 191.73 148.802 191.69 148.57 191.69C148.138 191.69 147.77 191.822 147.466 192.086C147.17 192.342 147.006 192.674 146.974 193.082H149.926ZM151.366 193.73C151.366 193.794 151.366 193.858 151.366 193.922C151.366 193.986 151.362 194.05 151.354 194.114H146.974C146.99 194.322 147.042 194.514 147.13 194.69C147.226 194.858 147.35 195.006 147.502 195.134C147.654 195.254 147.826 195.35 148.018 195.422C148.21 195.494 148.41 195.53 148.618 195.53C148.978 195.53 149.282 195.466 149.53 195.338C149.778 195.202 149.982 195.018 150.142 194.786L151.102 195.554C150.534 196.322 149.71 196.706 148.63 196.706C148.182 196.706 147.77 196.638 147.394 196.502C147.018 196.358 146.69 196.158 146.41 195.902C146.138 195.646 145.922 195.334 145.762 194.966C145.61 194.59 145.534 194.166 145.534 193.694C145.534 193.23 145.61 192.81 145.762 192.434C145.922 192.05 146.138 191.726 146.41 191.462C146.682 191.19 147.002 190.982 147.37 190.838C147.746 190.686 148.15 190.61 148.582 190.61C148.982 190.61 149.35 190.678 149.686 190.814C150.03 190.942 150.326 191.138 150.574 191.402C150.822 191.658 151.014 191.982 151.15 192.374C151.294 192.758 151.366 193.21 151.366 193.73ZM156.817 193.082C156.817 192.898 156.789 192.722 156.733 192.554C156.685 192.386 156.605 192.238 156.493 192.11C156.381 191.982 156.237 191.882 156.061 191.81C155.893 191.73 155.693 191.69 155.461 191.69C155.029 191.69 154.661 191.822 154.357 192.086C154.061 192.342 153.897 192.674 153.865 193.082H156.817ZM158.257 193.73C158.257 193.794 158.257 193.858 158.257 193.922C158.257 193.986 158.253 194.05 158.245 194.114H153.865C153.881 194.322 153.933 194.514 154.021 194.69C154.117 194.858 154.241 195.006 154.393 195.134C154.545 195.254 154.717 195.35 154.909 195.422C155.101 195.494 155.301 195.53 155.509 195.53C155.869 195.53 156.173 195.466 156.421 195.338C156.669 195.202 156.873 195.018 157.033 194.786L157.993 195.554C157.425 196.322 156.601 196.706 155.521 196.706C155.073 196.706 154.661 196.638 154.285 196.502C153.909 196.358 153.581 196.158 153.301 195.902C153.029 195.646 152.813 195.334 152.653 194.966C152.501 194.59 152.425 194.166 152.425 193.694C152.425 193.23 152.501 192.81 152.653 192.434C152.813 192.05 153.029 191.726 153.301 191.462C153.573 191.19 153.893 190.982 154.261 190.838C154.637 190.686 155.041 190.61 155.473 190.61C155.873 190.61 156.241 190.678 156.577 190.814C156.921 190.942 157.217 191.138 157.465 191.402C157.713 191.658 157.905 191.982 158.041 192.374C158.185 192.758 158.257 193.21 158.257 193.73ZM166.588 192.374C166.476 192.214 166.308 192.082 166.084 191.978C165.86 191.866 165.632 191.81 165.4 191.81C165.136 191.81 164.904 191.866 164.704 191.978C164.504 192.082 164.336 192.222 164.2 192.398C164.072 192.574 163.976 192.774 163.912 192.998C163.848 193.214 163.816 193.434 163.816 193.658C163.816 193.882 163.848 194.106 163.912 194.33C163.984 194.546 164.088 194.742 164.224 194.918C164.36 195.094 164.528 195.238 164.728 195.35C164.936 195.454 165.176 195.506 165.448 195.506C165.672 195.506 165.896 195.462 166.12 195.374C166.344 195.286 166.524 195.158 166.66 194.99L167.56 195.902C167.32 196.158 167.012 196.358 166.636 196.502C166.268 196.638 165.868 196.706 165.436 196.706C165.012 196.706 164.608 196.638 164.224 196.502C163.848 196.366 163.516 196.166 163.228 195.902C162.948 195.638 162.724 195.318 162.556 194.942C162.396 194.566 162.316 194.138 162.316 193.658C162.316 193.194 162.396 192.774 162.556 192.398C162.724 192.022 162.948 191.702 163.228 191.438C163.508 191.174 163.832 190.97 164.2 190.826C164.576 190.682 164.976 190.61 165.4 190.61C165.824 190.61 166.232 190.69 166.624 190.85C167.024 191.01 167.34 191.23 167.572 191.51L166.588 192.374ZM172.087 195.806H172.051C171.907 196.062 171.675 196.274 171.355 196.442C171.035 196.602 170.671 196.682 170.263 196.682C170.031 196.682 169.787 196.65 169.531 196.586C169.283 196.53 169.051 196.434 168.835 196.298C168.627 196.154 168.451 195.97 168.307 195.746C168.171 195.514 168.103 195.23 168.103 194.894C168.103 194.462 168.223 194.118 168.463 193.862C168.711 193.606 169.027 193.41 169.411 193.274C169.795 193.138 170.219 193.05 170.683 193.01C171.155 192.962 171.615 192.938 172.063 192.938V192.794C172.063 192.434 171.931 192.17 171.667 192.002C171.411 191.826 171.103 191.738 170.743 191.738C170.439 191.738 170.147 191.802 169.867 191.93C169.587 192.058 169.355 192.214 169.171 192.398L168.427 191.522C168.755 191.218 169.131 190.99 169.555 190.838C169.987 190.686 170.423 190.61 170.863 190.61C171.375 190.61 171.795 190.682 172.123 190.826C172.459 190.97 172.723 191.158 172.915 191.39C173.107 191.622 173.239 191.882 173.311 192.17C173.391 192.458 173.431 192.746 173.431 193.034V196.538H172.087V195.806ZM172.063 193.91H171.739C171.507 193.91 171.263 193.922 171.007 193.946C170.751 193.962 170.515 194.006 170.299 194.078C170.083 194.142 169.903 194.238 169.759 194.366C169.615 194.486 169.543 194.654 169.543 194.87C169.543 195.006 169.571 195.122 169.627 195.218C169.691 195.306 169.771 195.378 169.867 195.434C169.963 195.49 170.071 195.53 170.191 195.554C170.311 195.578 170.431 195.59 170.551 195.59C171.047 195.59 171.423 195.458 171.679 195.194C171.935 194.93 172.063 194.57 172.063 194.114V193.91ZM175.109 190.778H176.489V191.738H176.513C176.673 191.402 176.897 191.13 177.185 190.922C177.473 190.714 177.809 190.61 178.193 190.61C178.249 190.61 178.309 190.614 178.373 190.622C178.437 190.622 178.493 190.63 178.541 190.646V191.966C178.445 191.942 178.361 191.926 178.289 191.918C178.225 191.91 178.161 191.906 178.097 191.906C177.769 191.906 177.505 191.966 177.305 192.086C177.105 192.206 176.949 192.35 176.837 192.518C176.725 192.686 176.649 192.858 176.609 193.034C176.569 193.21 176.549 193.35 176.549 193.454V196.538H175.109V190.778ZM181.664 190.778H183.224L184.424 194.906H184.448L185.684 190.778H187.22L188.468 194.906H188.492L189.716 190.778H191.216L189.224 196.538H187.76L186.452 192.506H186.428L185.132 196.538H183.668L181.664 190.778ZM195.7 195.806H195.664C195.52 196.062 195.288 196.274 194.968 196.442C194.648 196.602 194.284 196.682 193.876 196.682C193.644 196.682 193.4 196.65 193.144 196.586C192.896 196.53 192.664 196.434 192.448 196.298C192.24 196.154 192.064 195.97 191.92 195.746C191.784 195.514 191.716 195.23 191.716 194.894C191.716 194.462 191.836 194.118 192.076 193.862C192.324 193.606 192.64 193.41 193.024 193.274C193.408 193.138 193.832 193.05 194.296 193.01C194.768 192.962 195.228 192.938 195.676 192.938V192.794C195.676 192.434 195.544 192.17 195.28 192.002C195.024 191.826 194.716 191.738 194.356 191.738C194.052 191.738 193.76 191.802 193.48 191.93C193.2 192.058 192.968 192.214 192.784 192.398L192.04 191.522C192.368 191.218 192.744 190.99 193.168 190.838C193.6 190.686 194.036 190.61 194.476 190.61C194.988 190.61 195.408 190.682 195.736 190.826C196.072 190.97 196.336 191.158 196.528 191.39C196.72 191.622 196.852 191.882 196.924 192.17C197.004 192.458 197.044 192.746 197.044 193.034V196.538H195.7V195.806ZM195.676 193.91H195.352C195.12 193.91 194.876 193.922 194.62 193.946C194.364 193.962 194.128 194.006 193.912 194.078C193.696 194.142 193.516 194.238 193.372 194.366C193.228 194.486 193.156 194.654 193.156 194.87C193.156 195.006 193.184 195.122 193.24 195.218C193.304 195.306 193.384 195.378 193.48 195.434C193.576 195.49 193.684 195.53 193.804 195.554C193.924 195.578 194.044 195.59 194.164 195.59C194.66 195.59 195.036 195.458 195.292 195.194C195.548 194.93 195.676 194.57 195.676 194.114V193.91ZM201.878 192.314C201.75 192.146 201.574 192.002 201.35 191.882C201.126 191.754 200.882 191.69 200.618 191.69C200.386 191.69 200.174 191.738 199.982 191.834C199.79 191.93 199.694 192.09 199.694 192.314C199.694 192.538 199.798 192.698 200.006 192.794C200.222 192.882 200.534 192.974 200.942 193.07C201.158 193.118 201.374 193.182 201.59 193.262C201.814 193.342 202.014 193.45 202.19 193.586C202.374 193.714 202.522 193.878 202.634 194.078C202.746 194.27 202.802 194.506 202.802 194.786C202.802 195.138 202.734 195.438 202.598 195.686C202.47 195.926 202.294 196.122 202.07 196.274C201.854 196.426 201.598 196.534 201.302 196.598C201.014 196.67 200.714 196.706 200.402 196.706C199.954 196.706 199.518 196.626 199.094 196.466C198.67 196.298 198.318 196.062 198.038 195.758L198.986 194.87C199.146 195.078 199.354 195.25 199.61 195.386C199.866 195.522 200.15 195.59 200.462 195.59C200.566 195.59 200.67 195.578 200.774 195.554C200.886 195.53 200.986 195.494 201.074 195.446C201.17 195.39 201.246 195.318 201.302 195.23C201.358 195.142 201.386 195.034 201.386 194.906C201.386 194.666 201.274 194.494 201.05 194.39C200.834 194.286 200.506 194.182 200.066 194.078C199.85 194.03 199.638 193.97 199.43 193.898C199.23 193.818 199.05 193.718 198.89 193.598C198.73 193.47 198.602 193.314 198.506 193.13C198.41 192.946 198.362 192.718 198.362 192.446C198.362 192.126 198.426 191.85 198.554 191.618C198.69 191.386 198.866 191.198 199.082 191.054C199.298 190.902 199.542 190.79 199.814 190.718C200.086 190.646 200.366 190.61 200.654 190.61C201.07 190.61 201.474 190.682 201.866 190.826C202.266 190.97 202.582 191.19 202.814 191.486L201.878 192.314ZM207.258 190.61C207.634 190.61 207.954 190.678 208.218 190.814C208.49 190.942 208.71 191.114 208.878 191.33C209.054 191.546 209.182 191.794 209.262 192.074C209.342 192.354 209.382 192.642 209.382 192.938V196.538H207.942V193.37C207.942 193.202 207.93 193.03 207.906 192.854C207.882 192.67 207.83 192.506 207.75 192.362C207.678 192.21 207.57 192.086 207.426 191.99C207.29 191.894 207.106 191.846 206.874 191.846C206.642 191.846 206.442 191.89 206.274 191.978C206.106 192.066 205.966 192.186 205.854 192.338C205.742 192.482 205.658 192.646 205.602 192.83C205.546 193.014 205.518 193.202 205.518 193.394V196.538H204.078V187.466H205.518V191.582H205.542C205.598 191.462 205.678 191.346 205.782 191.234C205.894 191.114 206.022 191.01 206.166 190.922C206.31 190.826 206.474 190.75 206.658 190.694C206.842 190.638 207.042 190.61 207.258 190.61ZM215.118 193.082C215.118 192.898 215.09 192.722 215.034 192.554C214.986 192.386 214.906 192.238 214.794 192.11C214.682 191.982 214.538 191.882 214.362 191.81C214.194 191.73 213.994 191.69 213.762 191.69C213.33 191.69 212.962 191.822 212.658 192.086C212.362 192.342 212.198 192.674 212.166 193.082H215.118ZM216.558 193.73C216.558 193.794 216.558 193.858 216.558 193.922C216.558 193.986 216.554 194.05 216.546 194.114H212.166C212.182 194.322 212.234 194.514 212.322 194.69C212.418 194.858 212.542 195.006 212.694 195.134C212.846 195.254 213.018 195.35 213.21 195.422C213.402 195.494 213.602 195.53 213.81 195.53C214.17 195.53 214.474 195.466 214.722 195.338C214.97 195.202 215.174 195.018 215.334 194.786L216.294 195.554C215.726 196.322 214.902 196.706 213.822 196.706C213.374 196.706 212.962 196.638 212.586 196.502C212.21 196.358 211.882 196.158 211.602 195.902C211.33 195.646 211.114 195.334 210.954 194.966C210.802 194.59 210.726 194.166 210.726 193.694C210.726 193.23 210.802 192.81 210.954 192.434C211.114 192.05 211.33 191.726 211.602 191.462C211.874 191.19 212.194 190.982 212.562 190.838C212.938 190.686 213.342 190.61 213.774 190.61C214.174 190.61 214.542 190.678 214.878 190.814C215.222 190.942 215.518 191.138 215.766 191.402C216.014 191.658 216.206 191.982 216.342 192.374C216.486 192.758 216.558 193.21 216.558 193.73ZM221.108 192.314C220.98 192.146 220.804 192.002 220.58 191.882C220.356 191.754 220.112 191.69 219.848 191.69C219.616 191.69 219.404 191.738 219.212 191.834C219.02 191.93 218.924 192.09 218.924 192.314C218.924 192.538 219.028 192.698 219.236 192.794C219.452 192.882 219.764 192.974 220.172 193.07C220.388 193.118 220.604 193.182 220.82 193.262C221.044 193.342 221.244 193.45 221.42 193.586C221.604 193.714 221.752 193.878 221.864 194.078C221.976 194.27 222.032 194.506 222.032 194.786C222.032 195.138 221.964 195.438 221.828 195.686C221.7 195.926 221.524 196.122 221.3 196.274C221.084 196.426 220.828 196.534 220.532 196.598C220.244 196.67 219.944 196.706 219.632 196.706C219.184 196.706 218.748 196.626 218.324 196.466C217.9 196.298 217.548 196.062 217.268 195.758L218.216 194.87C218.376 195.078 218.584 195.25 218.84 195.386C219.096 195.522 219.38 195.59 219.692 195.59C219.796 195.59 219.9 195.578 220.004 195.554C220.116 195.53 220.216 195.494 220.304 195.446C220.4 195.39 220.476 195.318 220.532 195.23C220.588 195.142 220.616 195.034 220.616 194.906C220.616 194.666 220.504 194.494 220.28 194.39C220.064 194.286 219.736 194.182 219.296 194.078C219.08 194.03 218.868 193.97 218.66 193.898C218.46 193.818 218.28 193.718 218.12 193.598C217.96 193.47 217.832 193.314 217.736 193.13C217.64 192.946 217.592 192.718 217.592 192.446C217.592 192.126 217.656 191.85 217.784 191.618C217.92 191.386 218.096 191.198 218.312 191.054C218.528 190.902 218.772 190.79 219.044 190.718C219.316 190.646 219.596 190.61 219.884 190.61C220.3 190.61 220.704 190.682 221.096 190.826C221.496 190.97 221.812 191.19 222.044 191.486L221.108 192.314ZM225.948 193.634C225.948 193.178 226.028 192.766 226.188 192.398C226.356 192.022 226.58 191.702 226.86 191.438C227.14 191.174 227.472 190.97 227.856 190.826C228.24 190.682 228.648 190.61 229.08 190.61C229.512 190.61 229.92 190.682 230.304 190.826C230.688 190.97 231.02 191.174 231.3 191.438C231.58 191.702 231.8 192.022 231.96 192.398C232.128 192.766 232.212 193.178 232.212 193.634C232.212 194.09 232.128 194.506 231.96 194.882C231.8 195.258 231.58 195.582 231.3 195.854C231.02 196.118 230.688 196.326 230.304 196.478C229.92 196.63 229.512 196.706 229.08 196.706C228.648 196.706 228.24 196.63 227.856 196.478C227.472 196.326 227.14 196.118 226.86 195.854C226.58 195.582 226.356 195.258 226.188 194.882C226.028 194.506 225.948 194.09 225.948 193.634ZM227.412 193.634C227.412 193.858 227.444 194.082 227.508 194.306C227.58 194.53 227.684 194.73 227.82 194.906C227.956 195.082 228.128 195.226 228.336 195.338C228.544 195.45 228.792 195.506 229.08 195.506C229.368 195.506 229.616 195.45 229.824 195.338C230.032 195.226 230.204 195.082 230.34 194.906C230.476 194.73 230.576 194.53 230.64 194.306C230.712 194.082 230.748 193.858 230.748 193.634C230.748 193.41 230.712 193.19 230.64 192.974C230.576 192.75 230.476 192.55 230.34 192.374C230.204 192.198 230.032 192.058 229.824 191.954C229.616 191.842 229.368 191.786 229.08 191.786C228.792 191.786 228.544 191.842 228.336 191.954C228.128 192.058 227.956 192.198 227.82 192.374C227.684 192.55 227.58 192.75 227.508 192.974C227.444 193.19 227.412 193.41 227.412 193.634ZM233.609 190.778H234.977V191.702H235.001C235.129 191.414 235.349 191.162 235.661 190.946C235.981 190.722 236.357 190.61 236.789 190.61C237.165 190.61 237.485 190.678 237.749 190.814C238.021 190.942 238.241 191.114 238.409 191.33C238.585 191.546 238.713 191.794 238.793 192.074C238.873 192.354 238.913 192.642 238.913 192.938V196.538H237.473V193.346C237.473 193.178 237.461 193.002 237.437 192.818C237.413 192.634 237.361 192.47 237.281 192.326C237.201 192.174 237.089 192.05 236.945 191.954C236.809 191.858 236.625 191.81 236.393 191.81C236.161 191.81 235.961 191.858 235.793 191.954C235.625 192.042 235.485 192.158 235.373 192.302C235.269 192.446 235.189 192.614 235.133 192.806C235.077 192.99 235.049 193.178 235.049 193.37V196.538H233.609V190.778ZM91.1174 206.61C91.4934 206.61 91.8134 206.678 92.0774 206.814C92.3494 206.942 92.5694 207.114 92.7374 207.33C92.9134 207.546 93.0414 207.794 93.1214 208.074C93.2014 208.354 93.2414 208.642 93.2414 208.938V212.538H91.8014V209.346C91.8014 209.178 91.7894 209.002 91.7654 208.818C91.7414 208.634 91.6894 208.47 91.6094 208.326C91.5294 208.174 91.4174 208.05 91.2734 207.954C91.1374 207.858 90.9534 207.81 90.7214 207.81C90.4974 207.81 90.3054 207.858 90.1454 207.954C89.9854 208.05 89.8534 208.174 89.7494 208.326C89.6454 208.478 89.5694 208.65 89.5214 208.842C89.4734 209.026 89.4494 209.21 89.4494 209.394V212.538H88.0094V209.058C88.0094 208.698 87.9214 208.402 87.7454 208.17C87.5774 207.93 87.3094 207.81 86.9414 207.81C86.7254 207.81 86.5374 207.858 86.3774 207.954C86.2174 208.042 86.0854 208.158 85.9814 208.302C85.8854 208.446 85.8094 208.614 85.7534 208.806C85.7054 208.99 85.6814 209.178 85.6814 209.37V212.538H84.2414V206.778H85.6094V207.702H85.6334C85.6974 207.558 85.7814 207.422 85.8854 207.294C85.9974 207.166 86.1254 207.05 86.2694 206.946C86.4214 206.842 86.5934 206.762 86.7854 206.706C86.9774 206.642 87.1894 206.61 87.4214 206.61C87.8694 206.61 88.2414 206.71 88.5374 206.91C88.8334 207.11 89.0614 207.374 89.2214 207.702C89.4134 207.35 89.6694 207.082 89.9894 206.898C90.3094 206.706 90.6854 206.61 91.1174 206.61ZM98.9732 209.082C98.9732 208.898 98.9452 208.722 98.8892 208.554C98.8412 208.386 98.7612 208.238 98.6492 208.11C98.5372 207.982 98.3932 207.882 98.2172 207.81C98.0492 207.73 97.8492 207.69 97.6172 207.69C97.1852 207.69 96.8172 207.822 96.5132 208.086C96.2172 208.342 96.0532 208.674 96.0212 209.082H98.9732ZM100.413 209.73C100.413 209.794 100.413 209.858 100.413 209.922C100.413 209.986 100.409 210.05 100.401 210.114H96.0212C96.0372 210.322 96.0892 210.514 96.1772 210.69C96.2732 210.858 96.3972 211.006 96.5492 211.134C96.7012 211.254 96.8732 211.35 97.0652 211.422C97.2572 211.494 97.4572 211.53 97.6652 211.53C98.0252 211.53 98.3292 211.466 98.5772 211.338C98.8252 211.202 99.0292 211.018 99.1892 210.786L100.149 211.554C99.5812 212.322 98.7572 212.706 97.6772 212.706C97.2292 212.706 96.8172 212.638 96.4412 212.502C96.0652 212.358 95.7372 212.158 95.4572 211.902C95.1852 211.646 94.9692 211.334 94.8092 210.966C94.6572 210.59 94.5812 210.166 94.5812 209.694C94.5812 209.23 94.6572 208.81 94.8092 208.434C94.9692 208.05 95.1852 207.726 95.4572 207.462C95.7292 207.19 96.0492 206.982 96.4172 206.838C96.7932 206.686 97.1972 206.61 97.6292 206.61C98.0292 206.61 98.3972 206.678 98.7332 206.814C99.0772 206.942 99.3732 207.138 99.6212 207.402C99.8692 207.658 100.061 207.982 100.197 208.374C100.341 208.758 100.413 209.21 100.413 209.73ZM101.544 211.698C101.544 211.442 101.636 211.222 101.82 211.038C102.012 210.854 102.24 210.762 102.504 210.762C102.76 210.762 102.984 210.85 103.176 211.026C103.368 211.202 103.464 211.418 103.464 211.674C103.464 211.93 103.368 212.15 103.176 212.334C102.992 212.518 102.768 212.61 102.504 212.61C102.376 212.61 102.252 212.586 102.132 212.538C102.02 212.49 101.92 212.426 101.832 212.346C101.744 212.266 101.672 212.17 101.616 212.058C101.568 211.946 101.544 211.826 101.544 211.698Z" fill="white"/>
<path d="M71.585 234.575C71.585 234.575 73.9435 231.627 73.9435 223.962L79.8397 226.321C79.8397 235.755 71.585 234.575 71.585 234.575Z" fill="#FF9A94"/>
<path d="M151.291 150.236H150.499V145.268H148.683V144.572H153.107V145.268H151.291V150.236ZM155.774 150.236C155.764 150.14 155.756 150.033 155.75 149.916C155.745 149.793 155.742 149.692 155.742 149.612H155.726C155.63 149.815 155.468 149.988 155.238 150.132C155.014 150.271 154.764 150.34 154.486 150.34C154.241 150.34 154.028 150.3 153.846 150.22C153.67 150.14 153.524 150.031 153.406 149.892C153.294 149.748 153.209 149.583 153.15 149.396C153.097 149.209 153.07 149.009 153.07 148.796V146.444H153.822V148.54C153.822 148.695 153.833 148.844 153.854 148.988C153.881 149.127 153.926 149.249 153.99 149.356C154.054 149.463 154.142 149.548 154.254 149.612C154.366 149.676 154.51 149.708 154.686 149.708C154.99 149.708 155.236 149.596 155.422 149.372C155.609 149.143 155.702 148.839 155.702 148.46V146.444H156.454V149.42C156.454 149.521 156.457 149.652 156.462 149.812C156.468 149.972 156.476 150.113 156.486 150.236H155.774ZM160.535 148.004C160.529 147.855 160.503 147.716 160.455 147.588C160.412 147.455 160.345 147.34 160.255 147.244C160.169 147.148 160.06 147.073 159.927 147.02C159.799 146.961 159.647 146.932 159.471 146.932C159.311 146.932 159.159 146.961 159.015 147.02C158.876 147.073 158.753 147.148 158.647 147.244C158.545 147.34 158.46 147.455 158.391 147.588C158.327 147.716 158.289 147.855 158.279 148.004H160.535ZM161.295 148.308C161.295 148.351 161.295 148.393 161.295 148.436C161.295 148.479 161.292 148.521 161.287 148.564H158.279C158.284 148.724 158.319 148.876 158.383 149.02C158.452 149.159 158.543 149.281 158.655 149.388C158.767 149.489 158.895 149.569 159.039 149.628C159.188 149.687 159.345 149.716 159.511 149.716C159.767 149.716 159.988 149.66 160.175 149.548C160.361 149.436 160.508 149.3 160.615 149.14L161.143 149.564C160.94 149.831 160.7 150.028 160.423 150.156C160.151 150.279 159.847 150.34 159.511 150.34C159.223 150.34 158.956 150.292 158.711 150.196C158.465 150.1 158.255 149.967 158.079 149.796C157.903 149.62 157.764 149.409 157.663 149.164C157.561 148.919 157.511 148.647 157.511 148.348C157.511 148.055 157.559 147.785 157.655 147.54C157.756 147.289 157.895 147.076 158.071 146.9C158.247 146.724 158.455 146.588 158.695 146.492C158.935 146.391 159.193 146.34 159.471 146.34C159.748 146.34 159.999 146.385 160.223 146.476C160.452 146.567 160.644 146.697 160.799 146.868C160.959 147.039 161.081 147.247 161.167 147.492C161.252 147.732 161.295 148.004 161.295 148.308ZM164.393 147.404C164.307 147.265 164.187 147.153 164.033 147.068C163.878 146.977 163.705 146.932 163.513 146.932C163.427 146.932 163.342 146.943 163.257 146.964C163.171 146.98 163.094 147.009 163.025 147.052C162.961 147.089 162.907 147.14 162.865 147.204C162.827 147.263 162.809 147.337 162.809 147.428C162.809 147.588 162.881 147.708 163.025 147.788C163.169 147.863 163.385 147.932 163.673 147.996C163.854 148.039 164.022 148.089 164.177 148.148C164.331 148.207 164.465 148.281 164.577 148.372C164.694 148.457 164.785 148.561 164.849 148.684C164.913 148.807 164.945 148.951 164.945 149.116C164.945 149.34 164.902 149.529 164.817 149.684C164.731 149.839 164.617 149.967 164.473 150.068C164.334 150.164 164.174 150.233 163.993 150.276C163.811 150.319 163.625 150.34 163.433 150.34C163.145 150.34 162.862 150.284 162.585 150.172C162.313 150.06 162.086 149.889 161.905 149.66L162.441 149.204C162.542 149.353 162.681 149.479 162.857 149.58C163.038 149.681 163.235 149.732 163.449 149.732C163.545 149.732 163.635 149.724 163.721 149.708C163.811 149.687 163.891 149.655 163.961 149.612C164.035 149.569 164.094 149.513 164.137 149.444C164.179 149.375 164.201 149.287 164.201 149.18C164.201 149.004 164.115 148.873 163.945 148.788C163.779 148.703 163.534 148.623 163.209 148.548C163.081 148.516 162.95 148.479 162.817 148.436C162.689 148.388 162.571 148.324 162.465 148.244C162.358 148.164 162.27 148.065 162.201 147.948C162.137 147.825 162.105 147.676 162.105 147.5C162.105 147.297 162.145 147.124 162.225 146.98C162.31 146.831 162.419 146.711 162.553 146.62C162.686 146.524 162.838 146.455 163.009 146.412C163.179 146.364 163.355 146.34 163.537 146.34C163.809 146.34 164.07 146.393 164.321 146.5C164.577 146.607 164.774 146.761 164.913 146.964L164.393 147.404ZM166.163 151.3H165.523L166.075 149.3H166.827L166.163 151.3ZM172.703 148.924H172.719L174.391 144.572H175.623V150.236H174.831V145.5H174.815L172.935 150.236H172.431L170.559 145.5H170.543V150.236H169.775V144.572H171.007L172.703 148.924ZM179.322 147.78C179.322 147.497 179.236 147.289 179.066 147.156C178.895 147.017 178.668 146.948 178.386 146.948C178.172 146.948 177.97 146.991 177.778 147.076C177.591 147.156 177.434 147.26 177.306 147.388L176.906 146.908C177.092 146.732 177.319 146.593 177.586 146.492C177.858 146.391 178.148 146.34 178.458 146.34C178.73 146.34 178.964 146.38 179.162 146.46C179.364 146.535 179.53 146.639 179.658 146.772C179.786 146.905 179.882 147.063 179.946 147.244C180.01 147.425 180.042 147.62 180.042 147.828V149.484C180.042 149.612 180.044 149.748 180.05 149.892C180.06 150.031 180.076 150.145 180.098 150.236H179.418C179.375 150.055 179.354 149.873 179.354 149.692H179.33C179.191 149.895 179.015 150.052 178.802 150.164C178.594 150.276 178.346 150.332 178.058 150.332C177.908 150.332 177.751 150.311 177.586 150.268C177.426 150.231 177.279 150.167 177.146 150.076C177.012 149.985 176.9 149.865 176.81 149.716C176.724 149.567 176.682 149.383 176.682 149.164C176.682 148.876 176.759 148.649 176.914 148.484C177.068 148.313 177.271 148.185 177.522 148.1C177.772 148.009 178.055 147.951 178.37 147.924C178.684 147.897 179.002 147.884 179.322 147.884V147.78ZM179.138 148.428C178.951 148.428 178.756 148.436 178.554 148.452C178.356 148.468 178.175 148.5 178.01 148.548C177.85 148.596 177.716 148.668 177.61 148.764C177.503 148.86 177.45 148.988 177.45 149.148C177.45 149.26 177.471 149.353 177.514 149.428C177.562 149.503 177.623 149.564 177.698 149.612C177.772 149.66 177.855 149.695 177.946 149.716C178.036 149.732 178.13 149.74 178.226 149.74C178.578 149.74 178.847 149.636 179.034 149.428C179.226 149.215 179.322 148.948 179.322 148.628V148.428H179.138ZM181.298 147.26C181.298 147.159 181.295 147.028 181.29 146.868C181.284 146.708 181.276 146.567 181.266 146.444H181.978C181.988 146.54 181.996 146.652 182.002 146.78C182.007 146.903 182.01 147.004 182.01 147.084H182.034C182.14 146.86 182.295 146.681 182.498 146.548C182.706 146.409 182.938 146.34 183.194 146.34C183.311 146.34 183.41 146.351 183.49 146.372L183.458 147.068C183.351 147.041 183.236 147.028 183.114 147.028C182.932 147.028 182.775 147.063 182.642 147.132C182.508 147.196 182.396 147.284 182.306 147.396C182.22 147.508 182.156 147.639 182.114 147.788C182.071 147.932 182.05 148.084 182.05 148.244V150.236H181.298V147.26ZM188.58 150.236H187.804V145.516L186.732 146.412L186.276 145.876L187.884 144.572H188.58V150.236Z" fill="#ACB1BF"/>
</g>
</g>
<defs>
<filter id="filter0_di" x="0" y="0" width="340.104" height="596" filterUnits="userSpaceOnUse" color-interpolation-filters="sRGB">
<feFlood flood-opacity="0" result="BackgroundImageFix"/>
<feColorMatrix in="SourceAlpha" type="matrix" values="0 0 0 0 0 0 0 0 0 0 0 0 0 0 0 0 0 0 127 0"/>
<feOffset dy="8"/>
<feGaussianBlur stdDeviation="24"/>
<feColorMatrix type="matrix" values="0 0 0 0 0.141176 0 0 0 0 0.176471 0 0 0 0 0.270588 0 0 0 0.15 0"/>
<feBlend mode="normal" in2="BackgroundImageFix" result="effect1_dropShadow"/>
<feBlend mode="normal" in="SourceGraphic" in2="effect1_dropShadow" result="shape"/>
<feColorMatrix in="SourceAlpha" type="matrix" values="0 0 0 0 0 0 0 0 0 0 0 0 0 0 0 0 0 0 127 0" result="hardAlpha"/>
<feOffset/>
<feGaussianBlur stdDeviation="6"/>
<feComposite in2="hardAlpha" operator="arithmetic" k2="-1" k3="1"/>
<feColorMatrix type="matrix" values="0 0 0 0 0.12549 0 0 0 0 0.129412 0 0 0 0 0.141176 0 0 0 0.1 0"/>
<feBlend mode="normal" in2="shape" result="effect2_innerShadow"/>
</filter>
<clipPath id="clip0">
<rect x="59.7925" y="51.7925" width="220.519" height="476.415" rx="20" fill="white"/>
</clipPath>
</defs>
</svg>
