<svg width="105" height="32" viewBox="0 0 105 32" fill="none" xmlns="http://www.w3.org/2000/svg">
<path d="M14 19.5323C14 22.7601 11.1604 25.5 7.5 25.5C3.83955 25.5 1 22.7601 1 19.5323C1 17.0031 2.66718 14.232 4.52268 11.9735C5.42865 10.8708 6.33731 9.94032 7.02033 9.28521C7.19711 9.11565 7.35835 8.96495 7.5 8.8349C7.64165 8.96495 7.80289 9.11565 7.97967 9.28521C8.66269 9.94032 9.57135 10.8708 10.4773 11.9735C12.3328 14.232 14 17.0031 14 19.5323Z" stroke="#5C80E0" stroke-width="2"/>
<path d="M11 19.2827C11 20.9994 9.4951 22.5 7.5 22.5C5.5049 22.5 4 20.9994 4 19.2827C4 17.8965 4.92045 16.3117 6.02539 14.9549C6.55657 14.3027 7.09039 13.7512 7.49223 13.3624C7.49482 13.3599 7.49741 13.3574 7.5 13.3549C7.50258 13.3574 7.50518 13.3599 7.50777 13.3624C7.90961 13.7512 8.44344 14.3027 8.97461 14.9549C10.0796 16.3117 11 17.8965 11 19.2827Z" stroke="#5C80E0" stroke-width="2"/>
<path d="M8 19.0331C8 19.27 7.7973 19.5 7.5 19.5C7.2027 19.5 7 19.27 7 19.0331C7 18.7878 7.17227 18.4047 7.5 17.9732C7.82773 18.4047 8 18.7878 8 19.0331ZM8.15965 17.2516L8.15925 17.2519L8.15965 17.2516Z" stroke="#5C80E0" stroke-width="2"/>
<path d="M28.872 10.192C28.552 10.16 28.232 10.128 27.88 10.128C26.536 10.128 24.36 10.512 23.4 12.592V10.256H19.272V26H23.528V18.8C23.528 15.408 25.416 14.352 27.592 14.352C27.976 14.352 28.392 14.384 28.872 14.48V10.192ZM35.1618 26V10.256H30.9058V26H35.1618ZM30.3938 5.104C30.3938 6.512 31.5778 7.696 33.0178 7.696C34.4898 7.696 35.6418 6.512 35.6418 5.104C35.6418 3.632 34.4898 2.448 33.0178 2.448C31.5778 2.448 30.3938 3.632 30.3938 5.104ZM43.0143 16.944C43.0143 15.12 44.1023 13.68 45.9583 13.68C48.0063 13.68 48.8703 15.056 48.8703 16.816V26H53.1263V16.08C53.1263 12.624 51.3343 9.84 47.4303 9.84C45.7343 9.84 43.8463 10.576 42.8863 12.208V10.256H38.7582V26H43.0143V16.944ZM55.1417 21.616C55.3337 23.408 56.9657 26.48 61.7017 26.48C65.8297 26.48 67.8137 23.856 67.8137 21.296C67.8137 18.992 66.2457 17.104 63.1417 16.464L60.9017 15.984C60.0377 15.824 59.4617 15.344 59.4617 14.576C59.4617 13.68 60.3577 13.008 61.4777 13.008C63.2697 13.008 63.9417 14.192 64.0697 15.12L67.6217 14.32C67.4297 12.624 65.9257 9.776 61.4457 9.776C58.0537 9.776 55.5577 12.112 55.5577 14.928C55.5577 17.136 56.9337 18.96 59.9737 19.632L62.0537 20.112C63.2697 20.368 63.7497 20.944 63.7497 21.648C63.7497 22.48 63.0777 23.216 61.6697 23.216C59.8137 23.216 58.8857 22.064 58.7897 20.816L55.1417 21.616ZM73.3173 16.336C73.4132 14.896 74.6293 13.232 76.8373 13.232C79.2692 13.232 80.2933 14.768 80.3573 16.336H73.3173ZM80.7733 20.432C80.2613 21.84 79.1733 22.832 77.1892 22.832C75.0773 22.832 73.3173 21.328 73.2213 19.248H84.4853C84.4853 19.184 84.5493 18.544 84.5493 17.936C84.5493 12.88 81.6373 9.776 76.7733 9.776C72.7413 9.776 69.0292 13.04 69.0292 18.064C69.0292 23.376 72.8373 26.48 77.1573 26.48C81.0293 26.48 83.5253 24.208 84.3253 21.488L80.7733 20.432ZM101.949 2.832H97.7567V11.824C97.3087 10.992 96.0287 9.872 93.3087 9.872C88.8607 9.872 85.7567 13.488 85.7567 18.096C85.7567 22.864 88.9567 26.384 93.4367 26.384C95.5487 26.384 97.1487 25.424 97.8527 24.176C97.8527 24.912 97.9487 25.68 98.0127 26H102.077C102.013 25.36 101.949 24.208 101.949 23.152V2.832ZM90.0447 18.096C90.0447 15.28 91.7727 13.68 93.9487 13.68C96.1247 13.68 97.8207 15.248 97.8207 18.064C97.8207 20.912 96.1247 22.576 93.9487 22.576C91.7087 22.576 90.0447 20.912 90.0447 18.096Z" fill="#5C80E0"/>
</svg>
